<?xml version="1.0" encoding="utf-8"?>
<!-- Generator: Adobe Illustrator 22.0.0, SVG Export Plug-In . SVG Version: 6.00 Build 0)  -->
<svg version="1.1" id="Layer_1" xmlns="http://www.w3.org/2000/svg" xmlns:xlink="http://www.w3.org/1999/xlink" x="0px" y="0px"
	 viewBox="0 0 914.5 547.8" style="enable-background:new 0 0 914.5 547.8;" xml:space="preserve">
<style type="text/css">
	.st0{fill:#2CC055;}
	.st1{fill:none;stroke:#0D374D;}
	.st2{opacity:0.5;fill:none;stroke:#2CC055;enable-background:new    ;}
	.st3{fill:none;stroke:#2CC055;}
	.st4{fill:#64B6E6;}
	.st5{fill:none;stroke:#64B6E6;}
	.st6{enable-background:new    ;}
	.st7{font-family:'OpenSans-Semibold';}
	.st8{font-size:20px;}
	.st9{fill:#FFFFFF;}
</style>
<g id="Group_934" transform="translate(681.061 3168.254) rotate(90)">
	<path id="Path_6799" class="st0" d="M-3032.2,213.7v18.2l10.2-9.1L-3032.2,213.7z"/>
	<line id="Line_358" class="st1" x1="-3117.9" y1="223.1" x2="-3105.6" y2="223.1"/>
	<path id="Path_6800" class="st2" d="M-3054.4,223.1h13.9"/>
</g>
<g id="Group_935" transform="translate(419.831 3273.776) rotate(90)">
	<path id="Path_6799-2" class="st0" d="M-3083.7,213.7v18.2l10.2-9.1L-3083.7,213.7z"/>
	<line id="Line_357" class="st3" x1="-3100.7" y1="223.1" x2="-3088.4" y2="223.1"/>
	<line id="Line_358-2" class="st3" x1="-3117.9" y1="223.1" x2="-3105.6" y2="223.1"/>
</g>
<g id="Group_937" transform="translate(419.831 3448.319) rotate(90)">
	<path id="Path_6799-3" class="st4" d="M-3083.7,213.7v18.2l10.2-9.1L-3083.7,213.7z"/>
	<line id="Line_357-2" class="st5" x1="-3100.7" y1="223.1" x2="-3088.4" y2="223.1"/>
	<line id="Line_358-3" class="st5" x1="-3117.9" y1="223.1" x2="-3105.6" y2="223.1"/>
</g>
<path id="Path_6820" class="st4" d="M316.8,417.5h-18.2l9.1,10.2L316.8,417.5z"/>
<path id="Path_6821" class="st4" d="M841.8,417.5h-18.2l9.1,10.2L841.8,417.5z"/>
<path id="Path_6822" class="st4" d="M92.9,417.5H74.7l9.1,10.2L92.9,417.5z"/>
<g id="Group_940" transform="translate(297.155 3497.219)">
	<line id="Line_357-3" class="st5" x1="10.2" y1="-3100.7" x2="10.2" y2="-3088.4"/>
	<line id="Line_358-4" class="st5" x1="10.2" y1="-3117.9" x2="10.2" y2="-3105.6"/>
	<line id="Line_357-4" class="st5" x1="-213.7" y1="-3100.7" x2="-213.7" y2="-3088.4"/>
	<line id="Line_358-5" class="st5" x1="-213.7" y1="-3117.9" x2="-213.7" y2="-3105.6"/>
</g>
<path id="Path_6823" class="st4" d="M617.9,417.5h-18.2l9.1,10.2L617.9,417.5z"/>
<g id="Group_939" transform="translate(823.477 3495.932)">
	<line id="Line_357-5" class="st5" x1="10.2" y1="-3100.7" x2="10.2" y2="-3088.4"/>
	<line id="Line_358-6" class="st5" x1="10.2" y1="-3117.9" x2="10.2" y2="-3105.6"/>
	<line id="Line_357-6" class="st5" x1="-213.7" y1="-3100.7" x2="-213.7" y2="-3088.4"/>
	<line id="Line_358-7" class="st5" x1="-213.7" y1="-3117.9" x2="-213.7" y2="-3105.6"/>
</g>
<g id="Group_938" transform="translate(943.579 3448.319) rotate(90)">
	<path id="Path_6799-4" class="st4" d="M-3083.7,213.7v18.2l10.2-9.1L-3083.7,213.7z"/>
	<line id="Line_357-7" class="st5" x1="-3100.7" y1="223.1" x2="-3088.4" y2="223.1"/>
	<line id="Line_358-8" class="st5" x1="-3117.9" y1="223.1" x2="-3105.6" y2="223.1"/>
</g>
<g id="Group_936" transform="translate(943.579 3273.776) rotate(90)">
	<path id="Path_6799-5" class="st0" d="M-3083.7,213.7v18.2l10.2-9.1L-3083.7,213.7z"/>
	<line id="Line_357-8" class="st3" x1="-3100.7" y1="223.1" x2="-3088.4" y2="223.1"/>
	<line id="Line_358-9" class="st3" x1="-3117.9" y1="223.1" x2="-3105.6" y2="223.1"/>
</g>
<g class="st6">
	<path class="st0" d="M405.8,106.5h-2V94.3h6.8V96h-4.9v3.8h4.6v1.7h-4.6V106.5z"/>
	<path class="st0" d="M414.9,101.6v4.8h-2V94.3h3.4c1.6,0,2.7,0.3,3.5,0.9s1.1,1.5,1.1,2.7c0,1.5-0.8,2.6-2.4,3.2l3.4,5.4h-2.3
		l-2.9-4.8H414.9z M414.9,100h1.4c0.9,0,1.6-0.2,2-0.5s0.6-0.9,0.6-1.5c0-0.7-0.2-1.2-0.7-1.5s-1.1-0.4-2-0.4h-1.3V100z"/>
	<path class="st0" d="M430.7,106.5h-6.9V94.3h6.9V96h-4.9v3.3h4.6v1.7h-4.6v3.8h4.9V106.5z"/>
	<path class="st0" d="M440.1,106.5h-6.9V94.3h6.9V96h-4.9v3.3h4.6v1.7h-4.6v3.8h4.9V106.5z"/>
	<path class="st0" d="M458,100.4c0,2-0.5,3.5-1.5,4.6c-1,1.1-2.4,1.6-4.2,1.6c-1.8,0-3.2-0.5-4.2-1.6c-1-1.1-1.5-2.6-1.5-4.6
		c0-2,0.5-3.5,1.5-4.6c1-1.1,2.4-1.6,4.2-1.6c1.8,0,3.2,0.5,4.2,1.6S458,98.4,458,100.4z M448.7,100.4c0,1.5,0.3,2.6,0.9,3.4
		c0.6,0.8,1.5,1.2,2.7,1.2c1.2,0,2.1-0.4,2.7-1.1c0.6-0.8,0.9-1.9,0.9-3.4c0-1.5-0.3-2.6-0.9-3.4c-0.6-0.8-1.5-1.2-2.7-1.2
		c-1.2,0-2.1,0.4-2.7,1.2C449,97.8,448.7,98.9,448.7,100.4z"/>
	<path class="st0" d="M462.5,106.5h-2V94.3h6.8V96h-4.9v3.8h4.6v1.7h-4.6V106.5z"/>
	<path class="st0" d="M479.2,95.9c-1.1,0-2,0.4-2.7,1.2c-0.7,0.8-1,1.9-1,3.3c0,1.5,0.3,2.6,0.9,3.4s1.5,1.1,2.7,1.1
		c0.5,0,1-0.1,1.5-0.2s1-0.2,1.5-0.4v1.7c-1,0.4-2,0.5-3.2,0.5c-1.8,0-3.1-0.5-4.1-1.6c-1-1.1-1.4-2.6-1.4-4.6
		c0-1.3,0.2-2.4,0.7-3.3s1.1-1.7,2-2.2c0.9-0.5,1.9-0.8,3.1-0.8c1.2,0,2.4,0.3,3.4,0.8l-0.7,1.7c-0.4-0.2-0.8-0.4-1.3-0.5
		C480.2,95.9,479.7,95.9,479.2,95.9z"/>
	<path class="st0" d="M495.6,100.4c0,2-0.5,3.5-1.5,4.6c-1,1.1-2.4,1.6-4.2,1.6c-1.8,0-3.2-0.5-4.2-1.6c-1-1.1-1.5-2.6-1.5-4.6
		c0-2,0.5-3.5,1.5-4.6c1-1.1,2.4-1.6,4.2-1.6c1.8,0,3.2,0.5,4.2,1.6C495.1,96.9,495.6,98.4,495.6,100.4z M486.3,100.4
		c0,1.5,0.3,2.6,0.9,3.4c0.6,0.8,1.5,1.2,2.7,1.2c1.2,0,2.1-0.4,2.7-1.1s0.9-1.9,0.9-3.4c0-1.5-0.3-2.6-0.9-3.4
		c-0.6-0.8-1.5-1.2-2.7-1.2c-1.2,0-2.1,0.4-2.7,1.2C486.6,97.8,486.3,98.9,486.3,100.4z"/>
	<path class="st0" d="M505.2,103.2c0,1.1-0.4,1.9-1.2,2.5c-0.8,0.6-1.9,0.9-3.2,0.9c-1.4,0-2.5-0.2-3.4-0.6v-1.9
		c0.6,0.3,1.1,0.5,1.8,0.6c0.6,0.1,1.2,0.2,1.7,0.2c0.8,0,1.4-0.1,1.7-0.4c0.4-0.3,0.6-0.7,0.6-1.2c0-0.5-0.2-0.8-0.5-1.2
		c-0.3-0.3-1.1-0.7-2.1-1.1c-1.1-0.4-1.9-1-2.3-1.5c-0.5-0.6-0.7-1.3-0.7-2.1c0-1,0.4-1.8,1.1-2.4c0.7-0.6,1.7-0.9,2.9-0.9
		c1.2,0,2.3,0.3,3.5,0.8l-0.6,1.6c-1.1-0.5-2-0.7-2.9-0.7c-0.6,0-1.1,0.1-1.5,0.4s-0.5,0.6-0.5,1.1c0,0.3,0.1,0.6,0.2,0.8
		c0.1,0.2,0.4,0.4,0.7,0.6c0.3,0.2,0.9,0.5,1.6,0.8c0.9,0.4,1.5,0.7,2,1s0.7,0.7,0.9,1.1C505.1,102.2,505.2,102.6,505.2,103.2z"/>
	<path class="st0" d="M511.7,106.5h-2V96.1h-3.6v-1.7h9.1v1.7h-3.6V106.5z"/>
</g>
<g class="st6">
	<path class="st4" d="M148.4,309.1h-7.7v-1.2l5.4-8h-5.3v-1.5h7.4v1.2l-5.4,8h5.6V309.1z"/>
	<path class="st4" d="M153.7,309.2c-1.3,0-2.2-0.4-3-1.1c-0.7-0.7-1.1-1.7-1.1-3c0-1.3,0.3-2.4,1-3.1s1.6-1.1,2.7-1.1
		c1.1,0,1.9,0.3,2.5,1c0.6,0.7,0.9,1.5,0.9,2.7v0.9h-5.4c0,0.8,0.2,1.4,0.6,1.8c0.4,0.4,1,0.6,1.7,0.6c0.5,0,0.9,0,1.3-0.1
		c0.4-0.1,0.9-0.2,1.3-0.5v1.4c-0.4,0.2-0.8,0.3-1.3,0.4C154.7,309.2,154.2,309.2,153.7,309.2z M153.3,302.1c-0.5,0-1,0.2-1.3,0.5
		c-0.3,0.3-0.5,0.9-0.6,1.5h3.7c0-0.7-0.2-1.2-0.5-1.5C154.3,302.3,153.9,302.1,153.3,302.1z"/>
	<path class="st4" d="M162.9,300.8c0.3,0,0.6,0,0.9,0.1l-0.2,1.6c-0.2-0.1-0.5-0.1-0.8-0.1c-0.7,0-1.2,0.2-1.7,0.7
		c-0.4,0.5-0.6,1-0.6,1.8v4.2h-1.7V301h1.3l0.2,1.4h0.1c0.3-0.5,0.6-0.9,1.1-1.2C161.9,301,162.4,300.8,162.9,300.8z"/>
	<path class="st4" d="M172.4,305c0,1.3-0.3,2.4-1,3.1s-1.6,1.1-2.8,1.1c-0.8,0-1.4-0.2-2-0.5s-1-0.8-1.3-1.5s-0.5-1.4-0.5-2.2
		c0-1.3,0.3-2.3,1-3.1s1.6-1.1,2.8-1.1c1.2,0,2.1,0.4,2.8,1.1C172.1,302.7,172.4,303.7,172.4,305z M166.5,305c0,1.9,0.7,2.8,2.1,2.8
		c1.4,0,2.1-0.9,2.1-2.8c0-1.9-0.7-2.8-2.1-2.8c-0.7,0-1.2,0.2-1.6,0.7C166.7,303.4,166.5,304.1,166.5,305z"/>
	<path class="st4" d="M184.6,306.2c0,1-0.3,1.7-1,2.2c-0.7,0.5-1.6,0.8-2.8,0.8s-2.2-0.2-3-0.6V307c0.5,0.2,1,0.4,1.6,0.5
		c0.5,0.1,1.1,0.2,1.5,0.2c0.7,0,1.2-0.1,1.5-0.4c0.3-0.3,0.5-0.6,0.5-1.1c0-0.4-0.2-0.7-0.5-1s-0.9-0.6-1.9-1
		c-1-0.4-1.7-0.8-2.1-1.4s-0.6-1.1-0.6-1.8c0-0.9,0.3-1.6,1-2.1s1.5-0.8,2.6-0.8c1,0,2,0.2,3.1,0.7l-0.6,1.4c-1-0.4-1.8-0.6-2.5-0.6
		c-0.6,0-1,0.1-1.3,0.4c-0.3,0.2-0.4,0.6-0.4,1c0,0.3,0.1,0.5,0.2,0.7c0.1,0.2,0.3,0.4,0.6,0.6s0.8,0.4,1.5,0.7
		c0.8,0.3,1.4,0.6,1.7,0.9s0.6,0.6,0.8,1C184.6,305.3,184.6,305.7,184.6,306.2z"/>
	<path class="st4" d="M190.1,309.2c-1.3,0-2.2-0.4-3-1.1c-0.7-0.7-1.1-1.7-1.1-3c0-1.3,0.3-2.4,1-3.1s1.6-1.1,2.7-1.1
		c1.1,0,1.9,0.3,2.5,1c0.6,0.7,0.9,1.5,0.9,2.7v0.9h-5.4c0,0.8,0.2,1.4,0.6,1.8c0.4,0.4,1,0.6,1.7,0.6c0.5,0,0.9,0,1.3-0.1
		c0.4-0.1,0.9-0.2,1.3-0.5v1.4c-0.4,0.2-0.8,0.3-1.3,0.4C191.1,309.2,190.6,309.2,190.1,309.2z M189.8,302.1c-0.5,0-1,0.2-1.3,0.5
		c-0.3,0.3-0.5,0.9-0.6,1.5h3.7c0-0.7-0.2-1.2-0.5-1.5C190.7,302.3,190.3,302.1,189.8,302.1z"/>
	<path class="st4" d="M198.2,307.8c0.4,0,0.8-0.1,1.3-0.2v1.3c-0.2,0.1-0.4,0.2-0.7,0.2c-0.3,0.1-0.6,0.1-0.9,0.1
		c-1.6,0-2.4-0.9-2.4-2.6v-4.4h-1.1v-0.8l1.2-0.6l0.6-1.7h1.1v1.8h2.3v1.3h-2.3v4.3c0,0.4,0.1,0.7,0.3,0.9
		C197.6,307.7,197.9,307.8,198.2,307.8z"/>
	<path class="st4" d="M206.8,309.1l-0.2-1.1h-0.1c-0.2,0.4-0.6,0.7-1,0.9s-0.9,0.3-1.5,0.3c-1,0-1.7-0.2-2.2-0.7s-0.7-1.2-0.7-2.2
		V301h1.7v5c0,0.6,0.1,1.1,0.4,1.4c0.3,0.3,0.7,0.5,1.2,0.5c0.7,0,1.3-0.2,1.6-0.6c0.3-0.4,0.5-1.2,0.5-2.2v-4h1.7v8.1H206.8z"/>
	<path class="st4" d="M214.7,309.2c-1,0-1.8-0.4-2.4-1.1h-0.1c0.1,0.7,0.1,1.1,0.1,1.2v3.3h-1.7V301h1.4c0,0.2,0.1,0.5,0.2,1.1h0.1
		c0.5-0.8,1.3-1.2,2.4-1.2c1,0,1.8,0.4,2.4,1.1c0.6,0.7,0.8,1.8,0.8,3.1s-0.3,2.4-0.9,3.1S215.7,309.2,214.7,309.2z M214.3,302.2
		c-0.7,0-1.2,0.2-1.5,0.6c-0.3,0.4-0.5,1-0.5,1.9v0.3c0,1,0.2,1.7,0.5,2.1c0.3,0.4,0.8,0.7,1.5,0.7c0.6,0,1.1-0.2,1.4-0.7
		s0.5-1.2,0.5-2.1c0-0.9-0.2-1.6-0.5-2.1C215.4,302.5,214.9,302.2,214.3,302.2z"/>
	<path class="st4" d="M228.6,299.7c-1,0-1.8,0.4-2.4,1.1s-0.9,1.7-0.9,3c0,1.3,0.3,2.3,0.8,3c0.6,0.7,1.4,1,2.4,1
		c0.5,0,0.9,0,1.3-0.1c0.4-0.1,0.9-0.2,1.3-0.3v1.5c-0.8,0.3-1.8,0.5-2.9,0.5c-1.6,0-2.8-0.5-3.6-1.4c-0.8-0.9-1.3-2.3-1.3-4.1
		c0-1.1,0.2-2.1,0.6-2.9c0.4-0.8,1-1.5,1.8-1.9s1.7-0.7,2.7-0.7c1.1,0,2.1,0.2,3,0.7l-0.6,1.5c-0.4-0.2-0.7-0.3-1.1-0.5
		C229.4,299.8,229,299.7,228.6,299.7z"/>
	<path class="st4" d="M240.5,305c0,1.3-0.3,2.4-1,3.1s-1.6,1.1-2.8,1.1c-0.8,0-1.4-0.2-2-0.5s-1-0.8-1.3-1.5s-0.5-1.4-0.5-2.2
		c0-1.3,0.3-2.3,1-3.1s1.6-1.1,2.8-1.1c1.2,0,2.1,0.4,2.8,1.1C240.2,302.7,240.5,303.7,240.5,305z M234.6,305c0,1.9,0.7,2.8,2.1,2.8
		c1.4,0,2.1-0.9,2.1-2.8c0-1.9-0.7-2.8-2.1-2.8c-0.7,0-1.2,0.2-1.6,0.7C234.8,303.4,234.6,304.1,234.6,305z"/>
	<path class="st4" d="M247.9,306.8c0,0.8-0.3,1.4-0.9,1.8c-0.6,0.4-1.4,0.6-2.5,0.6c-1.1,0-1.9-0.2-2.6-0.5v-1.5
		c1,0.4,1.8,0.7,2.7,0.7c1.1,0,1.6-0.3,1.6-1c0-0.2-0.1-0.4-0.2-0.5c-0.1-0.1-0.3-0.3-0.6-0.4s-0.6-0.3-1.1-0.5
		c-0.9-0.4-1.6-0.7-1.9-1.1c-0.3-0.4-0.5-0.8-0.5-1.4c0-0.7,0.3-1.2,0.8-1.6c0.6-0.4,1.3-0.6,2.3-0.6c1,0,1.9,0.2,2.7,0.6l-0.6,1.3
		c-0.9-0.4-1.6-0.5-2.2-0.5c-0.9,0-1.4,0.3-1.4,0.8c0,0.3,0.1,0.5,0.4,0.6c0.2,0.2,0.8,0.4,1.5,0.7c0.7,0.3,1.2,0.5,1.5,0.7
		s0.5,0.5,0.7,0.7C247.9,306,247.9,306.4,247.9,306.8z"/>
	<path class="st4" d="M252.8,307.8c0.4,0,0.8-0.1,1.3-0.2v1.3c-0.2,0.1-0.4,0.2-0.7,0.2c-0.3,0.1-0.6,0.1-0.9,0.1
		c-1.6,0-2.4-0.9-2.4-2.6v-4.4h-1.1v-0.8l1.2-0.6l0.6-1.7h1.1v1.8h2.3v1.3h-2.3v4.3c0,0.4,0.1,0.7,0.3,0.9
		C252.2,307.7,252.5,307.8,252.8,307.8z"/>
</g>
<g class="st6">
	<path class="st4" d="M4.4,537.7l2.5-4.9h1.9l-3.6,6.6v4.2H3.6v-4.1L0,532.8h1.9L4.4,537.7z"/>
	<path class="st4" d="M17.3,539.4c0,1.3-0.3,2.4-1,3.1s-1.6,1.1-2.8,1.1c-0.8,0-1.4-0.2-2-0.5s-1-0.8-1.3-1.5s-0.5-1.4-0.5-2.2
		c0-1.3,0.3-2.3,1-3.1s1.6-1.1,2.8-1.1c1.2,0,2.1,0.4,2.8,1.1C17,537.1,17.3,538.2,17.3,539.4z M11.4,539.4c0,1.9,0.7,2.8,2.1,2.8
		c1.4,0,2.1-0.9,2.1-2.8c0-1.9-0.7-2.8-2.1-2.8c-0.7,0-1.2,0.2-1.6,0.7C11.6,537.9,11.4,538.5,11.4,539.4z"/>
	<path class="st4" d="M25,543.5l-0.2-1.1h-0.1c-0.2,0.4-0.6,0.7-1,0.9s-0.9,0.3-1.5,0.3c-1,0-1.7-0.2-2.2-0.7s-0.7-1.2-0.7-2.2v-5.3
		h1.7v5c0,0.6,0.1,1.1,0.4,1.4c0.3,0.3,0.7,0.5,1.2,0.5c0.7,0,1.3-0.2,1.6-0.6c0.3-0.4,0.5-1.2,0.5-2.2v-4h1.7v8.1H25z"/>
	<path class="st4" d="M32.9,535.3c0.3,0,0.6,0,0.9,0.1l-0.2,1.6c-0.2-0.1-0.5-0.1-0.8-0.1c-0.7,0-1.2,0.2-1.7,0.7
		c-0.4,0.5-0.6,1-0.6,1.8v4.2h-1.7v-8.1h1.3l0.2,1.4h0.1c0.3-0.5,0.6-0.9,1.1-1.2C31.9,535.4,32.4,535.3,32.9,535.3z"/>
	<path class="st4" d="M39.3,543.5v-10.7h1.8v10.7H39.3z"/>
	<path class="st4" d="M50.9,543.5h-1.7v-5c0-0.6-0.1-1.1-0.4-1.4c-0.3-0.3-0.7-0.5-1.2-0.5c-0.7,0-1.3,0.2-1.6,0.6s-0.5,1.1-0.5,2.2
		v4h-1.7v-8.1h1.3l0.2,1.1h0.1c0.2-0.4,0.6-0.7,1-0.9s0.9-0.3,1.5-0.3c1.9,0,2.9,1,2.9,3V543.5z"/>
	<path class="st4" d="M55.1,543.5l-3.1-8.1h1.8l1.6,4.7c0.3,0.8,0.5,1.4,0.5,1.9h0.1c0-0.4,0.2-1,0.5-1.9l1.6-4.7h1.8l-3.1,8.1H55.1
		z"/>
	<path class="st4" d="M64.8,543.7c-1.3,0-2.2-0.4-3-1.1c-0.7-0.7-1.1-1.7-1.1-3c0-1.3,0.3-2.4,1-3.1s1.6-1.1,2.7-1.1
		c1.1,0,1.9,0.3,2.5,1c0.6,0.7,0.9,1.5,0.9,2.7v0.9h-5.4c0,0.8,0.2,1.4,0.6,1.8c0.4,0.4,1,0.6,1.7,0.6c0.5,0,0.9,0,1.3-0.1
		c0.4-0.1,0.9-0.2,1.3-0.5v1.4c-0.4,0.2-0.8,0.3-1.3,0.4C65.9,543.6,65.4,543.7,64.8,543.7z M64.5,536.6c-0.5,0-1,0.2-1.3,0.5
		c-0.3,0.3-0.5,0.9-0.6,1.5h3.7c0-0.7-0.2-1.2-0.5-1.5C65.5,536.7,65.1,536.6,64.5,536.6z"/>
	<path class="st4" d="M77.1,543.5h-1.7v-5c0-0.6-0.1-1.1-0.4-1.4c-0.3-0.3-0.7-0.5-1.2-0.5c-0.7,0-1.3,0.2-1.6,0.6s-0.5,1.1-0.5,2.2
		v4h-1.7v-8.1h1.3l0.2,1.1h0.1c0.2-0.4,0.6-0.7,1-0.9s0.9-0.3,1.5-0.3c1.9,0,2.9,1,2.9,3V543.5z"/>
	<path class="st4" d="M82.5,542.3c0.4,0,0.8-0.1,1.3-0.2v1.3c-0.2,0.1-0.4,0.2-0.7,0.2c-0.3,0.1-0.6,0.1-0.9,0.1
		c-1.6,0-2.4-0.9-2.4-2.6v-4.4h-1.1v-0.8l1.2-0.6l0.6-1.7h1.1v1.8h2.3v1.3h-2.3v4.3c0,0.4,0.1,0.7,0.3,0.9
		C81.9,542.2,82.1,542.3,82.5,542.3z"/>
	<path class="st4" d="M92.5,539.4c0,1.3-0.3,2.4-1,3.1s-1.6,1.1-2.8,1.1c-0.8,0-1.4-0.2-2-0.5s-1-0.8-1.3-1.5s-0.5-1.4-0.5-2.2
		c0-1.3,0.3-2.3,1-3.1s1.6-1.1,2.8-1.1c1.2,0,2.1,0.4,2.8,1.1C92.2,537.1,92.5,538.2,92.5,539.4z M86.6,539.4c0,1.9,0.7,2.8,2.1,2.8
		c1.4,0,2.1-0.9,2.1-2.8c0-1.9-0.7-2.8-2.1-2.8c-0.7,0-1.2,0.2-1.6,0.7C86.8,537.9,86.6,538.5,86.6,539.4z"/>
	<path class="st4" d="M98.6,535.3c0.3,0,0.6,0,0.9,0.1l-0.2,1.6c-0.2-0.1-0.5-0.1-0.8-0.1c-0.7,0-1.2,0.2-1.7,0.7
		c-0.4,0.5-0.6,1-0.6,1.8v4.2h-1.7v-8.1h1.3l0.2,1.4h0.1c0.3-0.5,0.6-0.9,1.1-1.2C97.6,535.4,98.1,535.3,98.6,535.3z"/>
	<path class="st4" d="M99.7,535.4h1.9l1.6,4.6c0.2,0.7,0.4,1.3,0.5,1.8h0.1c0-0.3,0.1-0.6,0.2-1c0.1-0.4,0.7-2.2,1.9-5.5h1.9
		l-3.5,9.2c-0.6,1.7-1.7,2.5-3.1,2.5c-0.4,0-0.8,0-1.1-0.1v-1.4c0.3,0.1,0.6,0.1,0.9,0.1c0.8,0,1.4-0.5,1.8-1.4l0.3-0.8L99.7,535.4z
		"/>
	<path class="st4" d="M122.6,538.1c0,1.7-0.4,3.1-1.3,4.1c-0.9,1-2.1,1.5-3.7,1.5c-1.6,0-2.9-0.5-3.7-1.4c-0.9-1-1.3-2.3-1.3-4.1
		s0.4-3.1,1.3-4.1c0.9-0.9,2.1-1.4,3.7-1.4c1.6,0,2.8,0.5,3.7,1.4S122.6,536.4,122.6,538.1z M114.4,538.1c0,1.3,0.3,2.3,0.8,3
		c0.5,0.7,1.3,1,2.4,1c1,0,1.8-0.3,2.4-1c0.5-0.7,0.8-1.7,0.8-3c0-1.3-0.3-2.3-0.8-3c-0.5-0.7-1.3-1-2.3-1c-1,0-1.8,0.3-2.4,1
		C114.7,535.8,114.4,536.8,114.4,538.1z"/>
	<path class="st4" d="M131.8,543.5h-1.7v-5c0-0.6-0.1-1.1-0.4-1.4c-0.3-0.3-0.7-0.5-1.2-0.5c-0.7,0-1.3,0.2-1.6,0.6
		s-0.5,1.1-0.5,2.2v4h-1.7v-8.1h1.3l0.2,1.1h0.1c0.2-0.4,0.6-0.7,1-0.9s0.9-0.3,1.5-0.3c1.9,0,2.9,1,2.9,3V543.5z"/>
	<path class="st4" d="M136,543.5h-1.7v-11.4h1.7V543.5z"/>
	<path class="st4" d="M138.3,533.3c0-0.3,0.1-0.5,0.3-0.7c0.2-0.2,0.4-0.2,0.7-0.2c0.3,0,0.5,0.1,0.7,0.2c0.2,0.2,0.3,0.4,0.3,0.7
		c0,0.3-0.1,0.5-0.3,0.7c-0.2,0.2-0.4,0.3-0.7,0.3c-0.3,0-0.6-0.1-0.7-0.3C138.4,533.8,138.3,533.6,138.3,533.3z M140.1,543.5h-1.7
		v-8.1h1.7V543.5z"/>
	<path class="st4" d="M149.7,543.5H148v-5c0-0.6-0.1-1.1-0.4-1.4c-0.3-0.3-0.7-0.5-1.2-0.5c-0.7,0-1.3,0.2-1.6,0.6s-0.5,1.1-0.5,2.2
		v4h-1.7v-8.1h1.3l0.2,1.1h0.1c0.2-0.4,0.6-0.7,1-0.9s0.9-0.3,1.5-0.3c1.9,0,2.9,1,2.9,3V543.5z"/>
	<path class="st4" d="M155.7,543.7c-1.3,0-2.2-0.4-3-1.1c-0.7-0.7-1.1-1.7-1.1-3c0-1.3,0.3-2.4,1-3.1s1.6-1.1,2.7-1.1
		c1.1,0,1.9,0.3,2.5,1c0.6,0.7,0.9,1.5,0.9,2.7v0.9h-5.4c0,0.8,0.2,1.4,0.6,1.8c0.4,0.4,1,0.6,1.7,0.6c0.5,0,0.9,0,1.3-0.1
		c0.4-0.1,0.9-0.2,1.3-0.5v1.4c-0.4,0.2-0.8,0.3-1.3,0.4C156.7,543.6,156.2,543.7,155.7,543.7z M155.3,536.6c-0.5,0-1,0.2-1.3,0.5
		c-0.3,0.3-0.5,0.9-0.6,1.5h3.7c0-0.7-0.2-1.2-0.5-1.5C156.3,536.7,155.9,536.6,155.3,536.6z"/>
</g>
<g class="st6">
	<path class="st4" d="M548.8,536l2.5-4.9h1.9l-3.6,6.6v4.2h-1.8v-4.1l-3.6-6.6h1.9L548.8,536z"/>
	<path class="st4" d="M561.6,537.7c0,1.3-0.3,2.4-1,3.1s-1.6,1.1-2.8,1.1c-0.8,0-1.4-0.2-2-0.5c-0.6-0.3-1-0.8-1.3-1.5
		s-0.5-1.4-0.5-2.2c0-1.3,0.3-2.3,1-3.1s1.6-1.1,2.8-1.1c1.2,0,2.1,0.4,2.8,1.1C561.3,535.4,561.6,536.5,561.6,537.7z M555.7,537.7
		c0,1.9,0.7,2.8,2.1,2.8c1.4,0,2.1-0.9,2.1-2.8c0-1.9-0.7-2.8-2.1-2.8c-0.7,0-1.2,0.2-1.6,0.7C555.9,536.2,555.7,536.8,555.7,537.7z
		"/>
	<path class="st4" d="M569.3,541.8l-0.2-1.1H569c-0.2,0.4-0.6,0.7-1,0.9c-0.4,0.2-0.9,0.3-1.5,0.3c-1,0-1.7-0.2-2.2-0.7
		s-0.7-1.2-0.7-2.2v-5.3h1.7v5c0,0.6,0.1,1.1,0.4,1.4c0.3,0.3,0.7,0.5,1.2,0.5c0.7,0,1.3-0.2,1.6-0.6c0.3-0.4,0.5-1.2,0.5-2.2v-4
		h1.7v8.1H569.3z"/>
	<path class="st4" d="M577.2,533.5c0.3,0,0.6,0,0.9,0.1l-0.2,1.6c-0.2-0.1-0.5-0.1-0.8-0.1c-0.7,0-1.2,0.2-1.7,0.7
		c-0.4,0.5-0.6,1-0.6,1.8v4.2h-1.7v-8.1h1.3l0.2,1.4h0.1c0.3-0.5,0.6-0.9,1.1-1.2C576.3,533.7,576.7,533.5,577.2,533.5z"/>
	<path class="st4" d="M590.7,537.7c0,1.3-0.3,2.4-1,3.1s-1.6,1.1-2.8,1.1c-0.8,0-1.4-0.2-2-0.5c-0.6-0.3-1-0.8-1.3-1.5
		s-0.5-1.4-0.5-2.2c0-1.3,0.3-2.3,1-3.1s1.6-1.1,2.8-1.1c1.2,0,2.1,0.4,2.8,1.1C590.3,535.4,590.7,536.5,590.7,537.7z M584.8,537.7
		c0,1.9,0.7,2.8,2.1,2.8c1.4,0,2.1-0.9,2.1-2.8c0-1.9-0.7-2.8-2.1-2.8c-0.7,0-1.2,0.2-1.6,0.7C584.9,536.2,584.8,536.8,584.8,537.7z
		"/>
	<path class="st4" d="M599.3,541.8l-1-3.8c-0.1-0.4-0.4-1.3-0.7-2.8h-0.1c-0.3,1.3-0.5,2.3-0.7,2.8l-1.1,3.8h-1.9l-2.3-8.1h1.8l1,4
		c0.2,1,0.4,1.8,0.5,2.5h0c0-0.4,0.1-0.8,0.2-1.2c0.1-0.5,0.2-0.8,0.3-1l1.2-4.3h1.9l1.2,4.3c0.1,0.2,0.2,0.6,0.3,1.1
		s0.2,0.9,0.2,1.1h0.1c0.1-0.6,0.2-1.4,0.5-2.5l1-4h1.7l-2.3,8.1H599.3z"/>
	<path class="st4" d="M612,541.8h-1.7v-5c0-0.6-0.1-1.1-0.4-1.4c-0.3-0.3-0.7-0.5-1.2-0.5c-0.7,0-1.3,0.2-1.6,0.6s-0.5,1.1-0.5,2.2
		v4h-1.7v-8.1h1.3l0.2,1.1h0.1c0.2-0.4,0.6-0.7,1-0.9s0.9-0.3,1.5-0.3c1.9,0,2.9,1,2.9,3V541.8z"/>
	<path class="st4" d="M622.4,541.9c-1,0-1.8-0.4-2.4-1.1h-0.1c0.1,0.7,0.1,1.1,0.1,1.2v3.3h-1.7v-11.7h1.4c0,0.2,0.1,0.5,0.2,1.1
		h0.1c0.5-0.8,1.3-1.2,2.4-1.2c1,0,1.8,0.4,2.4,1.1c0.6,0.7,0.8,1.8,0.8,3.1s-0.3,2.4-0.9,3.1S623.4,541.9,622.4,541.9z M622,535
		c-0.7,0-1.2,0.2-1.5,0.6c-0.3,0.4-0.5,1-0.5,1.9v0.3c0,1,0.2,1.7,0.5,2.1c0.3,0.4,0.8,0.7,1.5,0.7c0.6,0,1.1-0.2,1.4-0.7
		s0.5-1.2,0.5-2.1c0-0.9-0.2-1.6-0.5-2.1C623.1,535.2,622.6,535,622,535z"/>
	<path class="st4" d="M631.8,533.5c0.3,0,0.6,0,0.9,0.1l-0.2,1.6c-0.2-0.1-0.5-0.1-0.8-0.1c-0.7,0-1.2,0.2-1.7,0.7
		c-0.4,0.5-0.6,1-0.6,1.8v4.2h-1.7v-8.1h1.3l0.2,1.4h0.1c0.3-0.5,0.6-0.9,1.1-1.2C630.8,533.7,631.3,533.5,631.8,533.5z"/>
	<path class="st4" d="M634,531.5c0-0.3,0.1-0.5,0.3-0.7c0.2-0.2,0.4-0.2,0.7-0.2c0.3,0,0.5,0.1,0.7,0.2s0.3,0.4,0.3,0.7
		c0,0.3-0.1,0.5-0.3,0.7c-0.2,0.2-0.4,0.3-0.7,0.3c-0.3,0-0.6-0.1-0.7-0.3C634.1,532.1,634,531.8,634,531.5z M635.9,541.8h-1.7v-8.1
		h1.7V541.8z"/>
	<path class="st4" d="M641.6,541.9c-1.2,0-2.2-0.4-2.8-1.1c-0.6-0.7-1-1.7-1-3.1c0-1.4,0.3-2.4,1-3.1c0.7-0.7,1.6-1.1,2.9-1.1
		c0.9,0,1.6,0.2,2.3,0.5l-0.5,1.4c-0.7-0.3-1.3-0.4-1.8-0.4c-1.4,0-2.1,0.9-2.1,2.8c0,0.9,0.2,1.6,0.5,2c0.3,0.5,0.9,0.7,1.5,0.7
		c0.8,0,1.5-0.2,2.2-0.6v1.5c-0.3,0.2-0.6,0.3-1,0.4S642.1,541.9,641.6,541.9z"/>
	<path class="st4" d="M645.6,531.5c0-0.3,0.1-0.5,0.3-0.7c0.2-0.2,0.4-0.2,0.7-0.2c0.3,0,0.5,0.1,0.7,0.2c0.2,0.2,0.3,0.4,0.3,0.7
		c0,0.3-0.1,0.5-0.3,0.7c-0.2,0.2-0.4,0.3-0.7,0.3c-0.3,0-0.6-0.1-0.7-0.3C645.7,532.1,645.6,531.8,645.6,531.5z M647.5,541.8h-1.7
		v-8.1h1.7V541.8z"/>
	<path class="st4" d="M657,541.8h-1.7v-5c0-0.6-0.1-1.1-0.4-1.4c-0.3-0.3-0.7-0.5-1.2-0.5c-0.7,0-1.3,0.2-1.6,0.6
		c-0.3,0.4-0.5,1.1-0.5,2.2v4h-1.7v-8.1h1.3l0.2,1.1h0.1c0.2-0.4,0.6-0.7,1-0.9s0.9-0.3,1.5-0.3c1.9,0,2.9,1,2.9,3V541.8z"/>
	<path class="st4" d="M666.3,533.7v0.9l-1.4,0.3c0.1,0.2,0.2,0.4,0.3,0.6c0.1,0.2,0.1,0.5,0.1,0.8c0,0.8-0.3,1.5-0.9,2
		s-1.4,0.7-2.4,0.7c-0.3,0-0.5,0-0.7-0.1c-0.4,0.2-0.6,0.5-0.6,0.8c0,0.2,0.1,0.3,0.3,0.4c0.2,0.1,0.5,0.1,1,0.1h1.4
		c0.9,0,1.6,0.2,2,0.6s0.7,0.9,0.7,1.6c0,0.9-0.4,1.6-1.1,2.1s-1.9,0.7-3.3,0.7c-1.1,0-1.9-0.2-2.5-0.6c-0.6-0.4-0.9-0.9-0.9-1.7
		c0-0.5,0.2-0.9,0.5-1.3c0.3-0.3,0.8-0.6,1.3-0.7c-0.2-0.1-0.4-0.3-0.6-0.5c-0.1-0.2-0.2-0.4-0.2-0.7c0-0.3,0.1-0.6,0.3-0.8
		s0.4-0.4,0.8-0.6c-0.4-0.2-0.8-0.5-1-0.9c-0.3-0.4-0.4-0.9-0.4-1.4c0-0.9,0.3-1.6,0.8-2c0.6-0.5,1.3-0.7,2.4-0.7c0.2,0,0.5,0,0.7,0
		c0.3,0,0.4,0.1,0.6,0.1H666.3z M659.9,543.1c0,0.4,0.2,0.7,0.5,0.9c0.3,0.2,0.8,0.3,1.4,0.3c0.9,0,1.6-0.1,2.1-0.4s0.7-0.6,0.7-1.1
		c0-0.4-0.1-0.6-0.4-0.8c-0.3-0.1-0.7-0.2-1.4-0.2h-1.3c-0.5,0-0.9,0.1-1.2,0.3C660.1,542.3,659.9,542.7,659.9,543.1z M660.7,536.3
		c0,0.5,0.1,0.9,0.4,1.2c0.3,0.3,0.6,0.4,1.1,0.4c1,0,1.5-0.5,1.5-1.6c0-0.5-0.1-0.9-0.4-1.2c-0.2-0.3-0.6-0.4-1.1-0.4
		c-0.5,0-0.9,0.1-1.1,0.4C660.8,535.4,660.7,535.8,660.7,536.3z"/>
</g>
<g class="st6">
	<path class="st4" d="M246.3,536.3c0,1.1-0.4,2-1.1,2.6c-0.7,0.6-1.8,0.9-3.1,0.9h-1.1v4h-1.8v-10.7h3.1c1.3,0,2.3,0.3,3,0.8
		C245.9,534.5,246.3,535.3,246.3,536.3z M240.9,538.3h0.9c0.9,0,1.6-0.2,2-0.5s0.6-0.8,0.6-1.5c0-0.6-0.2-1.1-0.6-1.4
		s-1-0.5-1.8-0.5h-1.2V538.3z"/>
	<path class="st4" d="M255.4,539.7c0,1.3-0.3,2.4-1,3.1s-1.6,1.1-2.8,1.1c-0.8,0-1.4-0.2-2-0.5s-1-0.8-1.3-1.5s-0.5-1.4-0.5-2.2
		c0-1.3,0.3-2.3,1-3.1s1.6-1.1,2.8-1.1c1.2,0,2.1,0.4,2.8,1.1C255.1,537.4,255.4,538.5,255.4,539.7z M249.5,539.7
		c0,1.9,0.7,2.8,2.1,2.8c1.4,0,2.1-0.9,2.1-2.8c0-1.9-0.7-2.8-2.1-2.8c-0.7,0-1.2,0.2-1.6,0.7C249.7,538.2,249.5,538.8,249.5,539.7z
		"/>
	<path class="st4" d="M264,543.8l-1-3.8c-0.1-0.4-0.4-1.3-0.7-2.8h-0.1c-0.3,1.3-0.5,2.3-0.7,2.8l-1.1,3.8h-1.9l-2.3-8.1h1.8l1,4
		c0.2,1,0.4,1.8,0.5,2.5h0c0-0.4,0.1-0.8,0.2-1.2c0.1-0.5,0.2-0.8,0.3-1l1.2-4.3h1.9l1.2,4.3c0.1,0.2,0.2,0.6,0.3,1.1
		c0.1,0.5,0.2,0.9,0.2,1.1h0.1c0.1-0.6,0.2-1.4,0.5-2.5l1-4h1.7l-2.3,8.1H264z"/>
	<path class="st4" d="M273.2,543.9c-1.3,0-2.2-0.4-3-1.1c-0.7-0.7-1.1-1.7-1.1-3c0-1.3,0.3-2.4,1-3.1s1.6-1.1,2.7-1.1
		c1.1,0,1.9,0.3,2.5,1c0.6,0.7,0.9,1.5,0.9,2.7v0.9h-5.4c0,0.8,0.2,1.4,0.6,1.8c0.4,0.4,1,0.6,1.7,0.6c0.5,0,0.9,0,1.3-0.1
		c0.4-0.1,0.9-0.2,1.3-0.5v1.4c-0.4,0.2-0.8,0.3-1.3,0.4C274.2,543.9,273.7,543.9,273.2,543.9z M272.9,536.9c-0.5,0-1,0.2-1.3,0.5
		c-0.3,0.3-0.5,0.9-0.6,1.5h3.7c0-0.7-0.2-1.2-0.5-1.5C273.8,537,273.4,536.9,272.9,536.9z"/>
	<path class="st4" d="M282.4,535.5c0.3,0,0.6,0,0.9,0.1l-0.2,1.6c-0.2-0.1-0.5-0.1-0.8-0.1c-0.7,0-1.2,0.2-1.7,0.7
		c-0.4,0.5-0.6,1-0.6,1.8v4.2h-1.7v-8.1h1.3l0.2,1.4h0.1c0.3-0.5,0.6-0.9,1.1-1.2C281.4,535.7,281.9,535.5,282.4,535.5z"/>
	<path class="st4" d="M288.8,537h-2v6.8h-1.7V537h-1.3v-0.8l1.3-0.5v-0.5c0-1,0.2-1.7,0.7-2.1c0.4-0.5,1.1-0.7,2.1-0.7
		c0.6,0,1.2,0.1,1.8,0.3l-0.5,1.3c-0.4-0.1-0.8-0.2-1.2-0.2c-0.4,0-0.7,0.1-0.9,0.4c-0.2,0.2-0.3,0.6-0.3,1.1v0.5h2V537z"/>
	<path class="st4" d="M295.9,543.8l-0.2-1.1h-0.1c-0.2,0.4-0.6,0.7-1,0.9s-0.9,0.3-1.5,0.3c-1,0-1.7-0.2-2.2-0.7s-0.7-1.2-0.7-2.2
		v-5.3h1.7v5c0,0.6,0.1,1.1,0.4,1.4c0.3,0.3,0.7,0.5,1.2,0.5c0.7,0,1.3-0.2,1.6-0.6c0.3-0.4,0.5-1.2,0.5-2.2v-4h1.7v8.1H295.9z"/>
	<path class="st4" d="M301.4,543.8h-1.7v-11.4h1.7V543.8z"/>
	<path class="st4" d="M314.6,543.8l-1.1-3h-4.1l-1,3h-1.8l4-10.8h1.9l4,10.8H314.6z M313.1,539.3l-1-2.9c-0.1-0.2-0.2-0.5-0.3-0.9
		c-0.1-0.4-0.2-0.7-0.3-0.9c-0.1,0.6-0.3,1.3-0.6,2l-1,2.8H313.1z"/>
	<path class="st4" d="M324.8,543.8h-1.7v-5c0-0.6-0.1-1.1-0.4-1.4c-0.3-0.3-0.7-0.5-1.2-0.5c-0.7,0-1.3,0.2-1.6,0.6
		s-0.5,1.1-0.5,2.2v4h-1.7v-8.1h1.3l0.2,1.1h0.1c0.2-0.4,0.6-0.7,1-0.9s0.9-0.3,1.5-0.3c1.9,0,2.9,1,2.9,3V543.8z"/>
	<path class="st4" d="M332.3,543.8l-0.3-1.1h-0.1c-0.4,0.5-0.8,0.8-1.2,1c-0.4,0.2-0.9,0.3-1.5,0.3c-0.8,0-1.4-0.2-1.9-0.6
		c-0.4-0.4-0.7-1-0.7-1.8c0-0.8,0.3-1.5,0.9-1.9c0.6-0.4,1.6-0.7,2.8-0.7l1.4,0v-0.4c0-0.5-0.1-0.9-0.4-1.2
		c-0.2-0.3-0.6-0.4-1.1-0.4c-0.4,0-0.8,0.1-1.2,0.2c-0.4,0.1-0.7,0.3-1.1,0.4l-0.6-1.2c0.4-0.2,0.9-0.4,1.4-0.5
		c0.5-0.1,1-0.2,1.5-0.2c1,0,1.8,0.2,2.3,0.7c0.5,0.4,0.8,1.2,0.8,2.1v5.5H332.3z M329.7,542.6c0.6,0,1.1-0.2,1.5-0.5
		c0.4-0.3,0.6-0.8,0.6-1.5v-0.7l-1,0c-0.8,0-1.4,0.2-1.8,0.4c-0.4,0.2-0.6,0.6-0.6,1.1c0,0.4,0.1,0.6,0.3,0.8
		C329,542.5,329.3,542.6,329.7,542.6z"/>
	<path class="st4" d="M337.7,543.8h-1.7v-11.4h1.7V543.8z"/>
	<path class="st4" d="M338.9,535.7h1.9l1.6,4.6c0.2,0.7,0.4,1.3,0.5,1.8h0.1c0-0.3,0.1-0.6,0.2-1c0.1-0.4,0.7-2.2,1.9-5.5h1.9
		l-3.5,9.2c-0.6,1.7-1.7,2.5-3.1,2.5c-0.4,0-0.8,0-1.1-0.1v-1.4c0.3,0.1,0.6,0.1,0.9,0.1c0.8,0,1.4-0.5,1.8-1.4l0.3-0.8L338.9,535.7
		z"/>
	<path class="st4" d="M351.2,542.5c0.4,0,0.8-0.1,1.3-0.2v1.3c-0.2,0.1-0.4,0.2-0.7,0.2c-0.3,0.1-0.6,0.1-0.9,0.1
		c-1.6,0-2.4-0.9-2.4-2.6V537h-1.1v-0.8l1.2-0.6l0.6-1.7h1.1v1.8h2.3v1.3h-2.3v4.3c0,0.4,0.1,0.7,0.3,0.9
		C350.6,542.5,350.8,542.5,351.2,542.5z"/>
	<path class="st4" d="M354,533.5c0-0.3,0.1-0.5,0.3-0.7c0.2-0.2,0.4-0.2,0.7-0.2c0.3,0,0.5,0.1,0.7,0.2c0.2,0.2,0.3,0.4,0.3,0.7
		c0,0.3-0.1,0.5-0.3,0.7c-0.2,0.2-0.4,0.3-0.7,0.3c-0.3,0-0.6-0.1-0.7-0.3C354,534.1,354,533.8,354,533.5z M355.8,543.8h-1.7v-8.1
		h1.7V543.8z"/>
	<path class="st4" d="M361.5,543.9c-1.2,0-2.2-0.4-2.8-1.1c-0.6-0.7-1-1.7-1-3.1c0-1.4,0.3-2.4,1-3.1c0.7-0.7,1.6-1.1,2.9-1.1
		c0.9,0,1.6,0.2,2.3,0.5l-0.5,1.4c-0.7-0.3-1.3-0.4-1.8-0.4c-1.4,0-2.1,0.9-2.1,2.8c0,0.9,0.2,1.6,0.5,2c0.3,0.5,0.9,0.7,1.5,0.7
		c0.8,0,1.5-0.2,2.2-0.6v1.5c-0.3,0.2-0.6,0.3-1,0.4S362,543.9,361.5,543.9z"/>
	<path class="st4" d="M371.1,541.5c0,0.8-0.3,1.4-0.9,1.8c-0.6,0.4-1.4,0.6-2.5,0.6c-1.1,0-1.9-0.2-2.6-0.5V542
		c1,0.4,1.8,0.7,2.7,0.7c1.1,0,1.6-0.3,1.6-1c0-0.2-0.1-0.4-0.2-0.5c-0.1-0.1-0.3-0.3-0.6-0.4s-0.6-0.3-1.1-0.5
		c-0.9-0.4-1.6-0.7-1.9-1.1c-0.3-0.4-0.5-0.8-0.5-1.4c0-0.7,0.3-1.2,0.8-1.6c0.6-0.4,1.3-0.6,2.3-0.6c1,0,1.9,0.2,2.7,0.6l-0.6,1.3
		c-0.9-0.4-1.6-0.5-2.2-0.5c-0.9,0-1.4,0.3-1.4,0.8c0,0.3,0.1,0.5,0.4,0.6c0.2,0.2,0.8,0.4,1.5,0.7c0.7,0.3,1.2,0.5,1.5,0.7
		s0.5,0.5,0.7,0.7C371,540.8,371.1,541.1,371.1,541.5z"/>
</g>
<g class="st6">
	<path class="st4" d="M758.3,531.1v6.9c0,0.8-0.2,1.5-0.5,2.1c-0.3,0.6-0.8,1-1.5,1.4c-0.6,0.3-1.4,0.5-2.3,0.5
		c-1.3,0-2.4-0.4-3.1-1.1s-1.1-1.7-1.1-2.9v-6.9h1.8v6.8c0,0.9,0.2,1.5,0.6,2s1,0.6,1.9,0.6c1.7,0,2.5-0.9,2.5-2.6v-6.8H758.3z"/>
	<path class="st4" d="M768,541.8h-1.7v-5c0-0.6-0.1-1.1-0.4-1.4c-0.3-0.3-0.7-0.5-1.2-0.5c-0.7,0-1.3,0.2-1.6,0.6
		c-0.3,0.4-0.5,1.1-0.5,2.2v4h-1.7v-8.1h1.3l0.2,1.1h0.1c0.2-0.4,0.6-0.7,1-0.9s0.9-0.3,1.5-0.3c1.9,0,2.9,1,2.9,3V541.8z"/>
	<path class="st4" d="M772.1,541.8h-1.7v-11.4h1.7V541.8z"/>
	<path class="st4" d="M774.5,531.5c0-0.3,0.1-0.5,0.3-0.7c0.2-0.2,0.4-0.2,0.7-0.2c0.3,0,0.5,0.1,0.7,0.2c0.2,0.2,0.3,0.4,0.3,0.7
		c0,0.3-0.1,0.5-0.3,0.7c-0.2,0.2-0.4,0.3-0.7,0.3c-0.3,0-0.6-0.1-0.7-0.3C774.6,532.1,774.5,531.8,774.5,531.5z M776.3,541.8h-1.7
		v-8.1h1.7V541.8z"/>
	<path class="st4" d="M785.6,541.8h-1.7v-5c0-0.6-0.1-1.1-0.4-1.4c-0.2-0.3-0.6-0.5-1.1-0.5c-0.7,0-1.2,0.2-1.5,0.6
		c-0.3,0.4-0.5,1.2-0.5,2.2v4h-1.7v-8.1h1.3l0.2,1.1h0.1c0.2-0.4,0.6-0.7,1-0.9c0.4-0.2,0.9-0.3,1.4-0.3c1.2,0,2.1,0.4,2.5,1.3h0.1
		c0.2-0.4,0.6-0.7,1-0.9s0.9-0.3,1.5-0.3c1,0,1.7,0.2,2.1,0.7c0.4,0.5,0.7,1.2,0.7,2.2v5.3H789v-5c0-0.6-0.1-1.1-0.4-1.4
		c-0.2-0.3-0.6-0.5-1.1-0.5c-0.7,0-1.2,0.2-1.5,0.6c-0.3,0.4-0.5,1.1-0.5,1.9V541.8z"/>
	<path class="st4" d="M793,531.5c0-0.3,0.1-0.5,0.3-0.7c0.2-0.2,0.4-0.2,0.7-0.2c0.3,0,0.5,0.1,0.7,0.2s0.3,0.4,0.3,0.7
		c0,0.3-0.1,0.5-0.3,0.7c-0.2,0.2-0.4,0.3-0.7,0.3c-0.3,0-0.6-0.1-0.7-0.3C793.1,532.1,793,531.8,793,531.5z M794.8,541.8h-1.7v-8.1
		h1.7V541.8z"/>
	<path class="st4" d="M800.3,540.5c0.4,0,0.8-0.1,1.3-0.2v1.3c-0.2,0.1-0.4,0.2-0.7,0.2c-0.3,0.1-0.6,0.1-0.9,0.1
		c-1.6,0-2.4-0.9-2.4-2.6V535h-1.1v-0.8l1.2-0.6l0.6-1.7h1.1v1.8h2.3v1.3h-2.3v4.3c0,0.4,0.1,0.7,0.3,0.9
		C799.7,540.5,800,540.5,800.3,540.5z"/>
	<path class="st4" d="M806.7,541.9c-1.3,0-2.2-0.4-3-1.1c-0.7-0.7-1.1-1.7-1.1-3c0-1.3,0.3-2.4,1-3.1s1.6-1.1,2.7-1.1
		c1.1,0,1.9,0.3,2.5,1c0.6,0.7,0.9,1.5,0.9,2.7v0.9h-5.4c0,0.8,0.2,1.4,0.6,1.8c0.4,0.4,1,0.6,1.7,0.6c0.5,0,0.9,0,1.3-0.1
		c0.4-0.1,0.9-0.2,1.3-0.5v1.4c-0.4,0.2-0.8,0.3-1.3,0.4C807.8,541.9,807.3,541.9,806.7,541.9z M806.4,534.9c-0.5,0-1,0.2-1.3,0.5
		c-0.3,0.3-0.5,0.9-0.6,1.5h3.7c0-0.7-0.2-1.2-0.5-1.5C807.4,535,807,534.9,806.4,534.9z"/>
	<path class="st4" d="M814.6,541.9c-1,0-1.8-0.4-2.4-1.1s-0.8-1.8-0.8-3.1c0-1.3,0.3-2.4,0.9-3.1c0.6-0.7,1.4-1.1,2.4-1.1
		c1.1,0,1.9,0.4,2.4,1.2h0.1c-0.1-0.6-0.1-1-0.1-1.4v-3h1.7v11.4h-1.3l-0.3-1.1H817C816.4,541.5,815.6,541.9,814.6,541.9z
		 M815,540.5c0.7,0,1.2-0.2,1.5-0.6c0.3-0.4,0.5-1,0.5-1.9v-0.2c0-1-0.2-1.7-0.5-2.2s-0.9-0.6-1.6-0.6c-0.6,0-1.1,0.2-1.4,0.7
		c-0.3,0.5-0.5,1.2-0.5,2.1c0,0.9,0.2,1.6,0.5,2.1C813.9,540.3,814.4,540.5,815,540.5z"/>
	<path class="st4" d="M832.3,534.3c0,1.1-0.4,2-1.1,2.6c-0.7,0.6-1.8,0.9-3.1,0.9H827v4h-1.8v-10.7h3.1c1.3,0,2.3,0.3,3,0.8
		C832,532.5,832.3,533.3,832.3,534.3z M827,536.3h0.9c0.9,0,1.6-0.2,2-0.5s0.6-0.8,0.6-1.5c0-0.6-0.2-1.1-0.6-1.4
		c-0.4-0.3-1-0.5-1.8-0.5H827V536.3z"/>
	<path class="st4" d="M838.4,533.5c0.3,0,0.6,0,0.9,0.1l-0.2,1.6c-0.2-0.1-0.5-0.1-0.8-0.1c-0.7,0-1.2,0.2-1.7,0.7
		c-0.4,0.5-0.6,1-0.6,1.8v4.2h-1.7v-8.1h1.3l0.2,1.4h0.1c0.3-0.5,0.6-0.9,1.1-1.2S837.9,533.5,838.4,533.5z"/>
	<path class="st4" d="M848,537.7c0,1.3-0.3,2.4-1,3.1s-1.6,1.1-2.8,1.1c-0.8,0-1.4-0.2-2-0.5c-0.6-0.3-1-0.8-1.3-1.5
		s-0.5-1.4-0.5-2.2c0-1.3,0.3-2.3,1-3.1s1.6-1.1,2.8-1.1c1.2,0,2.1,0.4,2.8,1.1C847.6,535.4,848,536.5,848,537.7z M842.1,537.7
		c0,1.9,0.7,2.8,2.1,2.8c1.4,0,2.1-0.9,2.1-2.8c0-1.9-0.7-2.8-2.1-2.8c-0.7,0-1.2,0.2-1.6,0.7C842.2,536.2,842.1,536.8,842.1,537.7z
		"/>
	<path class="st4" d="M856.8,541.8H855v-5c0-0.6-0.1-1.1-0.4-1.4c-0.2-0.3-0.6-0.5-1.1-0.5c-0.7,0-1.2,0.2-1.5,0.6
		c-0.3,0.4-0.5,1.2-0.5,2.2v4h-1.7v-8.1h1.3l0.2,1.1h0.1c0.2-0.4,0.6-0.7,1-0.9c0.4-0.2,0.9-0.3,1.4-0.3c1.2,0,2.1,0.4,2.5,1.3h0.1
		c0.2-0.4,0.6-0.7,1-0.9s0.9-0.3,1.5-0.3c1,0,1.7,0.2,2.1,0.7c0.4,0.5,0.7,1.2,0.7,2.2v5.3h-1.7v-5c0-0.6-0.1-1.1-0.4-1.4
		c-0.2-0.3-0.6-0.5-1.1-0.5c-0.7,0-1.2,0.2-1.5,0.6c-0.3,0.4-0.5,1.1-0.5,1.9V541.8z"/>
	<path class="st4" d="M871.5,537.7c0,1.3-0.3,2.4-1,3.1c-0.7,0.7-1.6,1.1-2.8,1.1c-0.8,0-1.4-0.2-2-0.5s-1-0.8-1.3-1.5
		s-0.5-1.4-0.5-2.2c0-1.3,0.3-2.3,1-3.1s1.6-1.1,2.8-1.1c1.2,0,2.1,0.4,2.8,1.1C871.1,535.4,871.5,536.5,871.5,537.7z M865.6,537.7
		c0,1.9,0.7,2.8,2.1,2.8c1.4,0,2.1-0.9,2.1-2.8c0-1.9-0.7-2.8-2.1-2.8c-0.7,0-1.2,0.2-1.6,0.7S865.6,536.8,865.6,537.7z"/>
	<path class="st4" d="M876.5,540.5c0.4,0,0.8-0.1,1.3-0.2v1.3c-0.2,0.1-0.4,0.2-0.7,0.2c-0.3,0.1-0.6,0.1-0.9,0.1
		c-1.6,0-2.4-0.9-2.4-2.6V535h-1.1v-0.8l1.2-0.6l0.6-1.7h1.1v1.8h2.3v1.3h-2.3v4.3c0,0.4,0.1,0.7,0.3,0.9
		C875.8,540.5,876.1,540.5,876.5,540.5z"/>
	<path class="st4" d="M879.2,531.5c0-0.3,0.1-0.5,0.3-0.7c0.2-0.2,0.4-0.2,0.7-0.2c0.3,0,0.5,0.1,0.7,0.2s0.3,0.4,0.3,0.7
		c0,0.3-0.1,0.5-0.3,0.7c-0.2,0.2-0.4,0.3-0.7,0.3c-0.3,0-0.6-0.1-0.7-0.3C879.3,532.1,879.2,531.8,879.2,531.5z M881.1,541.8h-1.7
		v-8.1h1.7V541.8z"/>
	<path class="st4" d="M890.7,537.7c0,1.3-0.3,2.4-1,3.1s-1.6,1.1-2.8,1.1c-0.8,0-1.4-0.2-2-0.5c-0.6-0.3-1-0.8-1.3-1.5
		s-0.5-1.4-0.5-2.2c0-1.3,0.3-2.3,1-3.1s1.6-1.1,2.8-1.1c1.2,0,2.1,0.4,2.8,1.1C890.4,535.4,890.7,536.5,890.7,537.7z M884.8,537.7
		c0,1.9,0.7,2.8,2.1,2.8c1.4,0,2.1-0.9,2.1-2.8c0-1.9-0.7-2.8-2.1-2.8c-0.7,0-1.2,0.2-1.6,0.7C885,536.2,884.8,536.8,884.8,537.7z"
		/>
	<path class="st4" d="M899.8,541.8h-1.7v-5c0-0.6-0.1-1.1-0.4-1.4c-0.3-0.3-0.7-0.5-1.2-0.5c-0.7,0-1.3,0.2-1.6,0.6
		c-0.3,0.4-0.5,1.1-0.5,2.2v4h-1.7v-8.1h1.3l0.2,1.1h0.1c0.2-0.4,0.6-0.7,1-0.9s0.9-0.3,1.5-0.3c1.9,0,2.9,1,2.9,3V541.8z"/>
	<path class="st4" d="M907.6,539.5c0,0.8-0.3,1.4-0.9,1.8c-0.6,0.4-1.4,0.6-2.5,0.6c-1.1,0-1.9-0.2-2.6-0.5V540
		c1,0.4,1.8,0.7,2.7,0.7c1.1,0,1.6-0.3,1.6-1c0-0.2-0.1-0.4-0.2-0.5c-0.1-0.1-0.3-0.3-0.6-0.4s-0.6-0.3-1.1-0.5
		c-0.9-0.4-1.6-0.7-1.9-1.1s-0.5-0.8-0.5-1.4c0-0.7,0.3-1.2,0.8-1.6c0.6-0.4,1.3-0.6,2.3-0.6c1,0,1.9,0.2,2.7,0.6l-0.6,1.3
		c-0.9-0.4-1.6-0.5-2.2-0.5c-0.9,0-1.4,0.3-1.4,0.8c0,0.3,0.1,0.5,0.4,0.6c0.2,0.2,0.8,0.4,1.5,0.7c0.7,0.3,1.2,0.5,1.5,0.7
		s0.5,0.5,0.7,0.7C907.6,538.8,907.6,539.1,907.6,539.5z"/>
</g>
<g class="st6">
	<path class="st4" d="M657.4,298.4v6.9c0,0.8-0.2,1.5-0.5,2.1c-0.3,0.6-0.8,1-1.5,1.4c-0.6,0.3-1.4,0.5-2.3,0.5
		c-1.3,0-2.4-0.4-3.1-1.1s-1.1-1.7-1.1-2.9v-6.9h1.8v6.8c0,0.9,0.2,1.5,0.6,2s1,0.6,1.9,0.6c1.7,0,2.5-0.9,2.5-2.6v-6.8H657.4z"/>
	<path class="st4" d="M667.1,309.1h-1.7v-5c0-0.6-0.1-1.1-0.4-1.4c-0.3-0.3-0.7-0.5-1.2-0.5c-0.7,0-1.3,0.2-1.6,0.6
		s-0.5,1.1-0.5,2.2v4H660V301h1.3l0.2,1.1h0.1c0.2-0.4,0.6-0.7,1-0.9s0.9-0.3,1.5-0.3c1.9,0,2.9,1,2.9,3V309.1z"/>
	<path class="st4" d="M671.2,309.1h-1.7v-11.4h1.7V309.1z"/>
	<path class="st4" d="M673.6,298.8c0-0.3,0.1-0.5,0.3-0.7c0.2-0.2,0.4-0.2,0.7-0.2c0.3,0,0.5,0.1,0.7,0.2c0.2,0.2,0.3,0.4,0.3,0.7
		c0,0.3-0.1,0.5-0.3,0.7c-0.2,0.2-0.4,0.3-0.7,0.3c-0.3,0-0.6-0.1-0.7-0.3C673.7,299.4,673.6,299.1,673.6,298.8z M675.4,309.1h-1.7
		V301h1.7V309.1z"/>
	<path class="st4" d="M684.7,309.1H683v-5c0-0.6-0.1-1.1-0.4-1.4c-0.2-0.3-0.6-0.5-1.1-0.5c-0.7,0-1.2,0.2-1.5,0.6
		c-0.3,0.4-0.5,1.2-0.5,2.2v4h-1.7V301h1.3l0.2,1.1h0.1c0.2-0.4,0.6-0.7,1-0.9c0.4-0.2,0.9-0.3,1.4-0.3c1.2,0,2.1,0.4,2.5,1.3h0.1
		c0.2-0.4,0.6-0.7,1-0.9s0.9-0.3,1.5-0.3c1,0,1.7,0.2,2.1,0.7c0.4,0.5,0.7,1.2,0.7,2.2v5.3h-1.7v-5c0-0.6-0.1-1.1-0.4-1.4
		c-0.2-0.3-0.6-0.5-1.1-0.5c-0.7,0-1.2,0.2-1.5,0.6c-0.3,0.4-0.5,1.1-0.5,1.9V309.1z"/>
	<path class="st4" d="M692.1,298.8c0-0.3,0.1-0.5,0.3-0.7c0.2-0.2,0.4-0.2,0.7-0.2c0.3,0,0.5,0.1,0.7,0.2c0.2,0.2,0.3,0.4,0.3,0.7
		c0,0.3-0.1,0.5-0.3,0.7c-0.2,0.2-0.4,0.3-0.7,0.3c-0.3,0-0.6-0.1-0.7-0.3C692.2,299.4,692.1,299.1,692.1,298.8z M693.9,309.1h-1.7
		V301h1.7V309.1z"/>
	<path class="st4" d="M699.4,307.8c0.4,0,0.8-0.1,1.3-0.2v1.3c-0.2,0.1-0.4,0.2-0.7,0.2c-0.3,0.1-0.6,0.1-0.9,0.1
		c-1.6,0-2.4-0.9-2.4-2.6v-4.4h-1.1v-0.8l1.2-0.6l0.6-1.7h1.1v1.8h2.3v1.3h-2.3v4.3c0,0.4,0.1,0.7,0.3,0.9
		C698.8,307.7,699.1,307.8,699.4,307.8z"/>
	<path class="st4" d="M705.8,309.2c-1.3,0-2.2-0.4-3-1.1c-0.7-0.7-1.1-1.7-1.1-3c0-1.3,0.3-2.4,1-3.1s1.6-1.1,2.7-1.1
		c1.1,0,1.9,0.3,2.5,1c0.6,0.7,0.9,1.5,0.9,2.7v0.9h-5.4c0,0.8,0.2,1.4,0.6,1.8c0.4,0.4,1,0.6,1.7,0.6c0.5,0,0.9,0,1.3-0.1
		c0.4-0.1,0.9-0.2,1.3-0.5v1.4c-0.4,0.2-0.8,0.3-1.3,0.4C706.9,309.2,706.4,309.2,705.8,309.2z M705.5,302.1c-0.5,0-1,0.2-1.3,0.5
		c-0.3,0.3-0.5,0.9-0.6,1.5h3.7c0-0.7-0.2-1.2-0.5-1.5C706.5,302.3,706.1,302.1,705.5,302.1z"/>
	<path class="st4" d="M713.7,309.2c-1,0-1.8-0.4-2.4-1.1s-0.8-1.8-0.8-3.1c0-1.3,0.3-2.4,0.9-3.1c0.6-0.7,1.4-1.1,2.4-1.1
		c1.1,0,1.9,0.4,2.4,1.2h0.1c-0.1-0.6-0.1-1-0.1-1.4v-3h1.7v11.4h-1.3l-0.3-1.1h-0.1C715.5,308.8,714.7,309.2,713.7,309.2z
		 M714.1,307.8c0.7,0,1.2-0.2,1.5-0.6c0.3-0.4,0.5-1,0.5-1.9v-0.2c0-1-0.2-1.7-0.5-2.2s-0.9-0.6-1.6-0.6c-0.6,0-1.1,0.2-1.4,0.7
		c-0.3,0.5-0.5,1.2-0.5,2.1c0,0.9,0.2,1.6,0.5,2.1C713,307.6,713.5,307.8,714.1,307.8z"/>
	<path class="st4" d="M728.9,299.7c-1,0-1.8,0.4-2.4,1.1s-0.9,1.7-0.9,3c0,1.3,0.3,2.3,0.8,3c0.6,0.7,1.4,1,2.4,1
		c0.5,0,0.9,0,1.3-0.1c0.4-0.1,0.9-0.2,1.3-0.3v1.5c-0.8,0.3-1.8,0.5-2.9,0.5c-1.6,0-2.8-0.5-3.6-1.4c-0.8-0.9-1.3-2.3-1.3-4.1
		c0-1.1,0.2-2.1,0.6-2.9c0.4-0.8,1-1.5,1.8-1.9s1.7-0.7,2.7-0.7c1.1,0,2.1,0.2,3,0.7l-0.6,1.5c-0.4-0.2-0.7-0.3-1.1-0.5
		C729.8,299.8,729.4,299.7,728.9,299.7z"/>
	<path class="st4" d="M738.7,309.1l-0.3-1.1h-0.1c-0.4,0.5-0.8,0.8-1.2,1c-0.4,0.2-0.9,0.3-1.5,0.3c-0.8,0-1.4-0.2-1.9-0.6
		c-0.4-0.4-0.7-1-0.7-1.8c0-0.8,0.3-1.5,0.9-1.9c0.6-0.4,1.6-0.7,2.8-0.7l1.4,0v-0.4c0-0.5-0.1-0.9-0.4-1.2
		c-0.2-0.3-0.6-0.4-1.1-0.4c-0.4,0-0.8,0.1-1.2,0.2c-0.4,0.1-0.7,0.3-1.1,0.4l-0.6-1.2c0.4-0.2,0.9-0.4,1.4-0.5
		c0.5-0.1,1-0.2,1.5-0.2c1,0,1.8,0.2,2.3,0.7c0.5,0.4,0.8,1.2,0.8,2.1v5.5H738.7z M736.2,307.9c0.6,0,1.1-0.2,1.5-0.5
		c0.4-0.3,0.6-0.8,0.6-1.5v-0.7l-1,0c-0.8,0-1.4,0.2-1.8,0.4c-0.4,0.2-0.6,0.6-0.6,1.1c0,0.4,0.1,0.6,0.3,0.8
		C735.4,307.8,735.8,307.9,736.2,307.9z"/>
	<path class="st4" d="M745.4,307.8c0.4,0,0.8-0.1,1.3-0.2v1.3c-0.2,0.1-0.4,0.2-0.7,0.2c-0.3,0.1-0.6,0.1-0.9,0.1
		c-1.6,0-2.4-0.9-2.4-2.6v-4.4h-1.1v-0.8l1.2-0.6l0.6-1.7h1.1v1.8h2.3v1.3h-2.3v4.3c0,0.4,0.1,0.7,0.3,0.9
		C744.8,307.7,745.1,307.8,745.4,307.8z"/>
	<path class="st4" d="M753.3,309.1L753,308h-0.1c-0.4,0.5-0.8,0.8-1.2,1c-0.4,0.2-0.9,0.3-1.5,0.3c-0.8,0-1.4-0.2-1.9-0.6
		c-0.4-0.4-0.7-1-0.7-1.8c0-0.8,0.3-1.5,0.9-1.9c0.6-0.4,1.6-0.7,2.8-0.7l1.4,0v-0.4c0-0.5-0.1-0.9-0.4-1.2
		c-0.2-0.3-0.6-0.4-1.1-0.4c-0.4,0-0.8,0.1-1.2,0.2c-0.4,0.1-0.7,0.3-1.1,0.4l-0.6-1.2c0.4-0.2,0.9-0.4,1.4-0.5
		c0.5-0.1,1-0.2,1.5-0.2c1,0,1.8,0.2,2.3,0.7c0.5,0.4,0.8,1.2,0.8,2.1v5.5H753.3z M750.8,307.9c0.6,0,1.1-0.2,1.5-0.5
		c0.4-0.3,0.6-0.8,0.6-1.5v-0.7l-1,0c-0.8,0-1.4,0.2-1.8,0.4c-0.4,0.2-0.6,0.6-0.6,1.1c0,0.4,0.1,0.6,0.3,0.8
		C750,307.8,750.3,307.9,750.8,307.9z"/>
	<path class="st4" d="M758.7,309.1H757v-11.4h1.7V309.1z"/>
	<path class="st4" d="M768.3,305c0,1.3-0.3,2.4-1,3.1s-1.6,1.1-2.8,1.1c-0.8,0-1.4-0.2-2-0.5s-1-0.8-1.3-1.5s-0.5-1.4-0.5-2.2
		c0-1.3,0.3-2.3,1-3.1s1.6-1.1,2.8-1.1c1.2,0,2.1,0.4,2.8,1.1C768,302.7,768.3,303.7,768.3,305z M762.4,305c0,1.9,0.7,2.8,2.1,2.8
		c1.4,0,2.1-0.9,2.1-2.8c0-1.9-0.7-2.8-2.1-2.8c-0.7,0-1.2,0.2-1.6,0.7C762.6,303.4,762.4,304.1,762.4,305z"/>
	<path class="st4" d="M777.2,301v0.9l-1.4,0.3c0.1,0.2,0.2,0.4,0.3,0.6s0.1,0.5,0.1,0.8c0,0.8-0.3,1.5-0.9,2s-1.4,0.7-2.4,0.7
		c-0.3,0-0.5,0-0.7-0.1c-0.4,0.2-0.6,0.5-0.6,0.8c0,0.2,0.1,0.3,0.3,0.4c0.2,0.1,0.5,0.1,1,0.1h1.4c0.9,0,1.6,0.2,2,0.6
		s0.7,0.9,0.7,1.6c0,0.9-0.4,1.6-1.1,2.1s-1.9,0.7-3.3,0.7c-1.1,0-1.9-0.2-2.5-0.6s-0.9-0.9-0.9-1.7c0-0.5,0.2-0.9,0.5-1.3
		c0.3-0.3,0.8-0.6,1.3-0.7c-0.2-0.1-0.4-0.3-0.6-0.5c-0.1-0.2-0.2-0.4-0.2-0.7c0-0.3,0.1-0.6,0.3-0.8s0.4-0.4,0.8-0.6
		c-0.4-0.2-0.8-0.5-1-0.9c-0.3-0.4-0.4-0.9-0.4-1.4c0-0.9,0.3-1.6,0.8-2c0.6-0.5,1.3-0.7,2.4-0.7c0.2,0,0.5,0,0.7,0
		c0.3,0,0.4,0.1,0.6,0.1H777.2z M770.8,310.3c0,0.4,0.2,0.7,0.5,0.9c0.3,0.2,0.8,0.3,1.4,0.3c0.9,0,1.6-0.1,2.1-0.4s0.7-0.6,0.7-1.1
		c0-0.4-0.1-0.6-0.4-0.8c-0.3-0.1-0.7-0.2-1.4-0.2h-1.3c-0.5,0-0.9,0.1-1.2,0.3C770.9,309.6,770.8,309.9,770.8,310.3z M771.5,303.6
		c0,0.5,0.1,0.9,0.4,1.2c0.3,0.3,0.6,0.4,1.1,0.4c1,0,1.5-0.5,1.5-1.6c0-0.5-0.1-0.9-0.4-1.2c-0.2-0.3-0.6-0.4-1.1-0.4
		c-0.5,0-0.9,0.1-1.1,0.4C771.7,302.6,771.5,303.1,771.5,303.6z"/>
	<path class="st4" d="M784.4,309.1l-0.2-1.1H784c-0.2,0.4-0.6,0.7-1,0.9c-0.4,0.2-0.9,0.3-1.5,0.3c-1,0-1.7-0.2-2.2-0.7
		s-0.7-1.2-0.7-2.2V301h1.7v5c0,0.6,0.1,1.1,0.4,1.4c0.3,0.3,0.7,0.5,1.2,0.5c0.7,0,1.3-0.2,1.6-0.6c0.3-0.4,0.5-1.2,0.5-2.2v-4h1.7
		v8.1H784.4z"/>
	<path class="st4" d="M791.7,309.2c-1.3,0-2.2-0.4-3-1.1c-0.7-0.7-1.1-1.7-1.1-3c0-1.3,0.3-2.4,1-3.1s1.6-1.1,2.7-1.1
		c1.1,0,1.9,0.3,2.5,1c0.6,0.7,0.9,1.5,0.9,2.7v0.9h-5.4c0,0.8,0.2,1.4,0.6,1.8c0.4,0.4,1,0.6,1.7,0.6c0.5,0,0.9,0,1.3-0.1
		c0.4-0.1,0.9-0.2,1.3-0.5v1.4c-0.4,0.2-0.8,0.3-1.3,0.4C792.8,309.2,792.3,309.2,791.7,309.2z M791.4,302.1c-0.5,0-1,0.2-1.3,0.5
		c-0.3,0.3-0.5,0.9-0.6,1.5h3.7c0-0.7-0.2-1.2-0.5-1.5C792.4,302.3,792,302.1,791.4,302.1z"/>
</g>
<line id="Line_372" class="st3" x1="196.3" y1="152.6" x2="721.3" y2="152.6"/>
<line id="Line_373" class="st5" x1="83" y1="378.7" x2="308.2" y2="378.7"/>
<line id="Line_374" class="st5" x1="609.3" y1="378.7" x2="834.5" y2="378.7"/>
<g id="Group_967" transform="translate(0 30)">
	<path id="Path_6832" class="st0" d="M452.1,1.8h-2.4v4.9h2.4c1.3,0,2.4-1.1,2.4-2.4C454.5,2.8,453.4,1.8,452.1,1.8z"/>
	<path id="Path_6833" class="st0" d="M459.4-30c-21.6,0-39.1,17.5-39.1,39.1s17.5,39.1,39.1,39.1s39.1-17.5,39.1-39.1
		C498.4-12.5,480.9-30,459.4-30z M438.7-11.6c11.4-11.4,30-11.4,41.4,0c1,1,1,2.5,0,3.5s-2.5,1-3.5,0l0,0c-9.5-9.5-25-9.5-34.5,0
		c-0.9,1-2.5,1-3.4,0l0,0C437.7-9.1,437.7-10.7,438.7-11.6z M471.6,6.6c1.3,0,2.4,1.1,2.4,2.4s-1.1,2.4-2.4,2.4h-2.4v4.9h2.4
		c1.3,0,2.4,1.1,2.4,2.4s-1.1,2.4-2.4,2.4h-4.9c-1.3,0-2.4-1.1-2.4-2.4V-0.8c0-1.3,1.1-2.4,2.4-2.4h4.9c1.3,0,2.4,1.1,2.4,2.4
		s-1.1,2.4-2.4,2.4l0,0h-2.4v4.9L471.6,6.6L471.6,6.6z M458.9,17.4c0.8,1.1,0.7,2.6-0.4,3.4s-2.6,0.7-3.4-0.4c0,0,0-0.1-0.1-0.1
		l-5.4-7.2v5.7c0,1.3-1.1,2.4-2.4,2.4s-2.4-1.1-2.4-2.4V-0.7c0-1.3,1.1-2.4,2.4-2.4h4.9c4,0,7.3,3.3,7.3,7.3c0,3.2-2.1,6.1-5.2,7
		L458.9,17.4z M435,11.5v7.3c0,1.3-1.1,2.4-2.4,2.4s-2.4-1.1-2.4-2.4V-0.7c0-1.3,1.1-2.4,2.4-2.4h4.9c1.3,0,2.4,1.1,2.4,2.4
		s-1.1,2.4-2.4,2.4l0,0h-2.4v4.9h2.4c1.3,0,2.4,1.1,2.4,2.4s-1.1,2.4-2.4,2.4L435,11.5L435,11.5z M480.1,29.8
		c-11.4,11.4-30,11.4-41.4,0l0,0c-1-1-1-2.5,0-3.5s2.5-1,3.5,0c9.5,9.5,25,9.5,34.5,0l0,0c1-1,2.5-0.9,3.5,0
		C481,27.3,481,28.8,480.1,29.8z M486.2,16.4c1.3,0,2.4,1.1,2.4,2.4s-1.1,2.4-2.4,2.4h-4.9c-1.3,0-2.4-1.1-2.4-2.4V-0.7
		c0-1.3,1.1-2.4,2.4-2.4h4.9c1.3,0,2.4,1.1,2.4,2.4s-1.1,2.4-2.4,2.4h-2.4v4.9h2.4c1.3,0,2.4,1.1,2.4,2.4s-1.1,2.4-2.4,2.4h-2.4v4.9
		L486.2,16.4z"/>
</g>
<g id="Group_968" transform="translate(109 -381.758)">
	<path id="Path_6834" class="st4" d="M124.3,645.9v-14.5c0-3.8-5.8-5.8-11.6-5.8c-1.9,0-3.8,0.2-5.7,0.7l-0.2-0.9
		c-0.1-0.3-0.2-0.7-0.5-0.9l-2.4-1.9c0.5,0.1,1,0.1,1.4,0.1c4.2,0,8.7-1.4,8.7-4.3c0-3-4.5-4.4-8.7-4.4c-1,0-2,0.2-2.9,0.4l1.3-2.7
		c0.4-0.7,0.1-1.6-0.6-1.9c-0.2-0.1-0.4-0.2-0.7-0.2H85c-0.8,0-1.5,0.6-1.5,1.4c0,0.2,0.1,0.4,0.2,0.7l3.8,7.7l-6.3,5.1
		c-0.3,0.2-0.5,0.5-0.5,0.9l-0.2,0.9c-1.8-0.5-3.7-0.7-5.7-0.7c-5.8,0-11.6,2-11.6,5.8v14.5c0,1.1,0.5,2.2,1.4,2.9H53.1
		c-0.8,0-1.4,0.6-1.4,1.4l0,0v17.4c0,0.8,0.6,1.4,1.4,1.4h69.6c0.8,0,1.4-0.6,1.4-1.4l0,0v-17.4c0-0.8-0.6-1.4-1.4-1.4
		C123.8,648.1,124.3,647,124.3,645.9z M105.5,616.9c3.4,0,5.4,1,5.8,1.4c-0.4,0.5-2.4,1.4-5.8,1.4c-1.7-0.1-3.3-0.6-4.7-1.4
		C102.1,617.4,103.8,616.9,105.5,616.9z M87.5,612.5h12.7l-2.1,4.3l-0.6,1.3l-0.1,0.2h-6.9L87.5,612.5z M75,628.5
		c1.7,0,3.5,0.2,5.1,0.7l-0.9,4.7h-0.1c-0.6,0.1-1.2,0.2-1.8,0.3c-0.1,0-0.3,0-0.4,0c-0.6,0.1-1.3,0.1-2,0.1c-5.4,0-8.7-1.9-8.7-2.9
		C66.3,630.4,69.6,628.5,75,628.5L75,628.5z M66.3,635.3C66.3,635.4,66.4,635.4,66.3,635.3c0.4,0.2,0.8,0.4,1.1,0.5
		c0.1,0,0.2,0.1,0.2,0.1c0.4,0.2,0.8,0.3,1.3,0.4H69c2,0.5,4,0.8,6,0.8c0.1,0,0.2,0,0.3,0c0.1,0,0.3,0,0.4,0c0.4,0,0.8,0,1.2-0.1
		c0.2,0,0.4,0,0.6-0.1c0.3,0,0.6-0.1,0.9-0.1c0.1,0,0.2,0,0.3,0l0,0h-0.1l-0.7,4v0.1C77,641,76,641,75,641c-5.1,0-8.1-1.1-8.7-1.7
		L66.3,635.3L66.3,635.3z M77.9,666.2H54.7v-2.9h23.2V666.2z M77.9,660.4H54.7v-2.9h23.2V660.4z M77.9,654.6H54.7v-2.9h23.2V654.6z
		 M75,648.8c-5.4,0-8.7-1.9-8.7-2.9v-3.1c2.8,0.9,5.8,1.3,8.7,1.3c1.3,0,2.6-0.1,3.9-0.2l2,4.1C79,648.5,77,648.8,75,648.8L75,648.8
		z M95.3,656v10.2H80.8v-14.5h14.5V656z M96.7,648.8h-7.1c-0.6-0.2-2.9-1.1-5.2-2.1l0,0l-1.1-0.5l-2-3.9c0-0.2,0-0.5-0.1-0.7
		l-0.3-0.6l0.3-1.6l0.8-4.2l1.1-5.8l0.6-3.1l6.4-5.1h7.7l6.4,5.1l0.6,3.1l1,5.8l0.8,4.2l0.3,1.9l-0.2,0.5l-2.2,4.4l-0.4,0.1
		l-0.7,0.3l0,0l-5.4,2.1L96.7,648.8z M121.4,666.2H98.2v-2.9h23.2V666.2z M121.4,660.4H98.2v-2.9h23.2V660.4z M121.4,654.6H98.2
		v-2.9h23.2V654.6z M121.4,645.9c0,1-3.3,2.9-8.7,2.9c-2,0-4-0.3-5.9-0.9l1.9-3.8c1.6,0.3,3.1,0.4,4.7,0.4c2.7,0.1,5.4-0.3,8-1.2
		V645.9z M121.4,639.9c-0.5,0.6-3.3,1.6-8,1.6c-1.2,0-2.4-0.1-3.6-0.2l0,0l-0.7-3.7L109,637c0.1,0,0.2,0,0.3,0c0.3,0,0.6,0.1,1,0.1
		c0.2,0,0.4,0,0.6,0.1c0.4,0,0.8,0,1.2,0.1c0.1,0,0.2,0,0.4,0s0.2,0,0.3,0c2,0,4-0.3,6-0.8l0,0c0.5-0.1,0.9-0.3,1.3-0.4
		c0.1,0,0.2-0.1,0.2-0.1c0.4-0.1,0.7-0.3,1-0.5h0.1L121.4,639.9L121.4,639.9z M112.7,634.3c-0.7,0-1.3,0-2-0.1c-0.1,0-0.3,0-0.4,0
		c-0.6-0.1-1.2-0.2-1.8-0.3h-0.1l-0.9-4.7c1.7-0.4,3.4-0.7,5.1-0.6c5.4,0,8.7,1.9,8.7,2.9C121.4,632.4,118.1,634.3,112.7,634.3
		L112.7,634.3z"/>
	<path id="Path_6835" class="st4" d="M97.6,636l-5.1-3.8c0.3-0.7,1.2-1,1.9-0.7c0.5,0.2,0.8,0.8,0.8,1.3h2.9c0-2.4-1.9-4.3-4.4-4.3
		c-2.4,0-4.3,1.9-4.3,4.3c0,0.5,0.2,0.9,0.6,1.2l5.1,3.8c-0.3,0.7-1.2,1-1.9,0.7c-0.5-0.2-0.8-0.8-0.8-1.3h-2.9
		c0,1.8,1.2,3.5,2.9,4.1v1.7h2.9v-1.7c1.7-0.6,2.9-2.2,2.9-4.1C98.2,636.7,98,636.3,97.6,636z"/>
	<path id="Path_6836" class="st4" d="M92.4,627v1.5h2.9V627H92.4z"/>
	<path id="Path_6837" class="st4" d="M57.6,582.1c-11.2,0-20.3,9.1-20.3,20.3c0,11.2,9.1,20.3,20.3,20.3c11.2,0,20.3-9.1,20.3-20.3
		C77.9,591.2,68.8,582.1,57.6,582.1z M57.6,619.8c-9.6,0-17.4-7.8-17.4-17.4S48,585,57.6,585S75,592.8,75,602.4
		C75,612,67.2,619.8,57.6,619.8z"/>
	<text transform="matrix(1 0 0 1 50.864 607.4277)" class="st4 st7 st8">0</text>
</g>
<g id="Group_969" transform="translate(119 -344.82)">
	<path id="Path_6838" class="st4" d="M644.5,597.1c-0.3-0.9-1.3-1.3-2.2-1l0,0l-15.9,5.8l12.8-12.8c0.7-0.7,0.7-1.7,0-2.4l-9.9-9.9
		c-0.7-0.7-1.7-0.7-2.4,0l-12.6,12.6l7.1-16.8c0.4-0.9,0-1.9-0.9-2.2l0,0l-12.9-5.5c-0.9-0.4-1.9,0-2.2,0.9l0,0l-7,16.5v-17.6
		c0-0.9-0.8-1.7-1.7-1.7l0,0H582c-0.9,0-1.7,0.8-1.7,1.7l0,0v64.4c0,0.9,0.8,1.7,1.7,1.7h14.7c0.2,0,0.4,0,0.6-0.1
		c0.4,0.1,0.8,0.1,1.2,0l49.9-18.3c0.9-0.3,1.3-1.3,1-2.2L644.5,597.1z M590.3,627.5h-6.6v-61H595v61H590.3z M617.6,572.9l-9.6,22.9
		l-1.7,4.1l-1.7,4.1l-3,7.1l-1.8,4.3l-1.3,3.2v-27.4l9.4-22.4L617.6,572.9z M604.1,613.8l1.8-4.3l5-11.8l17.3-17.3l7.5,7.5
		l-16.8,16.8l-5.7,5.7l-13.3,13.3L604.1,613.8z M602.8,625.6l17.9-17.9l21.2-7.8l3.7,10L602.8,625.6z"/>
	<path id="Path_6839" class="st4" d="M589.3,620.5c-0.1,0-0.1,0-0.2,0c-1,0.1-1.9,0.8-2.2,1.9c0,0.2-0.1,0.4-0.1,0.6
		c0,1.3,1.1,2.4,2.4,2.4c0.1,0,0.2,0,0.3,0c0.5-0.1,0.9-0.3,1.3-0.6c0.2-0.2,0.3-0.3,0.4-0.5c0.2-0.3,0.3-0.7,0.4-1.1
		c0-0.1,0-0.1,0-0.2C591.8,621.6,590.7,620.5,589.3,620.5z"/>
</g>
<g id="Group_970" transform="translate(1)">
	<g id="Rectangle_616" transform="translate(261.005 3558.679)">
		<rect x="-213.7" y="-3117.9" class="st9" width="72.1" height="44.7"/>
		<rect x="-213.2" y="-3117.4" class="st5" width="71.1" height="43.7"/>
	</g>
	<g id="Rectangle_617" transform="translate(261.005 3606.295)">
		<rect x="-213.7" y="-3117.9" class="st9" width="72.1" height="27.4"/>
		<rect x="-213.2" y="-3117.4" class="st5" width="71.1" height="26.4"/>
	</g>
	<path id="Path_6463" class="st4" d="M59.7,458.6h46.7c0.7,0,1.3-0.6,1.3-1.4c0-0.7-0.6-1.3-1.3-1.3H59.7c-0.7,0-1.3,0.6-1.3,1.3
		C58.3,458,58.9,458.6,59.7,458.6z"/>
	<path id="Path_6464" class="st4" d="M59.7,465.5h23.6c0.7,0,1.3-0.6,1.3-1.3c0-0.7-0.6-1.4-1.3-1.4H59.7c-0.7,0-1.3,0.6-1.3,1.4
		C58.3,464.9,58.9,465.5,59.7,465.5z"/>
	<path id="Path_6465" class="st4" d="M59.7,498.7h46.7c0.7,0,1.3-0.6,1.3-1.4c0-0.7-0.6-1.3-1.3-1.3l0,0H59.7
		c-0.7,0-1.3,0.6-1.3,1.3C58.3,498.1,58.9,498.7,59.7,498.7z"/>
	<path id="Path_6466" class="st4" d="M59.7,505.6h23.6c0.7,0,1.3-0.6,1.3-1.3S84,503,83.3,503H59.7c-0.7,0-1.3,0.6-1.3,1.3
		S58.9,505.6,59.7,505.6z"/>
	<path id="Path_6467" class="st4" d="M59.7,472.4h33.5c0.7,0,1.3-0.6,1.3-1.3c0-0.7-0.6-1.3-1.3-1.3H59.7c-0.7,0-1.3,0.6-1.3,1.3
		C58.3,471.8,58.9,472.4,59.7,472.4z"/>
</g>
<g id="Group_971" transform="translate(23 -151)">
	<path id="Path_6840" class="st4" d="M284.4,598.8c-0.8,0-1.4-0.6-1.5-1.4l0,0v-5.8c0-0.8,0.7-1.4,1.5-1.4s1.4,0.7,1.4,1.4v5.8
		C285.8,598.1,285.2,598.8,284.4,598.8L284.4,598.8z"/>
	<rect id="Rectangle_842" x="242.3" y="597.3" class="st5" width="84.1" height="58"/>
	<path id="Path_6841" class="st4" d="M284.4,674.2c-0.8,0-1.4-0.6-1.5-1.4l0,0v-17.4c0-0.8,0.6-1.5,1.4-1.5s1.5,0.6,1.5,1.4l0,0
		v17.4C285.8,673.5,285.2,674.2,284.4,674.2L284.4,674.2z"/>
	<path id="Path_6842" class="st4" d="M304.6,677.1c-0.4,0-0.8-0.2-1-0.4l-20.3-20.3c-0.6-0.6-0.5-1.5,0.1-2.1c0.6-0.5,1.4-0.5,2,0
		l20.3,20.3c0.6,0.6,0.6,1.5,0,2.1C305.4,676.9,305,677.1,304.6,677.1z"/>
	<path id="Path_6843" class="st4" d="M264.1,677.1c-0.8,0-1.4-0.7-1.4-1.5c0-0.4,0.2-0.8,0.4-1l20.3-20.3c0.6-0.6,1.5-0.6,2,0
		c0.6,0.6,0.6,1.5,0.1,2c0,0,0,0-0.1,0.1l-20.3,20.3C264.8,676.9,264.4,677.1,264.1,677.1z"/>
	<path id="Path_6844" class="st4" d="M293.1,651c-0.8,0-1.4-0.6-1.4-1.4l0,0v-4.3c0-0.8,0.6-1.4,1.4-1.4s1.4,0.6,1.4,1.4v4.3
		C294.5,650.3,293.9,651,293.1,651L293.1,651z"/>
	<path id="Path_6845" class="st4" d="M298.9,651c-0.8,0-1.4-0.6-1.5-1.4l0,0v-10.1c0-0.8,0.6-1.5,1.5-1.5c0.8,0,1.4,0.7,1.4,1.5
		v10.1C300.3,650.3,299.7,651,298.9,651L298.9,651z"/>
	<path id="Path_6846" class="st4" d="M304.6,651c-0.8,0-1.4-0.6-1.4-1.4l0,0v-7.2c0-0.8,0.6-1.4,1.4-1.4s1.5,0.6,1.5,1.4v7.2
		C306.1,650.3,305.5,651,304.6,651C304.7,651,304.7,651,304.6,651z"/>
	<path id="Path_6847" class="st4" d="M310.5,651c-0.8,0-1.4-0.6-1.4-1.4l0,0v-17.4c0-0.8,0.6-1.5,1.4-1.5s1.4,0.7,1.4,1.5v17.4
		C311.9,650.3,311.3,651,310.5,651L310.5,651z"/>
	<path id="Path_6848" class="st4" d="M316.2,651c-0.8,0-1.4-0.6-1.4-1.4l0,0V638c0-0.8,0.6-1.4,1.4-1.4s1.5,0.6,1.5,1.4v11.6
		C317.7,650.3,317.1,651,316.2,651C316.3,651,316.3,651,316.2,651z"/>
	<path id="Path_6849" class="st4" d="M267,645.2h-14.5c-0.8,0-1.5-0.6-1.5-1.4s0.6-1.5,1.5-1.5H267c0.8,0,1.4,0.7,1.4,1.5
		S267.8,645.2,267,645.2z"/>
	<path id="Path_6850" class="st4" d="M274.2,651h-21.8c-0.8,0-1.5-0.7-1.5-1.5s0.6-1.4,1.5-1.4h21.8c0.8,0,1.4,0.6,1.4,1.4
		S275,651,274.2,651z"/>
	<path id="Path_6851" class="st4" d="M267.7,635c-9.2,0-16.7-7.5-16.7-16.7s7.5-16.7,16.7-16.7s16.7,7.5,16.7,16.7l0,0
		C284.3,627.6,276.9,635,267.7,635z M267.7,604.6c-7.6,0-13.8,6.2-13.8,13.8s6.2,13.8,13.8,13.8c7.6,0,13.8-6.2,13.8-13.8
		C281.4,610.8,275.3,604.6,267.7,604.6z"/>
	<path id="Path_6852" class="st4" d="M282.9,620.5h-17.3l-0.1-1.5v-16.4l0.8-0.9h0.6c9.2-0.4,17,6.7,17.4,15.9c0,0.5,0,1,0,1.5v0.6
		l-0.9,0.7L282.9,620.5z M268.4,617.6h13c-0.4-7-6-12.7-13-13V617.6z"/>
	<path id="Path_6853" class="st4" d="M277.7,631.3c-0.4,0-0.8-0.2-1-0.4L266,620.2c-0.6-0.6-0.5-1.5,0.1-2.1c0.6-0.5,1.4-0.5,2,0
		l10.7,10.7c0.6,0.6,0.6,1.5,0,2.1C278.4,631.1,278.1,631.3,277.7,631.3z"/>
	<path id="Path_6854" class="st4" d="M309,611.8h-11.6c-0.8,0-1.4-0.7-1.4-1.5s0.6-1.4,1.4-1.4H309c0.8,0,1.4,0.7,1.4,1.5
		S309.8,611.8,309,611.8z"/>
	<path id="Path_6855" class="st4" d="M316.2,611.8c-0.4,0-0.8-0.2-1-0.4c-0.6-0.6-0.6-1.5,0-2l0,0c0.6-0.6,1.5-0.5,2.1,0.1
		c0.5,0.6,0.5,1.4,0,2C317,611.7,316.6,611.8,316.2,611.8z"/>
	<path id="Path_6856" class="st4" d="M316.2,604.6h-4.3c-0.8,0-1.4-0.6-1.4-1.4s0.6-1.5,1.4-1.5h4.3c0.8,0,1.5,0.7,1.5,1.5
		S317.1,604.6,316.2,604.6C316.3,604.6,316.3,604.6,316.2,604.6z"/>
	<path id="Path_6857" class="st4" d="M300.3,604.6h-2.9c-0.8,0-1.5-0.6-1.5-1.4s0.6-1.5,1.4-1.5l0,0h2.9c0.8,0,1.5,0.7,1.5,1.5
		C301.8,603.9,301.1,604.6,300.3,604.6L300.3,604.6z"/>
	<path id="Path_6858" class="st4" d="M306.1,604.6c-0.8,0-1.5-0.7-1.4-1.5c0-0.4,0.2-0.7,0.4-1c0.6-0.5,1.5-0.5,2.1,0
		c0.6,0.6,0.6,1.5,0,2.1C306.9,604.4,306.5,604.6,306.1,604.6L306.1,604.6z"/>
</g>
<g id="Group_973" transform="translate(28 -166)">
	<path id="Path_6859" class="st4" d="M552.3,607.1v74.6l10.8-8.8l9,7.3l9-7.3l9,7.3l9-7.3l10.9,8.8v-74.6H552.3z M606.5,674.1
		l-7.2-5.8l-9,7.3l-9-7.3l-9,7.3l-9-7.3l-7.2,5.8v-63.3h50.5v63.3H606.5z"/>
	<rect id="Rectangle_843" x="566.5" y="657.2" class="st4" width="27.7" height="3.6"/>
	<g id="Group_972" transform="translate(786.114 3739.536)">
		<path id="Path_6860" class="st4" d="M-195.3-3111.3c-0.1-0.1-0.3-0.2-0.5-0.2h-3.5c-0.2-1.1-0.7-2.1-1.3-3h4.8
			c0.4,0,0.6-0.3,0.7-0.6c0,0,0,0,0-0.1v-2.1c0-0.4-0.3-0.6-0.6-0.7c0,0,0,0-0.1,0H-213c-0.4,0-0.6,0.3-0.7,0.6c0,0,0,0,0,0.1v2.8
			c0,0.4,0.3,0.7,0.7,0.7h3c2.9,0,4.8,0.8,5.6,2.3h-8.6c-0.4,0-0.6,0.3-0.7,0.6c0,0,0,0,0,0.1v2.1c0,0.4,0.3,0.6,0.6,0.7
			c0,0,0,0,0.1,0h8.9c-0.3,1.1-1.1,2.1-2.1,2.6c-1.4,0.7-2.9,1-4.4,0.9h-2.3c-0.4,0-0.7,0.3-0.7,0.7v2.6c0,0.2,0.1,0.3,0.2,0.5
			c2.7,2.8,6.1,6.8,10.3,11.8c0.1,0.2,0.3,0.3,0.5,0.2h4c0.3,0,0.5-0.1,0.6-0.4c0.1-0.2,0.1-0.5-0.1-0.7c-4-5-7.2-8.7-9.5-11.1
			c2.1-0.2,4.1-1,5.7-2.3c1.5-1.2,2.4-3,2.7-4.9h3.5c0.4,0,0.6-0.3,0.7-0.6l0,0v-2.1C-195.1-3111-195.1-3111.2-195.3-3111.3z"/>
	</g>
</g>
<g id="Group_977" transform="translate(246.77 -335.807)">
	<path id="Path_6861" class="st4" d="M613.8,814.9l-35.6-35.6c-0.4-0.4-1.1-0.4-1.6,0l0,0l-3.4,3.4c-0.4,0.4-0.4,1.1,0,1.6l0,0l3,3
		c-0.4,5.8-1.7,11.6-4,17c-2.7,6.3-6.6,11.9-11.6,16.6l0,0l0,0l-15.2,15.2c-1.4,1.4-1.4,3.6,0,5l6.8,6.8c1.4,1.4,3.6,1.4,5,0
		l6.2-6.2l16.2,9.7c0.4,0.3,1,0.2,1.4-0.2l5.1-5.1c0.4-0.4,0.4-1.1,0-1.6l0,0l-4.3-4.3l1.7-1.7c0.4-0.4,0.4-1.1,0-1.6l-5.1-5.1
		c-0.4-0.4-1.1-0.4-1.6,0l0,0l-1.7,1.7l-1.8-1.8c8.7-8.8,20.4-14.1,32.8-14.9l3,3c0.4,0.4,1.1,0.4,1.6,0l3.4-3.4
		C614.2,816,614.2,815.3,613.8,814.9L613.8,814.9z M555.5,846.2c-0.5,0.5-1.3,0.5-1.8,0l-6.8-6.8c-0.5-0.5-0.5-1.3,0-1.8l6-6
		l8.6,8.6L555.5,846.2z M563.1,838.6l-8.6-8.6l6.9-6.9l8.6,8.6L563.1,838.6z M577.4,834.2l3.5,3.5l-1,1l-3.5-3.5L577.4,834.2z
		 M583.5,845.3l-3.7,3.7l-15-9l6.7-6.7L583.5,845.3z M609.6,817.5L588,795.9c-0.4-0.4-1.1-0.4-1.6,0c-0.4,0.4-0.4,1.1,0,1.6l0,0
		l17.3,17.3c-12.2,1.2-23.6,6.6-32.3,15.4l-8.5-8.5c4.8-4.7,8.6-10.3,11.3-16.5c2.2-5,3.5-10.3,4.1-15.8l3.6,3.6
		c0.4,0.4,1.1,0.4,1.6,0s0.4-1.1,0-1.6l-7.8-7.8l1.8-1.8l34,34L609.6,817.5z"/>
	<path id="Path_6862" class="st4" d="M553.7,836c-0.4-0.4-1.1-0.4-1.6,0l0,0l-1.7,1.7c-0.4,0.4-0.4,1.1,0,1.6c0.4,0.4,1.1,0.4,1.6,0
		l1.7-1.7C554.1,837.2,554.1,836.5,553.7,836L553.7,836z"/>
	<path id="Path_6863" class="st4" d="M557.1,839.4c-0.4-0.4-1.1-0.4-1.6,0l0,0l-1.7,1.7c-0.4,0.4-0.4,1.1,0,1.6
		c0.4,0.4,1.1,0.4,1.6,0l1.7-1.7C557.5,840.6,557.5,839.9,557.1,839.4L557.1,839.4z"/>
	<g id="Group_974" transform="translate(822.204 3898.47)">
		<path id="Path_6860-2" class="st4" d="M-202.8-3114c-0.1-0.1-0.2-0.1-0.3-0.1h-2.1c-0.1-0.6-0.4-1.3-0.8-1.8h2.9
			c0.2,0,0.4-0.2,0.4-0.4l0,0v-1.3c0-0.2-0.2-0.4-0.4-0.4l0,0h-10.2c-0.2,0-0.4,0.2-0.4,0.4l0,0v1.6c0,0.2,0.2,0.4,0.4,0.4h1.8
			c1.7,0,2.8,0.5,3.3,1.4h-5.1c-0.2,0-0.4,0.2-0.4,0.4l0,0v1.3c0,0.2,0.2,0.4,0.4,0.4l0,0h5.3c-0.2,0.7-0.6,1.2-1.3,1.5
			c-0.8,0.4-1.7,0.6-2.6,0.5h-1.4c-0.2,0-0.4,0.2-0.4,0.4v1.6c0,0.1,0,0.2,0.1,0.3c1.6,1.7,3.6,4,6.1,7c0.1,0.1,0.2,0.2,0.3,0.1h2.4
			c0.2,0,0.3-0.1,0.4-0.2c0.1-0.1,0.1-0.3,0-0.4c-2.4-2.9-4.3-5.1-5.7-6.6c1.2-0.1,2.4-0.6,3.4-1.4c0.9-0.7,1.4-1.8,1.6-2.9h2.1
			c0.2,0,0.4-0.2,0.4-0.4l0,0v-1.3C-202.6-3113.8-202.7-3113.9-202.8-3114z"/>
	</g>
	<g id="Group_975" transform="translate(810.921 3947.166)">
		<path id="Path_6860-3" class="st4" d="M-202.8-3114c-0.1-0.1-0.2-0.1-0.3-0.1h-2.1c-0.1-0.6-0.4-1.3-0.8-1.8h2.9
			c0.2,0,0.4-0.2,0.4-0.4l0,0v-1.3c0-0.2-0.2-0.4-0.4-0.4l0,0h-10.2c-0.2,0-0.4,0.2-0.4,0.4l0,0v1.6c0,0.2,0.2,0.4,0.4,0.4h1.8
			c1.7,0,2.8,0.5,3.3,1.4h-5.1c-0.2,0-0.4,0.2-0.4,0.4l0,0v1.3c0,0.2,0.2,0.4,0.4,0.4l0,0h5.3c-0.2,0.7-0.6,1.2-1.3,1.5
			c-0.8,0.4-1.7,0.6-2.6,0.5h-1.4c-0.2,0-0.4,0.2-0.4,0.4v1.6c0,0.1,0,0.2,0.1,0.3c1.6,1.7,3.6,4,6.1,7c0.1,0.1,0.2,0.2,0.3,0.1h2.4
			c0.2,0,0.3-0.1,0.4-0.2c0.1-0.1,0.1-0.3,0-0.4c-2.4-2.9-4.3-5.1-5.7-6.6c1.2-0.1,2.4-0.6,3.4-1.4c0.9-0.7,1.4-1.8,1.6-2.9h2.1
			c0.2,0,0.4-0.2,0.4-0.4l0,0v-1.3C-202.6-3113.8-202.7-3113.9-202.8-3114z"/>
	</g>
	<g id="Group_976" transform="translate(760.443 3905.596)">
		<path id="Path_6860-4" class="st4" d="M-202.8-3114c-0.1-0.1-0.2-0.1-0.3-0.1h-2.1c-0.1-0.6-0.4-1.3-0.8-1.8h2.9
			c0.2,0,0.4-0.2,0.4-0.4l0,0v-1.3c0-0.2-0.2-0.4-0.4-0.4l0,0h-10.2c-0.2,0-0.4,0.2-0.4,0.4l0,0v1.6c0,0.2,0.2,0.4,0.4,0.4h1.8
			c1.7,0,2.8,0.5,3.3,1.4h-5.1c-0.2,0-0.4,0.2-0.4,0.4l0,0v1.3c0,0.2,0.2,0.4,0.4,0.4l0,0h5.3c-0.2,0.7-0.6,1.2-1.3,1.5
			c-0.8,0.4-1.7,0.6-2.6,0.5h-1.4c-0.2,0-0.4,0.2-0.4,0.4v1.6c0,0.1,0,0.2,0.1,0.3c1.6,1.7,3.6,4,6.1,7c0.1,0.1,0.2,0.2,0.3,0.1h2.4
			c0.2,0,0.3-0.1,0.4-0.2c0.1-0.1,0.1-0.3,0-0.4c-2.4-2.9-4.3-5.1-5.7-6.6c1.2-0.1,2.4-0.6,3.4-1.4c0.9-0.7,1.4-1.8,1.6-2.9h2.1
			c0.2,0,0.4-0.2,0.4-0.4l0,0v-1.3C-202.6-3113.8-202.7-3113.9-202.8-3114z"/>
	</g>
</g>
</svg>
