<?xml version="1.0" encoding="utf-8"?>
<!-- Generator: Adobe Illustrator 22.0.0, SVG Export Plug-In . SVG Version: 6.00 Build 0)  -->
<svg version="1.1" id="Layer_1" xmlns="http://www.w3.org/2000/svg" xmlns:xlink="http://www.w3.org/1999/xlink" x="0px" y="0px"
	 viewBox="0 0 45 45" style="enable-background:new 0 0 45 45;" xml:space="preserve">
<style type="text/css">
	.st0{fill:#FFFFFF;}
	.st1{fill:none;}
	.st2{fill:none;stroke:#61C6CC;}
</style>
<g id="Group_969" transform="translate(-23755 -1174)">
	<g id="Group_865" transform="translate(7.13 4.369)">
		<path id="Path_286" class="st0" d="M23770.3,1181.4c0.2,0,0.4-0.2,0.4-0.4c0,0,0,0,0,0v-2.5c0-0.2-0.2-0.4-0.4-0.4
			s-0.4,0.2-0.4,0.4l0,0v2.5C23769.8,1181.2,23770,1181.4,23770.3,1181.4C23770.3,1181.4,23770.3,1181.4,23770.3,1181.4z"/>
		<path id="Path_287" class="st0" d="M23765.7,1182.3c0.1,0.2,0.4,0.3,0.6,0.1c0.2-0.1,0.3-0.4,0.2-0.6l-1.3-2.2
			c-0.1-0.2-0.4-0.3-0.6-0.1c-0.2,0.1-0.3,0.4-0.2,0.6L23765.7,1182.3z"/>
		<path id="Path_281" class="st0" d="M23775.8,1193.4c2.3-3.1,1.7-7.5-1.3-9.8c-3.1-2.3-7.5-1.7-9.8,1.3c-1.9,2.5-1.9,6,0,8.5
			c1.5,2,2.4,4.4,2.4,7v2.7c0,1.2,1,2.2,2.2,2.2h2c1.2,0,2.2-1,2.2-2.2v-2.7C23773.5,1197.9,23774.3,1195.4,23775.8,1193.4z
			 M23765.4,1192.9c-0.8-1.1-1.3-2.4-1.2-3.7c0-3.3,2.7-6,6-6c3.4,0,6.1,2.6,6.2,6c0,1.4-0.4,2.7-1.2,3.8c-1.6,2.1-2.5,4.7-2.6,7.4
			h-4.6C23767.9,1197.6,23767,1195,23765.4,1192.9L23765.4,1192.9z M23768,1202.8v-0.4l4.6,0.5v0.1c0,0.1,0,0.1,0,0.2L23768,1202.8z
			 M23768,1201.5v-0.4h4.6v0.9L23768,1201.5z M23769.2,1204.4c-0.5,0-0.9-0.3-1.1-0.7l3.9,0.4c-0.2,0.1-0.5,0.2-0.7,0.2
			C23771.3,1204.4,23769.2,1204.4,23769.2,1204.4z"/>
		<path id="Path_282" class="st0" d="M23765.8,1189.9c0-0.2-0.1-0.5,0-0.7c0-0.2-0.2-0.5-0.4-0.5c-0.2,0-0.5,0.2-0.5,0.4
			c0,0.3,0,0.6,0.1,0.9c0,0.2,0.2,0.4,0.5,0.4C23765.7,1190.4,23765.8,1190.1,23765.8,1189.9
			C23765.8,1189.9,23765.8,1189.9,23765.8,1189.9L23765.8,1189.9z"/>
		<path id="Path_283" class="st0" d="M23768.5,1196.7c0.2,0,0.4-0.2,0.4-0.4c0,0,0-0.1,0-0.1c-0.5-1.5-1.2-2.9-2.2-4.2
			c-0.2-0.2-0.3-0.4-0.4-0.7c-0.1-0.2-0.4-0.3-0.6-0.2s-0.3,0.4-0.2,0.6c0.1,0.3,0.3,0.5,0.5,0.8c0.9,1.2,1.6,2.5,2.1,3.9
			C23768.1,1196.5,23768.3,1196.7,23768.5,1196.7z"/>
		<path id="Path_284" class="st0" d="M23775,1190.7c-0.2-0.1-0.5,0-0.6,0.2c0,0,0,0,0,0c-0.1,0.3-0.3,0.6-0.5,0.9
			c-0.2,0.2-0.1,0.5,0.1,0.6c0.2,0.2,0.5,0.1,0.6-0.1c0,0,0,0,0,0c0.3-0.3,0.5-0.7,0.7-1.1
			C23775.3,1191.1,23775.2,1190.8,23775,1190.7z"/>
		<path id="Path_285" class="st0" d="M23770.3,1184.7c2.5,0,4.5,2,4.5,4.5c0,0.1,0,0.3,0,0.4c0,0.2,0.2,0.5,0.4,0.5h0
			c0.2,0,0.4-0.2,0.4-0.4c0-0.2,0-0.3,0-0.5c0-3-2.4-5.4-5.4-5.4c-0.2,0-0.4,0.2-0.4,0.5S23770,1184.7,23770.3,1184.7
			L23770.3,1184.7z"/>
		<path id="Path_288" class="st0" d="M23779.8,1194.3l-2.2-1.3c-0.2-0.1-0.5-0.1-0.6,0.1c-0.1,0.2-0.1,0.5,0.1,0.6c0,0,0,0,0,0
			l2.2,1.3c0.2,0.1,0.5,0,0.6-0.2C23780.1,1194.6,23780,1194.4,23779.8,1194.3z"/>
		<path id="Path_289" class="st0" d="M23760.7,1184.2l2.2,1.3c0.2,0.1,0.5,0,0.6-0.2c0.1-0.2,0-0.5-0.2-0.6l-2.2-1.3
			c-0.2-0.1-0.5-0.1-0.6,0.1S23760.4,1184.1,23760.7,1184.2C23760.6,1184.2,23760.7,1184.2,23760.7,1184.2z"/>
		<path id="Path_290" class="st0" d="M23781.1,1188.8h-2.5c-0.2,0-0.4,0.2-0.4,0.4c0,0.2,0.2,0.5,0.4,0.5l0,0h2.5
			c0.2,0,0.5-0.2,0.5-0.5C23781.5,1189,23781.3,1188.8,23781.1,1188.8z"/>
		<path id="Path_291" class="st0" d="M23762.4,1189.3c0-0.2-0.2-0.4-0.4-0.4c0,0,0,0,0,0h-2.5c-0.2,0-0.4,0.2-0.4,0.4
			s0.2,0.5,0.4,0.5h2.5C23762.2,1189.7,23762.4,1189.5,23762.4,1189.3C23762.4,1189.3,23762.4,1189.3,23762.4,1189.3z"/>
		<path id="Path_292" class="st0" d="M23777.4,1185.6c0.1,0,0.2,0,0.2-0.1l2.2-1.3c0.2-0.1,0.3-0.4,0.2-0.6
			c-0.1-0.2-0.4-0.3-0.6-0.2c0,0,0,0,0,0l-2.2,1.3c-0.2,0.1-0.3,0.4-0.2,0.6C23777.1,1185.5,23777.3,1185.6,23777.4,1185.6
			L23777.4,1185.6z"/>
		<path id="Path_293" class="st0" d="M23762.8,1193l-2.2,1.3c-0.2,0.1-0.3,0.4-0.2,0.6s0.4,0.3,0.6,0.2c0,0,0,0,0,0l2.2-1.3
			c0.2-0.1,0.3-0.4,0.2-0.6C23763.3,1193,23763.1,1192.9,23762.8,1193L23762.8,1193z"/>
		<path id="Path_294" class="st0" d="M23774.2,1182.5c0.2,0.1,0.5,0.1,0.6-0.2c0,0,0,0,0,0l1.3-2.2c0.1-0.2,0-0.5-0.2-0.6
			c-0.2-0.1-0.5-0.1-0.6,0.2l0,0l-1.3,2.2C23773.9,1182.1,23774,1182.3,23774.2,1182.5
			C23774.2,1182.5,23774.2,1182.5,23774.2,1182.5z"/>
	</g>
	<g id="Ellipse_187" transform="translate(598 978)">
		<circle class="st1" cx="23179.5" cy="218.5" r="22.5"/>
		<circle class="st2" cx="23179.5" cy="218.5" r="22"/>
	</g>
</g>
</svg>
