<?xml version="1.0" encoding="utf-8"?>
<!-- Generator: Adobe Illustrator 22.0.0, SVG Export Plug-In . SVG Version: 6.00 Build 0)  -->
<svg version="1.1" id="Layer_1" xmlns="http://www.w3.org/2000/svg" xmlns:xlink="http://www.w3.org/1999/xlink" x="0px" y="0px"
	 viewBox="0 0 33 33" style="enable-background:new 0 0 33 33;" xml:space="preserve">
<style type="text/css">
	.st0{fill:#FFFFFF;}
</style>
<path id="user_1_" class="st0" d="M28.2,4.8c-6.4-6.4-16.9-6.4-23.3,0C0.3,9.3-1.2,16.1,1,22.1c0.1,0.3,0.5,0.5,0.9,0.4
	c0.3-0.1,0.5-0.5,0.4-0.8c-2.8-7.9,1.2-16.6,9.1-19.4s16.6,1.2,19.4,9.1c1.9,5.4,0.7,11.4-3.3,15.6L27.4,27
	c-0.1,0.1-0.1,0.1-0.2,0.2c-5.9,5.9-15.5,5.9-21.4,0c0,0-0.1-0.1-0.1-0.1c0-0.1,0-0.1,0-0.2c0-0.1,0-0.3,0-0.4c0,0,0-0.1,0-0.1
	c0-0.1,0-0.2,0-0.3c0-0.1,0-0.1,0-0.2c0-0.1,0-0.2,0-0.2c0-0.1,0-0.1,0-0.2c0-0.1,0-0.2,0-0.2c0-0.1,0-0.1,0-0.2c0-0.1,0-0.1,0-0.2
	c0-0.1,0-0.1,0-0.2s0-0.1,0-0.2s0-0.1,0-0.2s0-0.1,0.1-0.2s0-0.1,0-0.2s0-0.1,0.1-0.2s0-0.1,0.1-0.2s0-0.1,0.1-0.2s0-0.1,0.1-0.2
	s0-0.1,0.1-0.2s0-0.1,0.1-0.2s0.1-0.1,0.1-0.2s0-0.1,0.1-0.2s0.1-0.1,0.1-0.2s0.1-0.1,0.1-0.2s0.1-0.1,0.1-0.2s0.1-0.1,0.1-0.2
	s0.1-0.1,0.1-0.2s0.1-0.1,0.1-0.2s0.1-0.1,0.1-0.2l0.1-0.1c0-0.1,0.1-0.1,0.1-0.2l0.1-0.1c0-0.1,0.1-0.1,0.1-0.2s0.1-0.1,0.1-0.1
	s0.1-0.1,0.1-0.2S8,20.3,8,20.2c0,0,0.1-0.1,0.1-0.2s0.1-0.1,0.1-0.1s0.1-0.1,0.1-0.2s0.1-0.1,0.1-0.1s0.1-0.1,0.1-0.2l0.1-0.1
	c0.1-0.1,0.1-0.1,0.2-0.2s0.1-0.1,0.1-0.1s0.1-0.1,0.2-0.1s0.1-0.1,0.1-0.1s0.1-0.1,0.2-0.1l0.1-0.1c0.1,0,0.1-0.1,0.2-0.1
	c0,0,0.1-0.1,0.1-0.1c0.1,0,0.1-0.1,0.2-0.1c0,0,0.1-0.1,0.1-0.1c0.1,0,0.1-0.1,0.2-0.1l0.1-0.1c0.1-0.1,0.2-0.1,0.3-0.2l0,0
	c0.1-0.1,0.2-0.1,0.3-0.2l0.1-0.1c0.1,0,0.2-0.1,0.2-0.1c0.1,0,0.1,0,0.2-0.1s0.1-0.1,0.2-0.1c2.5,2.4,6.5,2.4,9.1,0
	c2.4,1.1,4.3,3.1,5.4,5.5c0.1,0.3,0.5,0.5,0.9,0.4s0.5-0.5,0.4-0.9c0,0,0,0,0,0c-1.1-2.6-3.2-4.7-5.7-6c2-3,1.3-7.1-1.7-9.1
	c-1.1-0.7-2.4-1.1-3.7-1.1c-0.4,0-0.7,0.3-0.7,0.7s0.3,0.7,0.7,0.7c0,0,0,0,0,0c2.9,0,5.2,2.3,5.2,5.2c0,1.3-0.5,2.5-1.3,3.5l0,0
	c-1.9,2.1-5.2,2.3-7.3,0.4c-0.1-0.1-0.3-0.3-0.4-0.4l0,0c-1.9-2.1-1.8-5.2,0.2-7.2c0.3-0.3,0.2-0.7,0-1c-0.3-0.2-0.7-0.2-0.9,0
	c-2.2,2.2-2.6,5.7-0.8,8.3l0,0c-0.1,0-0.1,0.1-0.2,0.1c-0.1,0-0.2,0.1-0.2,0.1c-0.1,0-0.1,0.1-0.2,0.1c-0.1,0-0.1,0.1-0.2,0.1
	l-0.2,0.1c-0.1,0-0.1,0.1-0.2,0.1l-0.2,0.1c-0.1,0-0.1,0.1-0.2,0.1l-0.2,0.1c-0.1,0-0.1,0.1-0.2,0.1L9,17.3c-0.1,0-0.1,0.1-0.2,0.1
	l-0.2,0.1c-0.1,0.1-0.1,0.1-0.2,0.2l-0.2,0.1C8.3,18,8.2,18,8.2,18.1L8,18.2c-0.1,0.1-0.1,0.1-0.2,0.2s-0.1,0.1-0.1,0.1
	s-0.1,0.1-0.2,0.2s-0.1,0.1-0.1,0.1S7.3,18.9,7.3,19s-0.1,0.1-0.1,0.1S7.1,19.3,7,19.3c0,0-0.1,0.1-0.1,0.1
	c-0.1,0.1-0.1,0.1-0.2,0.2c0,0-0.1,0.1-0.1,0.1c-0.1,0.1-0.1,0.2-0.2,0.3l-0.1,0.1c-0.1,0.1-0.2,0.2-0.2,0.4c0,0-0.1,0.1-0.1,0.1
	c0,0.1-0.1,0.2-0.1,0.2c0,0.1-0.1,0.1-0.1,0.2c0,0.1-0.1,0.1-0.1,0.2c0,0.1-0.1,0.1-0.1,0.2c0,0.1-0.1,0.1-0.1,0.2s-0.1,0.1-0.1,0.2
	S5.4,22,5.4,22.1s-0.1,0.1-0.1,0.2s-0.1,0.1-0.1,0.2s0,0.1-0.1,0.2S5.1,22.8,5,22.9S5,23,5,23s0,0.1-0.1,0.2s0,0.1-0.1,0.2
	s0,0.2-0.1,0.2s0,0.1-0.1,0.2s0,0.2-0.1,0.2s0,0.1,0,0.2s0,0.2,0,0.2s0,0.1,0,0.2c0,0.1,0,0.2,0,0.2c0,0.1,0,0.1,0,0.2
	c0,0.1,0,0.2,0,0.3c0,0.1,0,0.1,0,0.2c0,0.1,0,0.2,0,0.3c0,0.1,0,0.1,0,0.2c0,0.1,0,0.2,0,0.3c0,0,0,0.1,0,0.1c0,0.1,0,0.3,0,0.4
	c0,0.2,0,0.3,0,0.5c0,0,0,0.1,0,0.1v0c0,0,0,0.1,0,0.1v0c0,0,0,0.1,0.1,0.1l0,0c0,0,0,0.1,0.1,0.1v0L4.6,28c0.1,0.1,0.1,0.1,0.2,0.2
	c6.5,6.4,16.9,6.4,23.3,0c0.1-0.1,0.1-0.1,0.2-0.2l0.1-0.1C34.6,21.4,34.5,11.2,28.2,4.8L28.2,4.8z"/>
</svg>
