<?xml version="1.0" encoding="utf-8"?>
<!-- Generator: Adobe Illustrator 22.0.0, SVG Export Plug-In . SVG Version: 6.00 Build 0)  -->
<svg version="1.1" id="Layer_1" xmlns="http://www.w3.org/2000/svg" xmlns:xlink="http://www.w3.org/1999/xlink" x="0px" y="0px"
	 viewBox="0 0 45 45" style="enable-background:new 0 0 45 45;" xml:space="preserve">
<style type="text/css">
	.st0{fill:none;}
	.st1{fill:none;stroke:#E1E1E1;}
	.st2{fill:#2CC055;}
</style>
<g id="Group_1012" transform="translate(1608 -16796)">
	<g id="Group_908" transform="translate(0 -541)">
		<g id="Ellipse_187" transform="translate(98 1519)">
			<circle class="st0" cx="-1683.5" cy="15840.5" r="22.5"/>
			<circle class="st1" cx="-1683.5" cy="15840.5" r="22"/>
		</g>
	</g>
	<g id="Group_911">
		<path id="Path_6807" class="st2" d="M-1573.4,16818.5c-0.2-0.3-5.6-7.5-12.4-7.5c-6.9,0-12.2,7.2-12.4,7.5c-0.2,0.3-0.2,0.7,0,1
			c0.2,0.3,5.6,7.5,12.4,7.5c6.9,0,12.2-7.2,12.4-7.5C-1573.1,16819.2-1573.1,16818.8-1573.4,16818.5z M-1585.8,16825.4
			c-5,0-9.4-4.8-10.7-6.4c1.3-1.6,5.7-6.4,10.7-6.4c5.1,0,9.4,4.8,10.7,6.4C-1576.4,16820.6-1580.7,16825.4-1585.8,16825.4z"/>
		<path id="Path_6808" class="st2" d="M-1585.8,16814.1c-2.8,0-5,2.2-5,5c0,2.8,2.2,5,5,5c2.8,0,5-2.2,5-5
			C-1580.8,16816.3-1583,16814.1-1585.8,16814.1z M-1585.8,16822.4c-1.8,0-3.3-1.5-3.3-3.3c0-1.8,1.5-3.3,3.3-3.3
			c1.8,0,3.3,1.5,3.3,3.3l0,0C-1582.5,16820.9-1584,16822.4-1585.8,16822.4L-1585.8,16822.4z"/>
	</g>
</g>
</svg>
