<?xml version="1.0" encoding="utf-8"?>
<!-- Generator: Adobe Illustrator 22.0.0, SVG Export Plug-In . SVG Version: 6.00 Build 0)  -->
<svg version="1.1" id="Layer_1" xmlns="http://www.w3.org/2000/svg" xmlns:xlink="http://www.w3.org/1999/xlink" x="0px" y="0px"
	 viewBox="0 0 1133.4 445.5" style="enable-background:new 0 0 1133.4 445.5;" xml:space="preserve">
<style type="text/css">
	.st0{enable-background:new    ;}
	.st1{fill:#FFFFFF;}
	.st2{fill:none;}
	.st3{fill:none;stroke:#64B6E6;}
	.st4{fill:#0D374D;}
	.st5{font-family:'OpenSans-Bold';}
	.st6{font-size:8px;}
	.st7{fill:#64B6E6;}
	.st8{opacity:0.5;fill:#FFFFFF;stroke:#64B6E6;enable-background:new    ;}
	.st9{opacity:0.5;fill:#64B6E6;stroke:#64B6E6;enable-background:new    ;}
	.st10{fill:none;stroke:#FFFFFF;}
	.st11{fill:none;stroke:#FFFFFF;stroke-width:2;}
</style>
<g class="st0">
	<path class="st1" d="M958,297.4h1.7l-4.9,13.6h-1.6l-4.9-13.6h1.7l3.1,8.8c0.4,1,0.6,2,0.9,2.9c0.2-1,0.5-2,0.9-3L958,297.4z"/>
	<path class="st1" d="M961.2,298.1c0-0.4,0.1-0.6,0.3-0.8c0.2-0.2,0.4-0.2,0.6-0.2c0.2,0,0.5,0.1,0.6,0.2s0.3,0.4,0.3,0.8
		c0,0.3-0.1,0.6-0.3,0.8s-0.4,0.3-0.6,0.3c-0.3,0-0.5-0.1-0.6-0.3C961.3,298.7,961.2,298.4,961.2,298.1z M962.9,311h-1.5v-10.2h1.5
		V311z"/>
	<path class="st1" d="M970.4,311.2c-1.5,0-2.7-0.5-3.6-1.4c-0.9-0.9-1.3-2.2-1.3-3.8c0-1.6,0.4-2.9,1.2-3.9c0.8-1,1.9-1.4,3.3-1.4
		c1.3,0,2.3,0.4,3,1.3c0.7,0.8,1.1,1.9,1.1,3.3v1h-7c0,1.2,0.3,2.1,0.9,2.7c0.6,0.6,1.4,0.9,2.4,0.9c1.1,0,2.2-0.2,3.2-0.7v1.4
		c-0.5,0.2-1.1,0.4-1.5,0.5C971.7,311.1,971.1,311.2,970.4,311.2z M970,301.9c-0.8,0-1.5,0.3-2,0.8c-0.5,0.5-0.8,1.3-0.9,2.2h5.3
		c0-1-0.2-1.7-0.6-2.2S970.8,301.9,970,301.9z"/>
	<path class="st1" d="M985.1,311l-1.9-6c-0.1-0.4-0.3-1.2-0.7-2.5h-0.1c-0.2,1.1-0.5,1.9-0.6,2.5l-1.9,5.9h-1.8l-2.8-10.2h1.6
		c0.7,2.6,1.2,4.5,1.5,5.8c0.3,1.3,0.5,2.2,0.6,2.7h0.1c0.1-0.4,0.2-0.8,0.3-1.4c0.2-0.6,0.3-1,0.4-1.3l1.9-5.8h1.7l1.8,5.8
		c0.3,1.1,0.6,2,0.7,2.7h0.1c0-0.2,0.1-0.6,0.2-1c0.1-0.5,0.8-3,1.9-7.5h1.6l-2.8,10.2H985.1z"/>
	<path class="st1" d="M1004.4,307.4c0,1.2-0.4,2.1-1.3,2.8c-0.9,0.7-2,1-3.5,1c-1.6,0-2.8-0.2-3.7-0.6V309c0.6,0.2,1.2,0.4,1.8,0.6
		c0.7,0.1,1.3,0.2,1.9,0.2c1.1,0,1.8-0.2,2.4-0.6c0.5-0.4,0.8-1,0.8-1.7c0-0.5-0.1-0.9-0.3-1.2c-0.2-0.3-0.5-0.6-0.9-0.8
		c-0.4-0.3-1.1-0.5-2-0.9c-1.3-0.5-2.2-1-2.7-1.6c-0.5-0.6-0.8-1.4-0.8-2.4c0-1,0.4-1.9,1.2-2.5c0.8-0.6,1.8-0.9,3.1-0.9
		c1.3,0,2.6,0.2,3.7,0.7l-0.5,1.4c-1.1-0.5-2.2-0.7-3.3-0.7c-0.8,0-1.5,0.2-2,0.5c-0.5,0.4-0.7,0.9-0.7,1.5c0,0.5,0.1,0.9,0.3,1.2
		c0.2,0.3,0.5,0.6,0.9,0.8c0.4,0.3,1,0.5,1.9,0.8c1.4,0.5,2.4,1.1,2.9,1.6C1004.1,305.7,1004.4,306.5,1004.4,307.4z"/>
	<path class="st1" d="M1008.4,300.8v6.6c0,0.8,0.2,1.4,0.6,1.9s1,0.6,1.8,0.6c1.1,0,1.8-0.3,2.3-0.9c0.5-0.6,0.7-1.5,0.7-2.8v-5.3
		h1.5V311h-1.3l-0.2-1.4h-0.1c-0.3,0.5-0.8,0.9-1.3,1.2c-0.6,0.3-1.2,0.4-1.9,0.4c-1.2,0-2.2-0.3-2.8-0.9c-0.6-0.6-0.9-1.5-0.9-2.8
		v-6.7H1008.4z"/>
	<path class="st1" d="M1023.3,300.7c1.3,0,2.4,0.5,3.1,1.4c0.7,0.9,1.1,2.2,1.1,3.9s-0.4,3-1.1,3.9c-0.7,0.9-1.8,1.4-3.1,1.4
		c-0.7,0-1.3-0.1-1.8-0.4s-1-0.6-1.4-1.1h-0.1l-0.3,1.3h-1.1v-14.4h1.5v3.5c0,0.8,0,1.5-0.1,2.1h0.1
		C1020.9,301.2,1021.9,300.7,1023.3,300.7z M1023.1,302c-1.1,0-1.8,0.3-2.3,0.9c-0.5,0.6-0.7,1.6-0.7,3c0,1.4,0.2,2.5,0.7,3.1
		c0.5,0.6,1.2,0.9,2.3,0.9c0.9,0,1.7-0.3,2.1-1c0.5-0.7,0.7-1.7,0.7-3c0-1.3-0.2-2.3-0.7-3C1024.8,302.3,1024.1,302,1023.1,302z"/>
	<path class="st1" d="M1036.8,308.2c0,0.9-0.4,1.7-1.1,2.2c-0.7,0.5-1.7,0.8-3,0.8c-1.3,0-2.4-0.2-3.2-0.6v-1.4
		c0.5,0.2,1,0.4,1.6,0.6s1.1,0.2,1.6,0.2c0.8,0,1.4-0.1,1.9-0.4c0.4-0.3,0.7-0.6,0.7-1.2c0-0.4-0.2-0.7-0.5-1c-0.3-0.3-1-0.6-2-1
		c-0.9-0.4-1.6-0.7-2-0.9c-0.4-0.3-0.7-0.6-0.9-0.9c-0.2-0.3-0.3-0.7-0.3-1.2c0-0.8,0.3-1.5,1-2c0.7-0.5,1.6-0.7,2.8-0.7
		c1.1,0,2.2,0.2,3.2,0.7l-0.5,1.3c-1-0.4-1.9-0.6-2.8-0.6c-0.7,0-1.3,0.1-1.7,0.3s-0.6,0.5-0.6,0.9c0,0.3,0.1,0.5,0.2,0.7
		c0.1,0.2,0.4,0.4,0.7,0.5c0.3,0.2,0.9,0.4,1.8,0.8c1.2,0.4,2,0.9,2.4,1.3C1036.6,307,1036.8,307.6,1036.8,308.2z"/>
	<path class="st1" d="M1043.4,311.2c-1.5,0-2.6-0.5-3.4-1.4c-0.8-0.9-1.2-2.2-1.2-3.8c0-1.7,0.4-3,1.2-3.9c0.8-0.9,2-1.4,3.5-1.4
		c0.5,0,1,0.1,1.5,0.2c0.5,0.1,0.9,0.2,1.2,0.4l-0.5,1.3c-0.3-0.1-0.7-0.2-1.1-0.3c-0.4-0.1-0.8-0.1-1.1-0.1c-2.1,0-3.1,1.3-3.1,4
		c0,1.2,0.3,2.2,0.8,2.9c0.5,0.7,1.2,1,2.2,1c0.8,0,1.7-0.2,2.6-0.5v1.4C1045.3,311,1044.4,311.2,1043.4,311.2z"/>
	<path class="st1" d="M1053,300.6c0.5,0,0.9,0,1.2,0.1l-0.2,1.4c-0.4-0.1-0.8-0.1-1.1-0.1c-0.8,0-1.5,0.3-2.1,1
		c-0.6,0.7-0.9,1.5-0.9,2.5v5.5h-1.5v-10.2h1.3l0.2,1.9h0.1c0.4-0.7,0.8-1.2,1.4-1.5C1051.8,300.8,1052.4,300.6,1053,300.6z"/>
	<path class="st1" d="M1056,298.1c0-0.4,0.1-0.6,0.3-0.8c0.2-0.2,0.4-0.2,0.6-0.2c0.2,0,0.5,0.1,0.6,0.2s0.3,0.4,0.3,0.8
		c0,0.3-0.1,0.6-0.3,0.8s-0.4,0.3-0.6,0.3c-0.3,0-0.5-0.1-0.6-0.3C1056.1,298.7,1056,298.4,1056,298.1z M1057.7,311h-1.5v-10.2h1.5
		V311z"/>
	<path class="st1" d="M1065.7,311.2c-0.7,0-1.3-0.1-1.8-0.4c-0.5-0.2-1-0.6-1.4-1.1h-0.1c0.1,0.6,0.1,1.2,0.1,1.7v4.2h-1.5v-14.7
		h1.3l0.2,1.4h0.1c0.4-0.6,0.9-1,1.4-1.2s1.1-0.4,1.8-0.4c1.3,0,2.4,0.5,3.1,1.4c0.7,0.9,1.1,2.2,1.1,3.9c0,1.7-0.4,3-1.1,3.9
		S1067,311.2,1065.7,311.2z M1065.4,302c-1,0-1.8,0.3-2.3,0.9c-0.5,0.6-0.7,1.5-0.7,2.7v0.3c0,1.4,0.2,2.5,0.7,3.1
		c0.5,0.6,1.2,0.9,2.3,0.9c0.9,0,1.6-0.4,2.1-1.1c0.5-0.7,0.7-1.7,0.7-2.9c0-1.3-0.2-2.2-0.7-2.9C1067,302.3,1066.3,302,1065.4,302z
		"/>
	<path class="st1" d="M1075.8,309.9c0.3,0,0.5,0,0.8-0.1c0.3,0,0.5-0.1,0.6-0.1v1.2c-0.2,0.1-0.4,0.1-0.7,0.2
		c-0.3,0.1-0.6,0.1-0.9,0.1c-2,0-3-1-3-3.1v-6h-1.5v-0.7l1.5-0.6l0.7-2.2h0.9v2.4h2.9v1.2h-2.9v6c0,0.6,0.1,1.1,0.4,1.4
		S1075.3,309.9,1075.8,309.9z"/>
	<path class="st1" d="M1079.1,298.1c0-0.4,0.1-0.6,0.3-0.8c0.2-0.2,0.4-0.2,0.6-0.2c0.2,0,0.5,0.1,0.6,0.2s0.3,0.4,0.3,0.8
		c0,0.3-0.1,0.6-0.3,0.8s-0.4,0.3-0.6,0.3c-0.3,0-0.5-0.1-0.6-0.3C1079.2,298.7,1079.1,298.4,1079.1,298.1z M1080.8,311h-1.5v-10.2
		h1.5V311z"/>
	<path class="st1" d="M1092.9,305.9c0,1.7-0.4,3-1.3,3.9c-0.8,0.9-2,1.4-3.5,1.4c-0.9,0-1.7-0.2-2.4-0.6c-0.7-0.4-1.2-1-1.6-1.8
		c-0.4-0.8-0.6-1.7-0.6-2.8c0-1.7,0.4-2.9,1.2-3.9c0.8-0.9,2-1.4,3.5-1.4c1.4,0,2.6,0.5,3.4,1.4
		C1092.4,303,1092.9,304.3,1092.9,305.9z M1085.1,305.9c0,1.3,0.3,2.3,0.8,3c0.5,0.7,1.3,1,2.3,1c1,0,1.8-0.3,2.3-1
		c0.5-0.7,0.8-1.7,0.8-3c0-1.3-0.3-2.3-0.8-2.9c-0.5-0.7-1.3-1-2.3-1c-1,0-1.8,0.3-2.3,1C1085.4,303.6,1085.1,304.6,1085.1,305.9z"
		/>
	<path class="st1" d="M1102.5,311v-6.6c0-0.8-0.2-1.4-0.6-1.9c-0.4-0.4-1-0.6-1.8-0.6c-1.1,0-1.8,0.3-2.3,0.9
		c-0.5,0.6-0.7,1.5-0.7,2.8v5.3h-1.5v-10.2h1.3l0.2,1.4h0.1c0.3-0.5,0.8-0.9,1.3-1.2s1.2-0.4,1.9-0.4c1.2,0,2.1,0.3,2.8,0.9
		c0.6,0.6,0.9,1.5,0.9,2.8v6.6H1102.5z"/>
	<path class="st1" d="M1113.8,308.2c0,0.9-0.4,1.7-1.1,2.2c-0.7,0.5-1.7,0.8-3,0.8c-1.3,0-2.4-0.2-3.2-0.6v-1.4
		c0.5,0.2,1,0.4,1.6,0.6s1.1,0.2,1.6,0.2c0.8,0,1.4-0.1,1.9-0.4c0.4-0.3,0.7-0.6,0.7-1.2c0-0.4-0.2-0.7-0.5-1c-0.3-0.3-1-0.6-2-1
		c-0.9-0.4-1.6-0.7-2-0.9c-0.4-0.3-0.7-0.6-0.9-0.9c-0.2-0.3-0.3-0.7-0.3-1.2c0-0.8,0.3-1.5,1-2c0.7-0.5,1.6-0.7,2.8-0.7
		c1.1,0,2.2,0.2,3.2,0.7l-0.5,1.3c-1-0.4-1.9-0.6-2.8-0.6c-0.7,0-1.3,0.1-1.7,0.3s-0.6,0.5-0.6,0.9c0,0.3,0.1,0.5,0.2,0.7
		c0.1,0.2,0.4,0.4,0.7,0.5c0.3,0.2,0.9,0.4,1.8,0.8c1.2,0.4,2,0.9,2.4,1.3C1113.6,307,1113.8,307.6,1113.8,308.2z"/>
</g>
<g class="st0">
	<path class="st1" d="M963.1,432.1c0,2.2-0.6,4-1.8,5.1s-3,1.8-5.2,1.8h-3.8v-13.6h4.2c2.1,0,3.7,0.6,4.9,1.8
		C962.5,428.4,963.1,430,963.1,432.1z M961.4,432.1c0-1.8-0.4-3.1-1.3-4c-0.9-0.9-2.2-1.3-4-1.3h-2.3v10.8h1.9
		c1.9,0,3.3-0.5,4.2-1.4C960.9,435.3,961.4,434,961.4,432.1z"/>
	<path class="st1" d="M974.7,433.9c0,1.7-0.4,3-1.3,3.9c-0.8,0.9-2,1.4-3.5,1.4c-0.9,0-1.7-0.2-2.4-0.6c-0.7-0.4-1.2-1-1.6-1.8
		c-0.4-0.8-0.6-1.7-0.6-2.8c0-1.7,0.4-2.9,1.2-3.9c0.8-0.9,2-1.4,3.5-1.4c1.4,0,2.6,0.5,3.4,1.4C974.2,431,974.7,432.3,974.7,433.9z
		 M966.9,433.9c0,1.3,0.3,2.3,0.8,3c0.5,0.7,1.3,1,2.3,1c1,0,1.8-0.3,2.3-1c0.5-0.7,0.8-1.7,0.8-3c0-1.3-0.3-2.3-0.8-2.9
		c-0.5-0.7-1.3-1-2.3-1c-1,0-1.8,0.3-2.3,1C967.2,431.6,966.9,432.6,966.9,433.9z"/>
	<path class="st1" d="M985.7,439l-1.9-6c-0.1-0.4-0.3-1.2-0.7-2.5h-0.1c-0.2,1.1-0.5,1.9-0.6,2.5l-1.9,5.9h-1.8l-2.8-10.2h1.6
		c0.7,2.6,1.2,4.5,1.5,5.8c0.3,1.3,0.5,2.2,0.6,2.7h0.1c0.1-0.4,0.2-0.8,0.3-1.4c0.2-0.6,0.3-1,0.4-1.3l1.9-5.8h1.7l1.8,5.8
		c0.3,1.1,0.6,2,0.7,2.7h0.1c0-0.2,0.1-0.6,0.2-1c0.1-0.5,0.8-3,1.9-7.5h1.6l-2.8,10.2H985.7z"/>
	<path class="st1" d="M999.1,439v-6.6c0-0.8-0.2-1.4-0.6-1.9s-1-0.6-1.8-0.6c-1.1,0-1.8,0.3-2.3,0.9c-0.5,0.6-0.7,1.5-0.7,2.8v5.3
		h-1.5v-10.2h1.3l0.2,1.4h0.1c0.3-0.5,0.8-0.9,1.3-1.2c0.6-0.3,1.2-0.4,1.9-0.4c1.2,0,2.1,0.3,2.8,0.9c0.6,0.6,0.9,1.5,0.9,2.8v6.6
		H999.1z"/>
	<path class="st1" d="M1005.3,439h-1.5v-14.4h1.5V439z"/>
	<path class="st1" d="M1017.4,433.9c0,1.7-0.4,3-1.3,3.9c-0.8,0.9-2,1.4-3.5,1.4c-0.9,0-1.7-0.2-2.4-0.6c-0.7-0.4-1.2-1-1.6-1.8
		c-0.4-0.8-0.6-1.7-0.6-2.8c0-1.7,0.4-2.9,1.2-3.9c0.8-0.9,2-1.4,3.5-1.4c1.4,0,2.6,0.5,3.4,1.4C1017,431,1017.4,432.3,1017.4,433.9
		z M1009.6,433.9c0,1.3,0.3,2.3,0.8,3c0.5,0.7,1.3,1,2.3,1s1.8-0.3,2.3-1c0.5-0.7,0.8-1.7,0.8-3c0-1.3-0.3-2.3-0.8-2.9
		c-0.5-0.7-1.3-1-2.3-1c-1,0-1.8,0.3-2.3,1S1009.6,432.6,1009.6,433.9z"/>
	<path class="st1" d="M1026.3,439l-0.3-1.4h-0.1c-0.5,0.6-1,1.1-1.5,1.3c-0.5,0.2-1.1,0.3-1.9,0.3c-1,0-1.8-0.3-2.4-0.8
		c-0.6-0.5-0.9-1.3-0.9-2.2c0-2.1,1.6-3.1,4.9-3.2l1.7-0.1v-0.6c0-0.8-0.2-1.4-0.5-1.8c-0.3-0.4-0.9-0.6-1.6-0.6
		c-0.8,0-1.8,0.3-2.9,0.8l-0.5-1.2c0.5-0.3,1.1-0.5,1.6-0.6c0.6-0.2,1.2-0.2,1.8-0.2c1.2,0,2.1,0.3,2.7,0.8c0.6,0.5,0.9,1.4,0.9,2.6
		v6.9H1026.3z M1022.9,437.9c1,0,1.7-0.3,2.3-0.8c0.5-0.5,0.8-1.3,0.8-2.2V434l-1.5,0.1c-1.2,0-2.1,0.2-2.6,0.6
		c-0.5,0.3-0.8,0.9-0.8,1.6c0,0.6,0.2,1,0.5,1.3S1022.2,437.9,1022.9,437.9z"/>
	<path class="st1" d="M1037.6,437.6L1037.6,437.6c-0.8,1-1.9,1.5-3.3,1.5c-1.3,0-2.4-0.5-3.1-1.4c-0.7-0.9-1.1-2.2-1.1-3.9
		c0-1.7,0.4-3,1.1-3.9s1.8-1.4,3.1-1.4c1.4,0,2.4,0.5,3.2,1.5h0.1l-0.1-0.7l0-0.7v-4.1h1.5V439h-1.3L1037.6,437.6z M1034.5,437.9
		c1.1,0,1.8-0.3,2.3-0.9s0.7-1.5,0.7-2.8v-0.3c0-1.4-0.2-2.5-0.7-3.1c-0.5-0.6-1.2-0.9-2.3-0.9c-0.9,0-1.6,0.4-2.1,1.1
		c-0.5,0.7-0.7,1.7-0.7,3c0,1.3,0.2,2.3,0.7,2.9C1032.9,437.6,1033.6,437.9,1034.5,437.9z"/>
	<path class="st1" d="M1049,433.4v5.6h-1.6v-13.6h3.7c1.7,0,2.9,0.3,3.7,1c0.8,0.6,1.2,1.6,1.2,2.9c0,1.8-0.9,3-2.7,3.6l3.7,6.1
		h-1.9l-3.3-5.6H1049z M1049,432h2.2c1.1,0,1.9-0.2,2.4-0.7s0.8-1.1,0.8-2c0-0.9-0.3-1.5-0.8-1.9c-0.5-0.4-1.4-0.6-2.5-0.6h-2.1V432
		z"/>
	<path class="st1" d="M1063.3,439.2c-1.5,0-2.7-0.5-3.6-1.4s-1.3-2.2-1.3-3.8c0-1.6,0.4-2.9,1.2-3.9c0.8-1,1.9-1.4,3.3-1.4
		c1.3,0,2.3,0.4,3,1.3c0.7,0.8,1.1,1.9,1.1,3.3v1h-7c0,1.2,0.3,2.1,0.9,2.7c0.6,0.6,1.4,0.9,2.4,0.9c1.1,0,2.2-0.2,3.2-0.7v1.4
		c-0.5,0.2-1.1,0.4-1.5,0.5C1064.5,439.1,1063.9,439.2,1063.3,439.2z M1062.8,429.9c-0.8,0-1.5,0.3-2,0.8c-0.5,0.5-0.8,1.3-0.9,2.2
		h5.3c0-1-0.2-1.7-0.6-2.2C1064.3,430.2,1063.6,429.9,1062.8,429.9z"/>
	<path class="st1" d="M1074.4,439.2c-0.7,0-1.3-0.1-1.8-0.4s-1-0.6-1.4-1.1h-0.1c0.1,0.6,0.1,1.2,0.1,1.7v4.2h-1.5v-14.7h1.3
		l0.2,1.4h0.1c0.4-0.6,0.9-1,1.4-1.2c0.5-0.2,1.1-0.4,1.8-0.4c1.3,0,2.4,0.5,3.1,1.4c0.7,0.9,1.1,2.2,1.1,3.9c0,1.7-0.4,3-1.1,3.9
		C1076.7,438.7,1075.7,439.2,1074.4,439.2z M1074.1,430c-1,0-1.8,0.3-2.3,0.9s-0.7,1.5-0.7,2.7v0.3c0,1.4,0.2,2.5,0.7,3.1
		c0.5,0.6,1.2,0.9,2.3,0.9c0.9,0,1.6-0.4,2.1-1.1c0.5-0.7,0.7-1.7,0.7-2.9c0-1.3-0.2-2.2-0.7-2.9C1075.7,430.3,1075,430,1074.1,430z
		"/>
	<path class="st1" d="M1090,433.9c0,1.7-0.4,3-1.3,3.9c-0.8,0.9-2,1.4-3.5,1.4c-0.9,0-1.7-0.2-2.4-0.6c-0.7-0.4-1.2-1-1.6-1.8
		c-0.4-0.8-0.6-1.7-0.6-2.8c0-1.7,0.4-2.9,1.2-3.9c0.8-0.9,2-1.4,3.5-1.4c1.4,0,2.6,0.5,3.4,1.4C1089.6,431,1090,432.3,1090,433.9z
		 M1082.3,433.9c0,1.3,0.3,2.3,0.8,3c0.5,0.7,1.3,1,2.3,1s1.8-0.3,2.3-1c0.5-0.7,0.8-1.7,0.8-3c0-1.3-0.3-2.3-0.8-2.9
		c-0.5-0.7-1.3-1-2.3-1c-1,0-1.8,0.3-2.3,1S1082.3,432.6,1082.3,433.9z"/>
	<path class="st1" d="M1097.4,428.6c0.5,0,0.9,0,1.2,0.1l-0.2,1.4c-0.4-0.1-0.8-0.1-1.1-0.1c-0.8,0-1.5,0.3-2.1,1
		c-0.6,0.7-0.9,1.5-0.9,2.5v5.5h-1.5v-10.2h1.3l0.2,1.9h0.1c0.4-0.7,0.8-1.2,1.4-1.5S1096.7,428.6,1097.4,428.6z"/>
	<path class="st1" d="M1103.8,437.9c0.3,0,0.5,0,0.8-0.1c0.3,0,0.5-0.1,0.6-0.1v1.2c-0.2,0.1-0.4,0.1-0.7,0.2
		c-0.3,0.1-0.6,0.1-0.9,0.1c-2,0-3-1-3-3.1v-6h-1.5v-0.7l1.5-0.6l0.7-2.2h0.9v2.4h2.9v1.2h-2.9v6c0,0.6,0.1,1.1,0.4,1.4
		S1103.3,437.9,1103.8,437.9z"/>
	<path class="st1" d="M1113.8,436.2c0,0.9-0.4,1.7-1.1,2.2c-0.7,0.5-1.7,0.8-3,0.8c-1.3,0-2.4-0.2-3.2-0.6v-1.4
		c0.5,0.2,1,0.4,1.6,0.6s1.1,0.2,1.6,0.2c0.8,0,1.4-0.1,1.9-0.4c0.4-0.3,0.7-0.6,0.7-1.2c0-0.4-0.2-0.7-0.5-1c-0.3-0.3-1-0.6-2-1
		c-0.9-0.4-1.6-0.7-2-0.9c-0.4-0.3-0.7-0.6-0.9-0.9c-0.2-0.3-0.3-0.7-0.3-1.2c0-0.8,0.3-1.5,1-2c0.7-0.5,1.6-0.7,2.8-0.7
		c1.1,0,2.2,0.2,3.2,0.7l-0.5,1.3c-1-0.4-1.9-0.6-2.8-0.6c-0.7,0-1.3,0.1-1.7,0.3s-0.6,0.5-0.6,0.9c0,0.3,0.1,0.5,0.2,0.7
		c0.1,0.2,0.4,0.4,0.7,0.5c0.3,0.2,0.9,0.4,1.8,0.8c1.2,0.4,2,0.9,2.4,1.3C1113.6,435,1113.8,435.6,1113.8,436.2z"/>
</g>
<g id="Rectangle_616" transform="translate(97.605 2525.024)">
	<rect x="-97.6" y="-2388" class="st2" width="148.6" height="128"/>
	<rect x="-97.1" y="-2387.5" class="st3" width="147.6" height="127"/>
</g>
<path id="Path_6463" class="st1" d="M20.3,168.3h108c1.5,0.2,2.9-0.9,3.1-2.4s-0.9-2.9-2.4-3.1c-0.2,0-0.5,0-0.7,0h-108
	c-1.5-0.2-2.9,0.9-3.1,2.4s0.9,2.9,2.4,3.1C19.8,168.3,20.1,168.3,20.3,168.3L20.3,168.3z"/>
<path id="Path_6796" class="st1" d="M20.3,182.1h108c1.5,0.2,2.9-0.9,3.1-2.4s-0.9-2.9-2.4-3.1c-0.2,0-0.5,0-0.7,0h-108
	c-1.5-0.2-2.9,0.9-3.1,2.4s0.9,2.9,2.4,3.1C19.8,182.1,20.1,182.1,20.3,182.1L20.3,182.1z"/>
<path id="Path_6797" class="st1" d="M20.3,197.2h108c1.5,0.2,2.9-0.9,3.1-2.4s-0.9-2.9-2.4-3.1c-0.2,0-0.5,0-0.7,0h-108
	c-1.5-0.2-2.9,0.9-3.1,2.4s0.9,2.9,2.4,3.1C19.8,197.3,20.1,197.3,20.3,197.2L20.3,197.2z"/>
<path id="Path_6798" class="st1" d="M81.2,211H130c0.8,0,1.4-1.2,1.4-2.8c0-1.5-0.6-2.8-1.4-2.8H81.2c-0.8,0-1.4,1.2-1.4,2.8
	C79.8,209.8,80.4,211,81.2,211z"/>
<rect id="Rectangle_751" x="17.1" y="217.8" class="st1" width="114.3" height="22"/>
<text transform="matrix(1 0 0 1 59.874 232.3574)" class="st4 st5 st6">Sign Up</text>
<g class="st0">
	<path class="st1" d="M49,291.2c0,1.2-0.4,2.1-1.3,2.8c-0.9,0.7-2,1-3.5,1c-1.6,0-2.8-0.2-3.7-0.6v-1.5c0.6,0.2,1.2,0.4,1.8,0.6
		c0.7,0.1,1.3,0.2,1.9,0.2c1.1,0,1.8-0.2,2.4-0.6c0.5-0.4,0.8-1,0.8-1.7c0-0.5-0.1-0.9-0.3-1.2c-0.2-0.3-0.5-0.6-0.9-0.8
		c-0.4-0.3-1.1-0.5-2-0.9c-1.3-0.5-2.2-1-2.7-1.6c-0.5-0.6-0.8-1.4-0.8-2.4c0-1,0.4-1.9,1.2-2.5c0.8-0.6,1.8-0.9,3.1-0.9
		c1.3,0,2.6,0.2,3.7,0.7l-0.5,1.4c-1.1-0.5-2.2-0.7-3.3-0.7c-0.8,0-1.5,0.2-2,0.5c-0.5,0.4-0.7,0.9-0.7,1.5c0,0.5,0.1,0.9,0.3,1.2
		c0.2,0.3,0.5,0.6,0.9,0.8c0.4,0.3,1,0.5,1.9,0.8c1.4,0.5,2.4,1.1,2.9,1.6C48.7,289.5,49,290.2,49,291.2z"/>
	<path class="st1" d="M51.4,281.9c0-0.4,0.1-0.6,0.3-0.8c0.2-0.2,0.4-0.2,0.6-0.2c0.2,0,0.5,0.1,0.6,0.2c0.2,0.2,0.3,0.4,0.3,0.8
		c0,0.3-0.1,0.6-0.3,0.8c-0.2,0.2-0.4,0.3-0.6,0.3c-0.3,0-0.5-0.1-0.6-0.3C51.5,282.5,51.4,282.2,51.4,281.9z M53.1,294.8h-1.5
		v-10.2h1.5V294.8z"/>
	<path class="st1" d="M64.7,284.6v1l-1.9,0.2c0.2,0.2,0.3,0.5,0.5,0.8c0.1,0.3,0.2,0.7,0.2,1.2c0,1-0.3,1.8-1,2.4
		c-0.7,0.6-1.6,0.9-2.8,0.9c-0.3,0-0.6,0-0.9-0.1c-0.7,0.3-1,0.8-1,1.3c0,0.3,0.1,0.5,0.3,0.6c0.2,0.1,0.6,0.2,1.2,0.2h1.8
		c1.1,0,1.9,0.2,2.5,0.7c0.6,0.5,0.9,1.1,0.9,2c0,1.1-0.5,2-1.4,2.6c-0.9,0.6-2.2,0.9-4,0.9c-1.3,0-2.4-0.2-3.1-0.7
		c-0.7-0.5-1.1-1.2-1.1-2.1c0-0.6,0.2-1.2,0.6-1.6c0.4-0.5,1-0.8,1.7-0.9c-0.3-0.1-0.5-0.3-0.7-0.5c-0.2-0.2-0.3-0.5-0.3-0.9
		c0-0.4,0.1-0.7,0.3-1c0.2-0.3,0.5-0.5,0.9-0.8c-0.5-0.2-1-0.6-1.3-1.1c-0.3-0.5-0.5-1.1-0.5-1.8c0-1.1,0.3-2,1-2.6
		c0.7-0.6,1.6-0.9,2.8-0.9c0.5,0,1,0.1,1.4,0.2H64.7z M56.6,296.5c0,0.6,0.2,1,0.7,1.3c0.5,0.3,1.1,0.4,2,0.4c1.3,0,2.2-0.2,2.9-0.6
		c0.6-0.4,0.9-0.9,0.9-1.6c0-0.6-0.2-0.9-0.5-1.1c-0.3-0.2-1-0.3-1.9-0.3h-1.8c-0.7,0-1.2,0.2-1.6,0.5S56.6,295.9,56.6,296.5z
		 M57.4,287.9c0,0.7,0.2,1.2,0.6,1.6c0.4,0.4,1,0.5,1.7,0.5c1.5,0,2.3-0.7,2.3-2.2c0-1.5-0.8-2.3-2.3-2.3c-0.7,0-1.3,0.2-1.7,0.6
		S57.4,287.1,57.4,287.9z"/>
	<path class="st1" d="M73.7,294.8v-6.6c0-0.8-0.2-1.4-0.6-1.9c-0.4-0.4-1-0.6-1.8-0.6c-1.1,0-1.8,0.3-2.3,0.9
		c-0.5,0.6-0.7,1.5-0.7,2.8v5.3h-1.5v-10.2H68l0.3,1.4h0.1c0.3-0.5,0.8-0.9,1.3-1.2c0.6-0.3,1.2-0.4,1.9-0.4c1.2,0,2.1,0.3,2.8,0.9
		c0.6,0.6,0.9,1.5,0.9,2.8v6.6H73.7z"/>
	<path class="st1" d="M93.8,281.2v8.8c0,1.5-0.5,2.8-1.4,3.6c-0.9,0.9-2.2,1.3-3.9,1.3s-2.9-0.4-3.8-1.3c-0.9-0.9-1.3-2.1-1.3-3.7
		v-8.7H85v8.9c0,1.1,0.3,2,0.9,2.6c0.6,0.6,1.5,0.9,2.7,0.9c1.1,0,2-0.3,2.6-0.9c0.6-0.6,0.9-1.5,0.9-2.6v-8.8H93.8z"/>
	<path class="st1" d="M101.9,295c-0.7,0-1.3-0.1-1.8-0.4c-0.5-0.2-1-0.6-1.4-1.1h-0.1c0.1,0.6,0.1,1.2,0.1,1.7v4.2h-1.5v-14.7h1.3
		l0.2,1.4h0.1c0.4-0.6,0.9-1,1.4-1.2c0.5-0.2,1.1-0.4,1.8-0.4c1.3,0,2.4,0.5,3.1,1.4c0.7,0.9,1.1,2.2,1.1,3.9c0,1.7-0.4,3-1.1,3.9
		C104.3,294.5,103.3,295,101.9,295z M101.7,285.7c-1,0-1.8,0.3-2.3,0.9s-0.7,1.5-0.7,2.7v0.3c0,1.4,0.2,2.5,0.7,3.1
		c0.5,0.6,1.2,0.9,2.3,0.9c0.9,0,1.6-0.4,2.1-1.1c0.5-0.7,0.7-1.7,0.7-2.9c0-1.3-0.2-2.2-0.7-2.9
		C103.3,286.1,102.6,285.7,101.7,285.7z"/>
</g>
<path id="Path_6799" class="st7" d="M271.1,149.7v19.5l11-9.8L271.1,149.7z"/>
<path id="Path_6801" class="st7" d="M170,196.2v11.9l6.7-6L170,196.2z"/>
<line id="Line_357" class="st3" x1="197.8" y1="159.8" x2="210.9" y2="159.8"/>
<line id="Line_358" class="st3" x1="179.4" y1="159.8" x2="192.5" y2="159.8"/>
<path id="Path_6800" class="st8" d="M220.1,159.8h42.1"/>
<path id="Path_6799-2" class="st7" d="M271.1,270.9v19.5l11-9.8L271.1,270.9z"/>
<line id="Line_357-2" class="st3" x1="197.8" y1="281" x2="210.9" y2="281"/>
<line id="Line_358-2" class="st3" x1="179.4" y1="281" x2="192.5" y2="281"/>
<path id="Path_6800-2" class="st8" d="M220.1,281h42.1"/>
<path id="Path_6799-3" class="st7" d="M271.1,393.5V413l11-9.8L271.1,393.5z"/>
<line id="Line_357-3" class="st3" x1="197.8" y1="403.6" x2="210.9" y2="403.6"/>
<line id="Line_358-3" class="st3" x1="179.4" y1="403.6" x2="192.5" y2="403.6"/>
<path id="Path_6800-3" class="st8" d="M220.1,403.6h42.1"/>
<path id="Path_6799-4" class="st7" d="M271.1,27v19.5l11-9.8L271.1,27z"/>
<line id="Line_357-4" class="st3" x1="197.8" y1="37.2" x2="210.9" y2="37.2"/>
<line id="Line_358-4" class="st3" x1="179.4" y1="37.2" x2="192.5" y2="37.2"/>
<path id="Path_6800-4" class="st9" d="M220.1,37.2h42.1"/>
<g id="Group_987" transform="translate(10 1.921)">
	<path id="Path_6882" class="st7" d="M515.1,147.7v19.5l11-9.8L515.1,147.7z"/>
	<line id="Line_377" class="st3" x1="441.8" y1="157.8" x2="454.9" y2="157.8"/>
	<path id="Path_6881" class="st8" d="M464.1,157.8h42.1"/>
	<path id="Path_6883" class="st7" d="M515.1,268.9v19.5l11-9.8L515.1,268.9z"/>
	<line id="Line_378" class="st3" x1="441.8" y1="279" x2="454.9" y2="279"/>
	<path id="Path_6885" class="st8" d="M464.1,279h42.1"/>
	<path id="Path_6886" class="st7" d="M515.1,391.5V411l11-9.8L515.1,391.5z"/>
	<line id="Line_379" class="st3" x1="441.8" y1="401.6" x2="454.9" y2="401.6"/>
	<path id="Path_6887" class="st8" d="M464.1,401.6h42.1"/>
	<path id="Path_6884" class="st7" d="M515.1,25.1v19.5l11-9.8L515.1,25.1z"/>
	<line id="Line_376" class="st3" x1="441.8" y1="35.2" x2="454.9" y2="35.2"/>
	<path id="Path_6880" class="st9" d="M464.1,35.2h42.1"/>
</g>
<g id="Group_997" transform="translate(371 1.921)">
	<path id="Path_6882-2" class="st7" d="M515.1,147.7v19.5l11-9.8L515.1,147.7z"/>
	<line id="Line_377-2" class="st3" x1="441.8" y1="157.8" x2="454.9" y2="157.8"/>
	<path id="Path_6881-2" class="st8" d="M464.1,157.8h42.1"/>
	<path id="Path_6883-2" class="st7" d="M515.1,268.9v19.5l11-9.8L515.1,268.9z"/>
	<line id="Line_378-2" class="st3" x1="441.8" y1="279" x2="454.9" y2="279"/>
	<path id="Path_6885-2" class="st8" d="M464.1,279h42.1"/>
	<path id="Path_6886-2" class="st7" d="M515.1,391.5V411l11-9.8L515.1,391.5z"/>
	<line id="Line_379-2" class="st3" x1="441.8" y1="401.6" x2="454.9" y2="401.6"/>
	<path id="Path_6887-2" class="st8" d="M464.1,401.6h42.1"/>
	<path id="Path_6884-2" class="st7" d="M515.1,25.1v19.5l11-9.8L515.1,25.1z"/>
	<line id="Line_376-2" class="st3" x1="441.8" y1="35.2" x2="454.9" y2="35.2"/>
	<path id="Path_6880-2" class="st9" d="M464.1,35.2h42.1"/>
</g>
<line id="Line_370" class="st3" x1="178.9" y1="37.1" x2="178.9" y2="403.6"/>
<line id="Line_371" class="st3" x1="148.6" y1="201.1" x2="169.3" y2="201.1"/>
<g class="st0">
	<path class="st1" d="M328.1,53.7c-1.5,0-2.7,0.5-3.5,1.5c-0.9,1-1.3,2.4-1.3,4.1c0,1.8,0.4,3.1,1.2,4.1c0.8,1,2,1.5,3.6,1.5
		c0.9,0,2-0.2,3.2-0.5v1.4c-0.9,0.4-2.1,0.5-3.5,0.5c-2,0-3.5-0.6-4.6-1.8c-1.1-1.2-1.6-2.9-1.6-5.2c0-1.4,0.3-2.6,0.8-3.7
		c0.5-1.1,1.3-1.9,2.3-2.4c1-0.6,2.1-0.9,3.5-0.9c1.4,0,2.7,0.3,3.7,0.8l-0.7,1.4C330.1,53.9,329.1,53.7,328.1,53.7z"/>
	<path class="st1" d="M340.3,66l-0.3-1.4h-0.1c-0.5,0.6-1,1.1-1.5,1.3c-0.5,0.2-1.1,0.3-1.9,0.3c-1,0-1.8-0.3-2.4-0.8
		c-0.6-0.5-0.9-1.3-0.9-2.2c0-2.1,1.6-3.1,4.9-3.2l1.7-0.1v-0.6c0-0.8-0.2-1.4-0.5-1.8c-0.3-0.4-0.9-0.6-1.6-0.6
		c-0.8,0-1.8,0.3-2.9,0.8l-0.5-1.2c0.5-0.3,1-0.5,1.6-0.6c0.6-0.2,1.2-0.2,1.8-0.2c1.2,0,2.1,0.3,2.7,0.8c0.6,0.5,0.9,1.4,0.9,2.6
		V66H340.3z M336.8,64.9c1,0,1.7-0.3,2.3-0.8c0.5-0.5,0.8-1.3,0.8-2.2V61l-1.5,0.1c-1.2,0-2.1,0.2-2.6,0.6c-0.5,0.3-0.8,0.9-0.8,1.6
		c0,0.6,0.2,1,0.5,1.3C335.7,64.8,336.2,64.9,336.8,64.9z"/>
	<path class="st1" d="M347.9,64.9c0.3,0,0.5,0,0.8-0.1c0.3,0,0.5-0.1,0.6-0.1v1.2c-0.2,0.1-0.4,0.1-0.7,0.2
		c-0.3,0.1-0.6,0.1-0.9,0.1c-2,0-3-1-3-3.1v-6h-1.5v-0.7l1.5-0.6l0.6-2.2h0.9v2.4h3V57h-3v6c0,0.6,0.1,1.1,0.4,1.4
		C347,64.8,347.4,64.9,347.9,64.9z"/>
	<path class="st1" d="M357.5,66l-0.3-1.4h-0.1c-0.5,0.6-1,1.1-1.5,1.3c-0.5,0.2-1.1,0.3-1.9,0.3c-1,0-1.8-0.3-2.4-0.8
		c-0.6-0.5-0.9-1.3-0.9-2.2c0-2.1,1.6-3.1,4.9-3.2l1.7-0.1v-0.6c0-0.8-0.2-1.4-0.5-1.8c-0.3-0.4-0.9-0.6-1.6-0.6
		c-0.8,0-1.8,0.3-2.9,0.8l-0.5-1.2c0.5-0.3,1-0.5,1.6-0.6c0.6-0.2,1.2-0.2,1.8-0.2c1.2,0,2.1,0.3,2.7,0.8c0.6,0.5,0.9,1.4,0.9,2.6
		V66H357.5z M354.1,64.9c1,0,1.7-0.3,2.3-0.8c0.5-0.5,0.8-1.3,0.8-2.2V61l-1.5,0.1c-1.2,0-2.1,0.2-2.6,0.6c-0.5,0.3-0.8,0.9-0.8,1.6
		c0,0.6,0.2,1,0.5,1.3C353,64.8,353.5,64.9,354.1,64.9z"/>
	<path class="st1" d="M363.4,66h-1.5V51.6h1.5V66z"/>
	<path class="st1" d="M375.4,60.9c0,1.7-0.4,3-1.3,3.9c-0.8,0.9-2,1.4-3.5,1.4c-0.9,0-1.7-0.2-2.4-0.6c-0.7-0.4-1.2-1-1.6-1.8
		c-0.4-0.8-0.6-1.7-0.6-2.8c0-1.7,0.4-2.9,1.2-3.9c0.8-0.9,2-1.4,3.5-1.4c1.4,0,2.6,0.5,3.4,1.4C375,58,375.4,59.3,375.4,60.9z
		 M367.7,60.9c0,1.3,0.3,2.3,0.8,3c0.5,0.7,1.3,1,2.3,1c1,0,1.8-0.3,2.3-1c0.5-0.7,0.8-1.7,0.8-3c0-1.3-0.3-2.3-0.8-2.9
		c-0.5-0.7-1.3-1-2.3-1c-1,0-1.8,0.3-2.3,1C367.9,58.6,367.7,59.6,367.7,60.9z"/>
	<path class="st1" d="M386.5,55.8v1l-1.9,0.2c0.2,0.2,0.3,0.5,0.5,0.8c0.1,0.3,0.2,0.7,0.2,1.2c0,1-0.3,1.8-1,2.4
		c-0.7,0.6-1.6,0.9-2.8,0.9c-0.3,0-0.6,0-0.9-0.1c-0.7,0.3-1,0.8-1,1.3c0,0.3,0.1,0.5,0.3,0.6c0.2,0.1,0.6,0.2,1.2,0.2h1.8
		c1.1,0,1.9,0.2,2.5,0.7c0.6,0.5,0.9,1.1,0.9,2c0,1.1-0.5,2-1.4,2.6c-0.9,0.6-2.2,0.9-4,0.9c-1.3,0-2.4-0.2-3.1-0.7
		c-0.7-0.5-1.1-1.2-1.1-2.1c0-0.6,0.2-1.2,0.6-1.6c0.4-0.5,1-0.8,1.7-0.9c-0.3-0.1-0.5-0.3-0.7-0.5c-0.2-0.2-0.3-0.5-0.3-0.9
		c0-0.4,0.1-0.7,0.3-1c0.2-0.3,0.5-0.5,0.9-0.8c-0.5-0.2-1-0.6-1.3-1.1c-0.3-0.5-0.5-1.1-0.5-1.8c0-1.1,0.3-2,1-2.6
		c0.7-0.6,1.6-0.9,2.8-0.9c0.5,0,1,0.1,1.4,0.2H386.5z M378.4,67.7c0,0.6,0.2,1,0.7,1.3c0.5,0.3,1.1,0.4,2,0.4
		c1.3,0,2.2-0.2,2.9-0.6c0.6-0.4,0.9-0.9,0.9-1.6c0-0.6-0.2-0.9-0.5-1.1c-0.3-0.2-1-0.3-1.9-0.3h-1.8c-0.7,0-1.2,0.2-1.6,0.5
		S378.4,67.1,378.4,67.7z M379.2,59.1c0,0.7,0.2,1.2,0.6,1.6c0.4,0.4,1,0.5,1.7,0.5c1.5,0,2.3-0.7,2.3-2.2c0-1.5-0.8-2.3-2.3-2.3
		c-0.7,0-1.3,0.2-1.7,0.6S379.2,58.3,379.2,59.1z"/>
	<path class="st1" d="M390,55.8v6.6c0,0.8,0.2,1.4,0.6,1.9c0.4,0.4,1,0.6,1.8,0.6c1.1,0,1.8-0.3,2.3-0.9c0.5-0.6,0.7-1.5,0.7-2.8
		v-5.3h1.5V66h-1.3l-0.2-1.4h-0.1c-0.3,0.5-0.8,0.9-1.3,1.2c-0.6,0.3-1.2,0.4-1.9,0.4c-1.2,0-2.2-0.3-2.8-0.9
		c-0.6-0.6-0.9-1.5-0.9-2.8v-6.7H390z"/>
	<path class="st1" d="M404.5,66.2c-1.5,0-2.7-0.5-3.6-1.4c-0.9-0.9-1.3-2.2-1.3-3.8c0-1.6,0.4-2.9,1.2-3.9c0.8-1,1.9-1.4,3.3-1.4
		c1.3,0,2.3,0.4,3,1.3c0.7,0.8,1.1,1.9,1.1,3.3v1h-7c0,1.2,0.3,2.1,0.9,2.7c0.6,0.6,1.4,0.9,2.4,0.9c1.1,0,2.2-0.2,3.2-0.7v1.4
		c-0.5,0.2-1.1,0.4-1.5,0.5C405.8,66.1,405.2,66.2,404.5,66.2z M404.1,56.9c-0.8,0-1.5,0.3-2,0.8c-0.5,0.5-0.8,1.3-0.9,2.2h5.3
		c0-1-0.2-1.7-0.6-2.2C405.5,57.2,404.9,56.9,404.1,56.9z"/>
</g>
<g id="Group_978" transform="translate(130 108.82)">
	<path id="Path_6838" class="st1" d="M253.4-91.2c-0.2-0.5-0.7-0.7-1.1-0.5l0,0l-8.2,3l6.6-6.6c0.3-0.3,0.3-0.9,0-1.2l-5.1-5.1
		c-0.3-0.3-0.9-0.3-1.2,0l0,0l-6.5,6.5l3.6-8.6c0.1-0.2,0.1-0.5,0-0.7s-0.3-0.4-0.5-0.5l-6.6-2.8c-0.4-0.2-0.9,0-1.1,0.5l0,0
		l-3.6,8.5v-9.1c0-0.5-0.4-0.9-0.9-0.9h-7.5c-0.5,0-0.9,0.4-0.9,0.9v33.2c0,0.5,0.4,0.9,0.9,0.9h7.5c0.1,0,0.2,0,0.3-0.1
		c0.2,0.1,0.4,0.1,0.6,0l25.6-9.4c0.5-0.2,0.7-0.7,0.5-1.1L253.4-91.2z M225.5-75.6h-3.4v-31.5h5.8v31.5H225.5z M239.6-103.8
		L234.7-92l-0.9,2.1l-0.9,2.1l-1.5,3.6l-0.9,2.2l-0.7,1.7v-14.2l4.8-11.6L239.6-103.8z M232.6-82.7l0.9-2.2l2.6-6.1l8.9-8.9l3.9,3.9
		l-8.6,8.7l-2.9,2.9l-6.8,6.8L232.6-82.7z M232-76.6l9.2-9.2l10.9-4l1.9,5.2L232-76.6z"/>
	<path id="Path_6839" class="st1" d="M225-79.2L225-79.2c-0.4,0-0.7,0.2-0.9,0.4c-0.4,0.4-0.4,1.1-0.1,1.6c0.2,0.3,0.6,0.5,1,0.5
		c0.1,0,0.1,0,0.2,0c0.2,0,0.5-0.1,0.7-0.3c0.1-0.1,0.2-0.2,0.2-0.3c0.1-0.2,0.2-0.4,0.2-0.6V-78C226.3-78.6,225.7-79.2,225-79.2
		L225-79.2z"/>
</g>
<g class="st0">
	<path class="st1" d="M346.9,184.4c0,1.4-0.5,2.4-1.4,3.2c-0.9,0.7-2.3,1.1-4,1.1h-1.6v5.3h-1.6v-13.6h3.5
		C345.2,180.4,346.9,181.8,346.9,184.4z M339.8,187.3h1.4c1.4,0,2.4-0.2,3-0.7c0.6-0.5,0.9-1.2,0.9-2.2c0-0.9-0.3-1.6-0.9-2
		c-0.6-0.4-1.5-0.7-2.7-0.7h-1.8V187.3z"/>
	<path class="st1" d="M354.1,183.6c0.5,0,0.9,0,1.2,0.1l-0.2,1.4c-0.4-0.1-0.8-0.1-1.1-0.1c-0.8,0-1.5,0.3-2.1,1
		c-0.6,0.7-0.9,1.5-0.9,2.5v5.5h-1.5v-10.2h1.3l0.2,1.9h0.1c0.4-0.7,0.8-1.2,1.4-1.5C352.9,183.8,353.5,183.6,354.1,183.6z"/>
	<path class="st1" d="M366,188.9c0,1.7-0.4,3-1.3,3.9c-0.8,0.9-2,1.4-3.5,1.4c-0.9,0-1.7-0.2-2.4-0.6c-0.7-0.4-1.2-1-1.6-1.8
		c-0.4-0.8-0.6-1.7-0.6-2.8c0-1.7,0.4-2.9,1.2-3.9c0.8-0.9,2-1.4,3.5-1.4c1.4,0,2.6,0.5,3.4,1.4C365.6,186,366,187.3,366,188.9z
		 M358.3,188.9c0,1.3,0.3,2.3,0.8,3c0.5,0.7,1.3,1,2.3,1c1,0,1.8-0.3,2.3-1c0.5-0.7,0.8-1.7,0.8-3c0-1.3-0.3-2.3-0.8-2.9
		c-0.5-0.7-1.3-1-2.3-1c-1,0-1.8,0.3-2.3,1C358.5,186.6,358.3,187.6,358.3,188.9z"/>
	<path class="st1" d="M373.3,185h-2.6v9h-1.5v-9h-1.8v-0.7l1.8-0.6v-0.6c0-2.5,1.1-3.7,3.3-3.7c0.5,0,1.2,0.1,1.9,0.3l-0.4,1.2
		c-0.6-0.2-1.1-0.3-1.5-0.3c-0.6,0-1,0.2-1.3,0.6s-0.4,1-0.4,1.9v0.7h2.6V185z M376.7,194h-1.5v-14.4h1.5V194z"/>
	<path class="st1" d="M384.2,194.2c-1.5,0-2.7-0.5-3.6-1.4c-0.9-0.9-1.3-2.2-1.3-3.8c0-1.6,0.4-2.9,1.2-3.9c0.8-1,1.9-1.4,3.3-1.4
		c1.3,0,2.3,0.4,3,1.3c0.7,0.8,1.1,1.9,1.1,3.3v1h-7c0,1.2,0.3,2.1,0.9,2.7c0.6,0.6,1.4,0.9,2.4,0.9c1.1,0,2.2-0.2,3.2-0.7v1.4
		c-0.5,0.2-1.1,0.4-1.5,0.5C385.5,194.1,384.9,194.2,384.2,194.2z M383.8,184.9c-0.8,0-1.5,0.3-2,0.8c-0.5,0.5-0.8,1.3-0.9,2.2h5.3
		c0-1-0.2-1.7-0.6-2.2C385.2,185.2,384.6,184.9,383.8,184.9z"/>
</g>
<g id="Group_980" transform="translate(-4662 145)">
	<path id="Path_6864" class="st1" d="M5034.3-9h-18.9v35h27.4V-0.5L5034.3-9z M5034.6-7l6.2,6.2h-6.2V-7z M5016.6,24.8V-7.9h16.9
		v8.2h8.2v24.5H5016.6z"/>
	<path id="Path_6865" class="st1" d="M5031.7,12.6c0.3,0,0.6-0.3,0.6-0.6s-0.3-0.6-0.6-0.6h-9.9c-0.3,0-0.6,0.3-0.6,0.6
		s0.3,0.6,0.6,0.6H5031.7z"/>
	<path id="Path_6866" class="st1" d="M5037.6,8.5h-4.1c-0.3,0-0.6,0.3-0.6,0.6s0.3,0.6,0.6,0.6h4.1c0.3,0,0.6-0.3,0.6-0.6
		S5037.9,8.5,5037.6,8.5L5037.6,8.5L5037.6,8.5z"/>
	<path id="Path_6867" class="st1" d="M5024.1,9.1c0,0.3,0.3,0.6,0.6,0.6l0,0h5.8c0.3,0,0.6-0.3,0.6-0.6s-0.3-0.6-0.6-0.6l0,0h-5.8
		C5024.4,8.5,5024.1,8.8,5024.1,9.1L5024.1,9.1z"/>
	<path id="Path_6868" class="st1" d="M5021.4,8.7c-0.1,0.1-0.2,0.3-0.2,0.4c0,0.2,0.1,0.3,0.2,0.4s0.3,0.2,0.4,0.2
		c0.2,0,0.3-0.1,0.4-0.2c0.2-0.2,0.2-0.6,0-0.8C5022,8.5,5021.6,8.5,5021.4,8.7L5021.4,8.7z"/>
	<path id="Path_6869" class="st1" d="M5034.2,11.6c-0.1,0.1-0.2,0.3-0.2,0.4c0,0.2,0.1,0.3,0.2,0.4c0.2,0.2,0.6,0.2,0.8,0
		c0.1-0.1,0.2-0.3,0.2-0.4c0-0.3-0.3-0.6-0.6-0.6C5034.5,11.4,5034.3,11.5,5034.2,11.6L5034.2,11.6z"/>
	<path id="Path_6870" class="st1" d="M5037.1,11.6c-0.1,0.1-0.2,0.3-0.2,0.4c0,0.2,0.1,0.3,0.2,0.4s0.3,0.2,0.4,0.2
		c0.2,0,0.3-0.1,0.4-0.2s0.2-0.3,0.2-0.4c0-0.3-0.3-0.6-0.6-0.6C5037.4,11.4,5037.3,11.5,5037.1,11.6L5037.1,11.6z"/>
	<path id="Path_6871" class="st1" d="M5025,14.4c-1.1,0.7-1.8,1.9-1.9,3.3l-0.7-0.6c-0.6-0.5-1.4,0.3-0.8,0.8l1.6,1.4
		c0.2,0.2,0.6,0.2,0.8,0c0.1-0.1,0.2-0.2,0.2-0.4c0-1.3,0.1-2.8,1.4-3.4C5026.3,15.1,5025.7,14.1,5025,14.4z"/>
	<path id="Path_6872" class="st1" d="M5032.9,16.7c-0.9-0.1-2.1,1.3-2.8,0.1c-0.2-0.3-0.5-0.4-0.8-0.2c-0.8,0.5-1.9,1.2-2.8,0.3
		c-0.5-0.6-1.3,0.3-0.8,0.8c1.1,1.2,2.5,0.8,3.7,0.2c0.3,0.3,0.7,0.5,1.1,0.6c0.5,0.1,2.3-0.7,2.5-0.5c0.4,0.6,1.5,0,1-0.6
		C5033.7,17,5033.3,16.7,5032.9,16.7z"/>
	<path id="Path_6873" class="st1" d="M5028.3,5l0.4-0.3l-0.2-0.4c-0.2-0.4-0.5-0.7-0.8-0.9l-1.2-0.6c0.6-0.4,1-1,1.2-1.6
		c0.4-0.2,0.7-0.7,0.6-1.2v-0.4c0-0.4-0.2-0.8-0.5-1c-0.2-1.1-1-2.3-3.2-2.3c-0.1,0-0.2,0-0.3,0c-0.4,0-0.8,0-1.1-0.3
		c-0.1-0.1-0.2-0.2-0.3-0.3c-0.2-0.3-0.6-0.3-0.9-0.1c-0.2,0.1-0.3,0.4-0.2,0.6c0,0.2,0,0.3,0.1,0.5c0,0.1,0,0.2,0.1,0.3
		c0,0.1,0,0.1-0.1,0.2c0,0.1-0.1,0.2-0.2,0.3c-0.1,0.3-0.2,0.7-0.3,1c-0.3,0.3-0.5,0.6-0.5,1v0.4c0,0.5,0.2,0.9,0.7,1.2
		c0.2,0.7,0.6,1.2,1.2,1.6l-1.3,0.6c-0.4,0.2-0.6,0.5-0.8,0.9l-0.2,0.4l0.4,0.3C5023.1,6.6,5026.1,6.6,5028.3,5L5028.3,5z
		 M5022.1,4.4l1.4-0.7c0.3-0.1,0.5-0.5,0.5-0.8V2.1l-0.4-0.2c-0.6-0.3-0.9-0.8-1.1-1.4l-0.1-0.3l-0.3-0.1c-0.1,0-0.1-0.1-0.1-0.2
		v-0.4c0-0.1,0-0.1,0.1-0.2l0.3-0.1v-0.3c0-0.3,0.1-0.6,0.2-0.9c0.1-0.1,0.1-0.2,0.1-0.3c0.1-0.2,0.1-0.3,0.2-0.5
		c0.5,0.2,0.9,0.3,1.4,0.2c0.1,0,0.1,0,0.2,0c1.7,0,2,0.8,2.1,1.5v0.3l0.3,0.1c0.1,0,0.1,0.1,0.1,0.2v0.4c0,0.1-0.1,0.2-0.1,0.2
		l-0.3,0.1l-0.1,0.3c-0.1,0.6-0.5,1.1-1.1,1.3L5025,2v0.8c0,0.3,0.2,0.6,0.5,0.8l1.4,0.7C5025.5,5.2,5023.7,5.2,5022.1,4.4
		L5022.1,4.4z"/>
</g>
<g class="st0">
	<path class="st1" d="M321.9,307.3c0,1.2-0.4,2.1-1.3,2.8c-0.9,0.7-2,1-3.5,1c-1.6,0-2.8-0.2-3.7-0.6v-1.5c0.6,0.2,1.2,0.4,1.8,0.6
		c0.7,0.1,1.3,0.2,1.9,0.2c1.1,0,1.8-0.2,2.4-0.6c0.5-0.4,0.8-1,0.8-1.7c0-0.5-0.1-0.9-0.3-1.2c-0.2-0.3-0.5-0.6-0.9-0.8
		c-0.4-0.3-1.1-0.5-2-0.9c-1.3-0.5-2.2-1-2.7-1.6c-0.5-0.6-0.8-1.4-0.8-2.4c0-1,0.4-1.9,1.2-2.5c0.8-0.6,1.8-0.9,3.1-0.9
		c1.3,0,2.6,0.2,3.7,0.7l-0.5,1.4c-1.1-0.5-2.2-0.7-3.3-0.7c-0.8,0-1.5,0.2-2,0.5c-0.5,0.4-0.7,0.9-0.7,1.5c0,0.5,0.1,0.9,0.3,1.2
		c0.2,0.3,0.5,0.6,0.9,0.8c0.4,0.3,1,0.5,1.9,0.8c1.4,0.5,2.4,1.1,2.9,1.6C321.6,305.6,321.9,306.4,321.9,307.3z"/>
	<path class="st1" d="M325.9,300.7v6.6c0,0.8,0.2,1.4,0.6,1.9c0.4,0.4,1,0.6,1.8,0.6c1.1,0,1.8-0.3,2.3-0.9c0.5-0.6,0.7-1.5,0.7-2.8
		v-5.3h1.5v10.2h-1.3l-0.2-1.4h-0.1c-0.3,0.5-0.8,0.9-1.3,1.2c-0.6,0.3-1.2,0.4-1.9,0.4c-1.2,0-2.2-0.3-2.8-0.9
		c-0.6-0.6-0.9-1.5-0.9-2.8v-6.7H325.9z"/>
	<path class="st1" d="M340.8,300.6c1.3,0,2.4,0.5,3.1,1.4c0.7,0.9,1.1,2.2,1.1,3.9s-0.4,3-1.1,3.9c-0.7,0.9-1.8,1.4-3.1,1.4
		c-0.7,0-1.3-0.1-1.8-0.4c-0.5-0.2-1-0.6-1.4-1.1h-0.1l-0.3,1.3h-1.1v-14.4h1.5v3.5c0,0.8,0,1.5-0.1,2.1h0.1
		C338.4,301.1,339.4,300.6,340.8,300.6z M340.6,301.8c-1.1,0-1.8,0.3-2.3,0.9c-0.5,0.6-0.7,1.6-0.7,3c0,1.4,0.2,2.5,0.7,3.1
		c0.5,0.6,1.2,0.9,2.3,0.9c0.9,0,1.7-0.3,2.1-1c0.5-0.7,0.7-1.7,0.7-3c0-1.3-0.2-2.3-0.7-3S341.6,301.8,340.6,301.8z"/>
	<path class="st1" d="M354.3,308.1c0,0.9-0.4,1.7-1.1,2.2c-0.7,0.5-1.7,0.8-3,0.8c-1.3,0-2.4-0.2-3.2-0.6V309c0.5,0.2,1,0.4,1.6,0.6
		c0.6,0.1,1.1,0.2,1.6,0.2c0.8,0,1.4-0.1,1.9-0.4c0.4-0.3,0.6-0.6,0.6-1.2c0-0.4-0.2-0.7-0.5-1c-0.3-0.3-1-0.6-2-1
		c-0.9-0.4-1.6-0.7-2-0.9c-0.4-0.3-0.7-0.6-0.9-0.9c-0.2-0.3-0.3-0.7-0.3-1.2c0-0.8,0.3-1.5,1-2c0.7-0.5,1.6-0.7,2.8-0.7
		c1.1,0,2.2,0.2,3.2,0.7l-0.5,1.3c-1-0.4-1.9-0.6-2.8-0.6c-0.7,0-1.3,0.1-1.7,0.3s-0.6,0.5-0.6,0.9c0,0.3,0.1,0.5,0.2,0.7
		c0.1,0.2,0.4,0.4,0.7,0.5c0.3,0.2,0.9,0.4,1.8,0.8c1.2,0.4,2,0.9,2.4,1.3C354.1,306.9,354.3,307.4,354.3,308.1z"/>
	<path class="st1" d="M360.9,311.1c-1.5,0-2.6-0.5-3.4-1.4c-0.8-0.9-1.2-2.2-1.2-3.8c0-1.7,0.4-3,1.2-3.9c0.8-0.9,2-1.4,3.5-1.4
		c0.5,0,1,0.1,1.5,0.2c0.5,0.1,0.9,0.2,1.2,0.4l-0.5,1.3c-0.3-0.1-0.7-0.2-1.1-0.3c-0.4-0.1-0.8-0.1-1.1-0.1c-2.1,0-3.1,1.3-3.1,4
		c0,1.2,0.3,2.2,0.8,2.9c0.5,0.7,1.3,1,2.2,1c0.8,0,1.7-0.2,2.6-0.5v1.4C362.8,310.9,361.9,311.1,360.9,311.1z"/>
	<path class="st1" d="M370.5,300.5c0.5,0,0.9,0,1.2,0.1l-0.2,1.4c-0.4-0.1-0.8-0.1-1.1-0.1c-0.8,0-1.5,0.3-2.1,1
		c-0.6,0.7-0.9,1.5-0.9,2.5v5.5h-1.5v-10.2h1.3l0.2,1.9h0.1c0.4-0.7,0.8-1.2,1.4-1.5C369.3,300.7,369.9,300.5,370.5,300.5z"/>
	<path class="st1" d="M373.5,298c0-0.4,0.1-0.6,0.3-0.8c0.2-0.2,0.4-0.2,0.6-0.2c0.2,0,0.5,0.1,0.6,0.2c0.2,0.2,0.3,0.4,0.3,0.8
		c0,0.3-0.1,0.6-0.3,0.8c-0.2,0.2-0.4,0.3-0.6,0.3c-0.3,0-0.5-0.1-0.6-0.3C373.6,298.6,373.5,298.3,373.5,298z M375.2,310.9h-1.5
		v-10.2h1.5V310.9z"/>
	<path class="st1" d="M383.2,311.1c-0.7,0-1.3-0.1-1.8-0.4c-0.5-0.2-1-0.6-1.4-1.1h-0.1c0.1,0.6,0.1,1.2,0.1,1.7v4.2h-1.5v-14.7h1.3
		l0.2,1.4h0.1c0.4-0.6,0.9-1,1.4-1.2c0.5-0.2,1.1-0.4,1.8-0.4c1.3,0,2.4,0.5,3.1,1.4c0.7,0.9,1.1,2.2,1.1,3.9c0,1.7-0.4,3-1.1,3.9
		C385.5,310.6,384.5,311.1,383.2,311.1z M382.9,301.8c-1,0-1.8,0.3-2.3,0.9s-0.7,1.5-0.7,2.7v0.3c0,1.4,0.2,2.5,0.7,3.1
		c0.5,0.6,1.2,0.9,2.3,0.9c0.9,0,1.6-0.4,2.1-1.1c0.5-0.7,0.7-1.7,0.7-2.9c0-1.3-0.2-2.2-0.7-2.9
		C384.5,302.2,383.8,301.8,382.9,301.8z"/>
	<path class="st1" d="M393.4,309.8c0.3,0,0.5,0,0.8-0.1c0.3,0,0.5-0.1,0.6-0.1v1.2c-0.2,0.1-0.4,0.1-0.7,0.2
		c-0.3,0.1-0.6,0.1-0.9,0.1c-2,0-3-1-3-3.1v-6h-1.5v-0.7l1.5-0.6l0.6-2.2h0.9v2.4h3v1.2h-3v6c0,0.6,0.1,1.1,0.4,1.4
		C392.5,309.6,392.9,309.8,393.4,309.8z"/>
	<path class="st1" d="M396.7,298c0-0.4,0.1-0.6,0.3-0.8c0.2-0.2,0.4-0.2,0.6-0.2c0.2,0,0.5,0.1,0.6,0.2c0.2,0.2,0.3,0.4,0.3,0.8
		c0,0.3-0.1,0.6-0.3,0.8c-0.2,0.2-0.4,0.3-0.6,0.3c-0.3,0-0.5-0.1-0.6-0.3C396.7,298.6,396.7,298.3,396.7,298z M398.3,310.9h-1.5
		v-10.2h1.5V310.9z"/>
	<path class="st1" d="M410.4,305.8c0,1.7-0.4,3-1.3,3.9c-0.8,0.9-2,1.4-3.5,1.4c-0.9,0-1.7-0.2-2.4-0.6c-0.7-0.4-1.2-1-1.6-1.8
		c-0.4-0.8-0.6-1.7-0.6-2.8c0-1.7,0.4-2.9,1.2-3.9c0.8-0.9,2-1.4,3.5-1.4c1.4,0,2.6,0.5,3.4,1.4
		C409.9,302.9,410.4,304.2,410.4,305.8z M402.6,305.8c0,1.3,0.3,2.3,0.8,3c0.5,0.7,1.3,1,2.3,1c1,0,1.8-0.3,2.3-1
		c0.5-0.7,0.8-1.7,0.8-3c0-1.3-0.3-2.3-0.8-2.9c-0.5-0.7-1.3-1-2.3-1c-1,0-1.8,0.3-2.3,1C402.9,303.5,402.6,304.5,402.6,305.8z"/>
	<path class="st1" d="M420,310.9v-6.6c0-0.8-0.2-1.4-0.6-1.9c-0.4-0.4-1-0.6-1.8-0.6c-1.1,0-1.8,0.3-2.3,0.9
		c-0.5,0.6-0.7,1.5-0.7,2.8v5.3h-1.5v-10.2h1.3l0.3,1.4h0.1c0.3-0.5,0.8-0.9,1.3-1.2c0.6-0.3,1.2-0.4,1.9-0.4c1.2,0,2.1,0.3,2.8,0.9
		c0.6,0.6,0.9,1.5,0.9,2.8v6.6H420z"/>
</g>
<g id="Group_984" transform="translate(21 28)">
	<path id="Path_6874" class="st1" d="M367.8,222h-16.9v1.2h16.3v30.3h1.2v-30.9C368.4,222.3,368.2,222,367.8,222
		C367.9,222,367.8,222,367.8,222z"/>
	<path id="Path_6875" class="st1" d="M365.5,224.3h-18.7c-0.1,0-0.1,0-0.2,0.1h-0.1c-0.1,0.1-0.1,0.1-0.2,0.1l0,0l-7,7l0,0
		c-0.1,0.1-0.1,0.1-0.1,0.2v0.1c0,0.1-0.1,0.1-0.1,0.2l0,0v3.5h1.2v-2.9h6.4c0.3,0,0.6-0.2,0.6-0.5c0,0,0,0,0-0.1v-6.4h17.5v30.3
		h-21v1.2h21.6c0.3,0,0.6-0.2,0.6-0.5c0,0,0,0,0-0.1V225C366.1,224.6,365.8,224.4,365.5,224.3L365.5,224.3z M341.2,231.3l2.5-2.5
		l2.5-2.5v5H341.2z"/>
	<path id="Path_6876" class="st1" d="M334.6,238.3h26.8V250h-16.3v1.2H362c0.3,0,0.6-0.2,0.6-0.5c0,0,0,0,0-0.1v-12.8
		c0-0.3-0.2-0.6-0.5-0.6c0,0,0,0-0.1,0h-28c-0.3,0-0.6,0.2-0.6,0.5c0,0,0,0,0,0.1v7.6h1.2V238.3z"/>
	<path id="Path_6877" class="st1" d="M360.2,243.6v-3.5c0-0.3-0.2-0.6-0.5-0.6c0,0,0,0-0.1,0h-23.3c-0.3,0-0.6,0.2-0.6,0.5
		c0,0,0,0,0,0.1v3.5c0,0.3,0.2,0.6,0.5,0.6c0,0,0,0,0.1,0h23.3C359.9,244.2,360.2,244,360.2,243.6L360.2,243.6z M359.1,243h-22.2
		v-2.3h22.2V243z"/>
	<rect id="Rectangle_844" x="346.2" y="245.3" class="st1" width="1.2" height="1.2"/>
	<rect id="Rectangle_845" x="348.6" y="245.3" class="st1" width="11.7" height="1.2"/>
	<rect id="Rectangle_846" x="354.4" y="247.7" class="st1" width="2.3" height="1.2"/>
	<rect id="Rectangle_847" x="357.9" y="247.7" class="st1" width="2.3" height="1.2"/>
	<rect id="Rectangle_848" x="358.5" y="227.2" class="st1" width="4.7" height="1.2"/>
	<rect id="Rectangle_849" x="356.1" y="229.6" class="st1" width="7" height="1.2"/>
	<rect id="Rectangle_850" x="341.6" y="234.2" class="st1" width="1.2" height="1.2"/>
	<rect id="Rectangle_851" x="343.9" y="234.2" class="st1" width="1.2" height="1.2"/>
	<rect id="Rectangle_852" x="346.2" y="234.2" class="st1" width="1.2" height="1.2"/>
	<rect id="Rectangle_853" x="348.6" y="234.2" class="st1" width="1.2" height="1.2"/>
	<rect id="Rectangle_854" x="350.9" y="234.2" class="st1" width="1.2" height="1.2"/>
	<rect id="Rectangle_855" x="353.2" y="234.2" class="st1" width="1.2" height="1.2"/>
	<rect id="Rectangle_856" x="355.6" y="234.2" class="st1" width="1.2" height="1.2"/>
	<rect id="Rectangle_857" x="357.9" y="234.2" class="st1" width="1.2" height="1.2"/>
	<rect id="Rectangle_858" x="360.2" y="234.2" class="st1" width="1.2" height="1.2"/>
	<rect id="Rectangle_859" x="362.6" y="234.2" class="st1" width="1.2" height="1.2"/>
	<rect id="Rectangle_860" x="346.2" y="252.9" class="st1" width="1.2" height="1.2"/>
	<rect id="Rectangle_861" x="348.6" y="252.9" class="st1" width="1.2" height="1.2"/>
	<rect id="Rectangle_862" x="350.9" y="252.9" class="st1" width="1.2" height="1.2"/>
	<rect id="Rectangle_863" x="353.2" y="252.9" class="st1" width="1.2" height="1.2"/>
	<rect id="Rectangle_864" x="355.6" y="252.9" class="st1" width="1.2" height="1.2"/>
	<rect id="Rectangle_865" x="357.9" y="252.9" class="st1" width="1.2" height="1.2"/>
	<rect id="Rectangle_866" x="360.2" y="252.9" class="st1" width="1.2" height="1.2"/>
	<rect id="Rectangle_867" x="362.6" y="252.9" class="st1" width="1.2" height="1.2"/>
	<path id="Path_6878" class="st1" d="M342.7,250v-2.3c0-0.3-0.2-0.6-0.5-0.6c0,0,0,0-0.1,0h-5.6l0.8-0.8l-0.8-0.8l-1.8,1.8
		c-0.2,0.2-0.2,0.6,0,0.8l0,0l1.8,1.8l0.8-0.8l-0.8-0.8h5v1.8L342.7,250L342.7,250z"/>
	<path id="Path_6879" class="st1" d="M340.8,252.5l-0.8,0.8l0.8,0.8h-5v-1.8h-1.2v2.3c0,0.3,0.2,0.6,0.5,0.6c0,0,0,0,0.1,0h5.6
		L340,256l0.8,0.8l1.8-1.8c0.2-0.2,0.2-0.6,0-0.8l0,0L340.8,252.5z"/>
</g>
<g class="st0">
	<path class="st1" d="M611,425.3h1.7l-4.9,13.6h-1.6l-4.9-13.6h1.7l3.1,8.8c0.4,1,0.6,2,0.9,2.9c0.2-1,0.5-2,0.9-3L611,425.3z"/>
	<path class="st1" d="M614.2,425.9c0-0.4,0.1-0.6,0.3-0.8c0.2-0.2,0.4-0.2,0.6-0.2c0.2,0,0.5,0.1,0.6,0.2s0.3,0.4,0.3,0.8
		c0,0.3-0.1,0.6-0.3,0.8s-0.4,0.3-0.6,0.3c-0.3,0-0.5-0.1-0.6-0.3C614.3,426.6,614.2,426.3,614.2,425.9z M615.9,438.9h-1.5v-10.2
		h1.5V438.9z"/>
	<path class="st1" d="M623.4,439.1c-1.5,0-2.7-0.5-3.6-1.4c-0.9-0.9-1.3-2.2-1.3-3.8c0-1.6,0.4-2.9,1.2-3.9c0.8-1,1.9-1.4,3.3-1.4
		c1.3,0,2.3,0.4,3,1.3c0.7,0.8,1.1,1.9,1.1,3.3v1h-7c0,1.2,0.3,2.1,0.9,2.7c0.6,0.6,1.4,0.9,2.4,0.9c1.1,0,2.2-0.2,3.2-0.7v1.4
		c-0.5,0.2-1.1,0.4-1.5,0.5C624.7,439,624.1,439.1,623.4,439.1z M623,429.8c-0.8,0-1.5,0.3-2,0.8c-0.5,0.5-0.8,1.3-0.9,2.2h5.3
		c0-1-0.2-1.7-0.6-2.2S623.8,429.8,623,429.8z"/>
	<path class="st1" d="M638.1,438.9l-1.9-6c-0.1-0.4-0.3-1.2-0.7-2.5h-0.1c-0.2,1.1-0.5,1.9-0.6,2.5l-1.9,5.9h-1.8l-2.8-10.2h1.6
		c0.7,2.6,1.2,4.5,1.5,5.8c0.3,1.3,0.5,2.2,0.6,2.7h0.1c0.1-0.4,0.2-0.8,0.3-1.4c0.2-0.6,0.3-1,0.4-1.3l1.9-5.8h1.7l1.8,5.8
		c0.3,1.1,0.6,2,0.7,2.7h0.1c0-0.2,0.1-0.6,0.2-1c0.1-0.5,0.8-3,1.9-7.5h1.6l-2.8,10.2H638.1z"/>
	<path class="st1" d="M660.6,432c0,2.2-0.6,4-1.8,5.1c-1.2,1.2-3,1.8-5.2,1.8h-3.8v-13.6h4.2c2.1,0,3.7,0.6,4.9,1.8
		C660,428.2,660.6,429.9,660.6,432z M658.9,432c0-1.8-0.4-3.1-1.3-4c-0.9-0.9-2.2-1.3-4-1.3h-2.3v10.8h1.9c1.9,0,3.3-0.5,4.2-1.4
		C658.4,435.2,658.9,433.8,658.9,432z"/>
	<path class="st1" d="M669.6,438.9l-0.3-1.4h-0.1c-0.5,0.6-1,1.1-1.5,1.3c-0.5,0.2-1.1,0.3-1.9,0.3c-1,0-1.8-0.3-2.4-0.8
		s-0.9-1.3-0.9-2.2c0-2.1,1.6-3.1,4.9-3.2l1.7-0.1v-0.6c0-0.8-0.2-1.4-0.5-1.8c-0.3-0.4-0.9-0.6-1.6-0.6c-0.8,0-1.8,0.3-2.9,0.8
		l-0.5-1.2c0.5-0.3,1-0.5,1.6-0.6c0.6-0.2,1.2-0.2,1.8-0.2c1.2,0,2.1,0.3,2.7,0.8c0.6,0.5,0.9,1.4,0.9,2.6v6.9H669.6z M666.1,437.8
		c1,0,1.7-0.3,2.3-0.8s0.8-1.3,0.8-2.2v-0.9l-1.5,0.1c-1.2,0-2.1,0.2-2.6,0.6c-0.5,0.3-0.8,0.9-0.8,1.6c0,0.6,0.2,1,0.5,1.3
		C665.1,437.6,665.5,437.8,666.1,437.8z"/>
	<path class="st1" d="M680.5,436.1c0,0.9-0.4,1.7-1.1,2.2c-0.7,0.5-1.7,0.8-3,0.8c-1.3,0-2.4-0.2-3.2-0.6V437c0.5,0.2,1,0.4,1.6,0.6
		s1.1,0.2,1.6,0.2c0.8,0,1.4-0.1,1.9-0.4c0.4-0.3,0.7-0.6,0.7-1.2c0-0.4-0.2-0.7-0.5-1c-0.3-0.3-1-0.6-2-1c-0.9-0.4-1.6-0.7-2-0.9
		c-0.4-0.3-0.7-0.6-0.9-0.9c-0.2-0.3-0.3-0.7-0.3-1.2c0-0.8,0.3-1.5,1-2c0.7-0.5,1.6-0.7,2.8-0.7c1.1,0,2.2,0.2,3.2,0.7l-0.5,1.3
		c-1-0.4-1.9-0.6-2.8-0.6c-0.7,0-1.3,0.1-1.7,0.3s-0.6,0.5-0.6,0.9c0,0.3,0.1,0.5,0.2,0.7c0.1,0.2,0.4,0.4,0.7,0.5
		c0.3,0.2,0.9,0.4,1.8,0.8c1.2,0.4,2,0.9,2.4,1.3C680.3,434.9,680.5,435.4,680.5,436.1z"/>
	<path class="st1" d="M690,438.9v-6.6c0-0.8-0.2-1.4-0.6-1.9s-1-0.6-1.8-0.6c-1.1,0-1.9,0.3-2.3,0.9c-0.5,0.6-0.7,1.5-0.7,2.9v5.3
		H683v-14.4h1.5v4.4c0,0.5,0,1-0.1,1.3h0.1c0.3-0.5,0.7-0.9,1.3-1.2c0.6-0.3,1.2-0.4,1.9-0.4c1.2,0,2.2,0.3,2.8,0.9
		c0.6,0.6,0.9,1.5,0.9,2.8v6.6H690z"/>
	<path class="st1" d="M699.4,428.5c1.3,0,2.4,0.5,3.1,1.4c0.7,0.9,1.1,2.2,1.1,3.9s-0.4,3-1.1,3.9s-1.8,1.4-3.1,1.4
		c-0.7,0-1.3-0.1-1.8-0.4c-0.5-0.2-1-0.6-1.4-1.1h-0.1l-0.3,1.3h-1.1v-14.4h1.5v3.5c0,0.8,0,1.5-0.1,2.1h0.1
		C696.9,429,698,428.5,699.4,428.5z M699.2,429.8c-1.1,0-1.8,0.3-2.3,0.9c-0.5,0.6-0.7,1.6-0.7,3c0,1.4,0.2,2.5,0.7,3.1
		c0.5,0.6,1.2,0.9,2.3,0.9c0.9,0,1.7-0.3,2.1-1c0.5-0.7,0.7-1.7,0.7-3c0-1.3-0.2-2.3-0.7-3S700.1,429.8,699.2,429.8z"/>
	<path class="st1" d="M715.1,433.8c0,1.7-0.4,3-1.3,3.9c-0.8,0.9-2,1.4-3.5,1.4c-0.9,0-1.7-0.2-2.4-0.6c-0.7-0.4-1.2-1-1.6-1.8
		c-0.4-0.8-0.6-1.7-0.6-2.8c0-1.7,0.4-2.9,1.2-3.9c0.8-0.9,2-1.4,3.5-1.4c1.4,0,2.6,0.5,3.4,1.4
		C714.7,430.9,715.1,432.2,715.1,433.8z M707.3,433.8c0,1.3,0.3,2.3,0.8,3c0.5,0.7,1.3,1,2.3,1c1,0,1.8-0.3,2.3-1
		c0.5-0.7,0.8-1.7,0.8-3c0-1.3-0.3-2.3-0.8-2.9c-0.5-0.7-1.3-1-2.3-1c-1,0-1.8,0.3-2.3,1C707.6,431.5,707.3,432.5,707.3,433.8z"/>
	<path class="st1" d="M724,438.9l-0.3-1.4h-0.1c-0.5,0.6-1,1.1-1.5,1.3s-1.1,0.3-1.9,0.3c-1,0-1.8-0.3-2.4-0.8s-0.9-1.3-0.9-2.2
		c0-2.1,1.6-3.1,4.9-3.2l1.7-0.1v-0.6c0-0.8-0.2-1.4-0.5-1.8c-0.3-0.4-0.9-0.6-1.6-0.6c-0.8,0-1.8,0.3-2.9,0.8l-0.5-1.2
		c0.5-0.3,1-0.5,1.6-0.6c0.6-0.2,1.2-0.2,1.8-0.2c1.2,0,2.1,0.3,2.7,0.8c0.6,0.5,0.9,1.4,0.9,2.6v6.9H724z M720.6,437.8
		c1,0,1.7-0.3,2.3-0.8c0.5-0.5,0.8-1.3,0.8-2.2v-0.9l-1.5,0.1c-1.2,0-2.1,0.2-2.6,0.6c-0.5,0.3-0.8,0.9-0.8,1.6c0,0.6,0.2,1,0.5,1.3
		C719.5,437.6,719.9,437.8,720.6,437.8z"/>
	<path class="st1" d="M733,428.5c0.5,0,0.9,0,1.2,0.1l-0.2,1.4c-0.4-0.1-0.8-0.1-1.1-0.1c-0.8,0-1.5,0.3-2.1,1
		c-0.6,0.7-0.9,1.5-0.9,2.5v5.5h-1.5v-10.2h1.3l0.2,1.9h0.1c0.4-0.7,0.8-1.2,1.4-1.5S732.3,428.5,733,428.5z"/>
	<path class="st1" d="M743,437.5L743,437.5c-0.8,1-1.9,1.5-3.3,1.5c-1.3,0-2.4-0.5-3.1-1.4c-0.7-0.9-1.1-2.2-1.1-3.9
		c0-1.7,0.4-3,1.1-3.9s1.8-1.4,3.1-1.4c1.4,0,2.4,0.5,3.2,1.5h0.1l-0.1-0.7l0-0.7v-4.1h1.5v14.4h-1.3L743,437.5z M739.9,437.8
		c1.1,0,1.8-0.3,2.3-0.9c0.5-0.6,0.7-1.5,0.7-2.8v-0.3c0-1.4-0.2-2.5-0.7-3.1c-0.5-0.6-1.2-0.9-2.3-0.9c-0.9,0-1.6,0.4-2.1,1.1
		c-0.5,0.7-0.7,1.7-0.7,3c0,1.3,0.2,2.3,0.7,2.9S739,437.8,739.9,437.8z"/>
</g>
<g id="Group_985" transform="translate(-6068 192)">
	<rect id="Rectangle_842" x="6721.4" y="183.9" class="st10" width="50.8" height="35"/>
	<path id="Path_6844" class="st1" d="M6752,216.3c-0.5,0-0.9-0.4-0.9-0.9l0,0v-2.6c0-0.5,0.4-0.9,0.9-0.9s0.9,0.4,0.9,0.9v2.6
		C6752.9,215.9,6752.5,216.3,6752,216.3L6752,216.3z"/>
	<path id="Path_6845" class="st1" d="M6755.5,216.3c-0.5,0-0.9-0.4-0.9-0.9l0,0v-6.1c0-0.5,0.4-0.9,0.9-0.9s0.9,0.4,0.9,0.9v6.1
		C6756.4,215.9,6756,216.3,6755.5,216.3L6755.5,216.3z"/>
	<path id="Path_6846" class="st1" d="M6759,216.3c-0.5,0-0.9-0.4-0.9-0.9l0,0V211c0-0.5,0.4-0.9,0.9-0.9s0.9,0.4,0.9,0.9v4.4
		C6759.9,215.9,6759.5,216.3,6759,216.3L6759,216.3z"/>
	<path id="Path_6847" class="st1" d="M6762.5,216.3c-0.5,0-0.9-0.4-0.9-0.9l0,0v-10.5c0-0.5,0.4-0.9,0.9-0.9s0.9,0.4,0.9,0.9v10.5
		C6763.4,215.9,6763,216.3,6762.5,216.3L6762.5,216.3z"/>
	<path id="Path_6848" class="st1" d="M6766,216.3c-0.5,0-0.9-0.4-0.9-0.9l0,0v-7c0-0.5,0.4-0.9,0.9-0.9s0.9,0.4,0.9,0.9v7
		C6766.9,215.9,6766.5,216.3,6766,216.3L6766,216.3z"/>
	<path id="Path_6849" class="st1" d="M6736.3,212.8h-8.8c-0.5,0-0.9-0.4-0.9-0.9s0.4-0.9,0.9-0.9h8.8c0.5,0,0.9,0.4,0.9,0.9
		S6736.8,212.8,6736.3,212.8z"/>
	<path id="Path_6850" class="st1" d="M6740.6,216.3h-13.1c-0.5,0-0.9-0.4-0.9-0.9s0.4-0.9,0.9-0.9h13.1c0.5,0,0.9,0.4,0.9,0.9
		S6741.1,216.3,6740.6,216.3z"/>
	<path id="Path_6851" class="st1" d="M6736.7,206.8c-5.6,0-10.1-4.5-10.1-10.1s4.5-10.1,10.1-10.1s10.1,4.5,10.1,10.1l0,0
		C6746.8,202.2,6742.3,206.8,6736.7,206.8z M6736.7,188.3c-4.6,0-8.3,3.7-8.3,8.3c0,4.6,3.7,8.3,8.3,8.3c4.6,0,8.3-3.7,8.3-8.3l0,0
		C6745,192.1,6741.3,188.3,6736.7,188.3z"/>
	<path id="Path_6852" class="st1" d="M6745.9,197.9h-10.4V197v-9.9l0.5-0.5h0.3c5.6-0.3,10.3,4,10.5,9.6c0,0.3,0,0.6,0,0.9v0.4
		l-0.5,0.5L6745.9,197.9z M6737.1,196.2h7.9c-0.2-4.2-3.6-7.6-7.9-7.9V196.2z"/>
	<path id="Path_6853" class="st1" d="M6742.8,204.4c-0.2,0-0.5-0.1-0.6-0.3l-6.5-6.5c-0.3-0.4-0.3-0.9,0-1.2c0.3-0.3,0.9-0.3,1.2,0
		l6.5,6.5c0.3,0.3,0.3,0.9,0,1.2C6743.2,204.3,6743,204.4,6742.8,204.4L6742.8,204.4z"/>
	<path id="Path_6854" class="st1" d="M6761.6,192.8h-7c-0.5,0-0.9-0.4-0.9-0.9s0.4-0.9,0.9-0.9h7c0.5,0,0.9,0.4,0.9,0.9
		S6762.1,192.8,6761.6,192.8z"/>
	<path id="Path_6855" class="st1" d="M6766,192.8c-0.2,0-0.5-0.1-0.6-0.3c-0.3-0.3-0.3-0.9,0-1.2l0,0c0.3-0.3,0.9-0.3,1.2,0
		c0.3,0.3,0.3,0.9,0,1.2C6766.5,192.7,6766.2,192.8,6766,192.8L6766,192.8z"/>
	<path id="Path_6856" class="st1" d="M6766,188.3h-2.6c-0.5,0-0.9-0.4-0.9-0.9s0.4-0.9,0.9-0.9h2.6c0.5,0,0.9,0.4,0.9,0.9
		S6766.5,188.3,6766,188.3z"/>
	<path id="Path_6857" class="st1" d="M6756.4,188.3h-1.8c-0.5,0-0.9-0.4-0.9-0.9s0.4-0.9,0.9-0.9h1.8c0.5,0,0.9,0.4,0.9,0.9
		S6756.9,188.3,6756.4,188.3z"/>
	<path id="Path_6858" class="st1" d="M6759.9,188.3c-0.5,0-0.9-0.4-0.9-0.9c0-0.2,0.1-0.5,0.3-0.6c0.4-0.3,0.9-0.3,1.2,0
		c0.3,0.3,0.4,0.9,0,1.2C6760.4,188.2,6760.1,188.3,6759.9,188.3L6759.9,188.3z"/>
</g>
<g class="st0">
	<path class="st1" d="M607.9,63.2c0,1.2-0.4,2.1-1.3,2.8c-0.9,0.7-2,1-3.5,1c-1.6,0-2.8-0.2-3.7-0.6v-1.5c0.6,0.2,1.2,0.4,1.8,0.6
		c0.7,0.1,1.3,0.2,1.9,0.2c1.1,0,1.8-0.2,2.4-0.6c0.5-0.4,0.8-1,0.8-1.7c0-0.5-0.1-0.9-0.3-1.2c-0.2-0.3-0.5-0.6-0.9-0.8
		c-0.4-0.3-1.1-0.5-2-0.9c-1.3-0.5-2.2-1-2.7-1.6c-0.5-0.6-0.8-1.4-0.8-2.4c0-1,0.4-1.9,1.2-2.5c0.8-0.6,1.8-0.9,3.1-0.9
		c1.3,0,2.6,0.2,3.7,0.7l-0.5,1.4c-1.1-0.5-2.2-0.7-3.3-0.7c-0.8,0-1.5,0.2-2,0.5c-0.5,0.4-0.7,0.9-0.7,1.5c0,0.5,0.1,0.9,0.3,1.2
		c0.2,0.3,0.5,0.6,0.9,0.8c0.4,0.3,1,0.5,1.9,0.8c1.4,0.5,2.4,1.1,2.9,1.6C607.6,61.5,607.9,62.3,607.9,63.2z"/>
	<path class="st1" d="M614.8,67c-1.5,0-2.7-0.5-3.6-1.4s-1.3-2.2-1.3-3.8c0-1.6,0.4-2.9,1.2-3.9c0.8-1,1.9-1.4,3.3-1.4
		c1.3,0,2.3,0.4,3,1.3c0.7,0.8,1.1,1.9,1.1,3.3v1h-7c0,1.2,0.3,2.1,0.9,2.7c0.6,0.6,1.4,0.9,2.4,0.9c1.1,0,2.2-0.2,3.2-0.7v1.4
		c-0.5,0.2-1.1,0.4-1.5,0.5C616,67,615.4,67,614.8,67z M614.3,57.8c-0.8,0-1.5,0.3-2,0.8c-0.5,0.5-0.8,1.3-0.9,2.2h5.3
		c0-1-0.2-1.7-0.6-2.2C615.8,58,615.1,57.8,614.3,57.8z"/>
	<path class="st1" d="M624.4,65.7c0.3,0,0.5,0,0.8-0.1s0.5-0.1,0.6-0.1v1.2c-0.2,0.1-0.4,0.1-0.7,0.2c-0.3,0.1-0.6,0.1-0.9,0.1
		c-2,0-3-1-3-3.1v-6h-1.5v-0.7l1.5-0.6l0.6-2.2h0.9v2.4h3v1.2h-3v6c0,0.6,0.1,1.1,0.4,1.4C623.5,65.6,623.9,65.7,624.4,65.7z"/>
	<path class="st1" d="M629.3,56.6v6.6c0,0.8,0.2,1.4,0.6,1.9s1,0.6,1.8,0.6c1.1,0,1.8-0.3,2.3-0.9c0.5-0.6,0.7-1.5,0.7-2.8v-5.3h1.5
		v10.2h-1.3l-0.2-1.4h-0.1c-0.3,0.5-0.8,0.9-1.3,1.2c-0.6,0.3-1.2,0.4-1.9,0.4c-1.2,0-2.2-0.3-2.8-0.9c-0.6-0.6-0.9-1.5-0.9-2.8
		v-6.7H629.3z"/>
	<path class="st1" d="M644.2,67c-0.7,0-1.3-0.1-1.8-0.4c-0.5-0.2-1-0.6-1.4-1.1h-0.1c0.1,0.6,0.1,1.2,0.1,1.7v4.2h-1.5V56.6h1.3
		L641,58h0.1c0.4-0.6,0.9-1,1.4-1.2s1.1-0.4,1.8-0.4c1.3,0,2.4,0.5,3.1,1.4c0.7,0.9,1.1,2.2,1.1,3.9c0,1.7-0.4,3-1.1,3.9
		S645.5,67,644.2,67z M644,57.8c-1,0-1.8,0.3-2.3,0.9c-0.5,0.6-0.7,1.5-0.7,2.7v0.3c0,1.4,0.2,2.5,0.7,3.1c0.5,0.6,1.2,0.9,2.3,0.9
		c0.9,0,1.6-0.4,2.1-1.1c0.5-0.7,0.7-1.7,0.7-2.9c0-1.3-0.2-2.2-0.7-2.9C645.6,58.1,644.9,57.8,644,57.8z"/>
	<path class="st1" d="M662.1,54.5c-1.5,0-2.7,0.5-3.5,1.5c-0.9,1-1.3,2.4-1.3,4.1c0,1.8,0.4,3.1,1.2,4.1c0.8,1,2,1.5,3.6,1.5
		c0.9,0,2-0.2,3.2-0.5v1.4c-0.9,0.4-2.1,0.5-3.5,0.5c-2,0-3.5-0.6-4.6-1.8c-1.1-1.2-1.6-2.9-1.6-5.2c0-1.4,0.3-2.6,0.8-3.7
		c0.5-1.1,1.3-1.9,2.3-2.4c1-0.6,2.1-0.9,3.5-0.9c1.4,0,2.7,0.3,3.7,0.8l-0.7,1.4C664.2,54.7,663.1,54.5,662.1,54.5z"/>
	<path class="st1" d="M674.3,66.8l-0.3-1.4h-0.1c-0.5,0.6-1,1.1-1.5,1.3c-0.5,0.2-1.1,0.3-1.9,0.3c-1,0-1.8-0.3-2.4-0.8
		s-0.9-1.3-0.9-2.2c0-2.1,1.6-3.1,4.9-3.2l1.7-0.1v-0.6c0-0.8-0.2-1.4-0.5-1.8c-0.3-0.4-0.9-0.6-1.6-0.6c-0.8,0-1.8,0.3-2.9,0.8
		l-0.5-1.2c0.5-0.3,1-0.5,1.6-0.6c0.6-0.2,1.2-0.2,1.8-0.2c1.2,0,2.1,0.3,2.7,0.8c0.6,0.5,0.9,1.4,0.9,2.6v6.9H674.3z M670.8,65.7
		c1,0,1.7-0.3,2.3-0.8s0.8-1.3,0.8-2.2v-0.9l-1.5,0.1c-1.2,0-2.1,0.2-2.6,0.6c-0.5,0.3-0.8,0.9-0.8,1.6c0,0.6,0.2,1,0.5,1.3
		C669.7,65.6,670.2,65.7,670.8,65.7z"/>
	<path class="st1" d="M681.9,65.7c0.3,0,0.5,0,0.8-0.1c0.3,0,0.5-0.1,0.6-0.1v1.2c-0.2,0.1-0.4,0.1-0.7,0.2
		c-0.3,0.1-0.6,0.1-0.9,0.1c-2,0-3-1-3-3.1v-6h-1.5v-0.7l1.5-0.6l0.6-2.2h0.9v2.4h3v1.2h-3v6c0,0.6,0.1,1.1,0.4,1.4
		S681.4,65.7,681.9,65.7z"/>
	<path class="st1" d="M689.6,67c-1.5,0-2.7-0.5-3.6-1.4c-0.9-0.9-1.3-2.2-1.3-3.8c0-1.6,0.4-2.9,1.2-3.9s1.9-1.4,3.3-1.4
		c1.3,0,2.3,0.4,3,1.3c0.7,0.8,1.1,1.9,1.1,3.3v1h-7c0,1.2,0.3,2.1,0.9,2.7c0.6,0.6,1.4,0.9,2.4,0.9c1.1,0,2.2-0.2,3.2-0.7v1.4
		c-0.5,0.2-1.1,0.4-1.5,0.5C690.9,67,690.3,67,689.6,67z M689.2,57.8c-0.8,0-1.5,0.3-2,0.8c-0.5,0.5-0.8,1.3-0.9,2.2h5.3
		c0-1-0.2-1.7-0.7-2.2C690.6,58,690,57.8,689.2,57.8z"/>
	<path class="st1" d="M704.3,56.6v1l-1.9,0.2c0.2,0.2,0.3,0.5,0.5,0.8s0.2,0.7,0.2,1.2c0,1-0.3,1.8-1,2.4s-1.6,0.9-2.8,0.9
		c-0.3,0-0.6,0-0.9-0.1c-0.7,0.3-1,0.8-1,1.3c0,0.3,0.1,0.5,0.3,0.6s0.6,0.2,1.2,0.2h1.8c1.1,0,1.9,0.2,2.5,0.7
		c0.6,0.5,0.9,1.1,0.9,2c0,1.1-0.5,2-1.4,2.6c-0.9,0.6-2.2,0.9-4,0.9c-1.3,0-2.4-0.2-3.1-0.7s-1.1-1.2-1.1-2.1
		c0-0.6,0.2-1.2,0.6-1.6c0.4-0.5,1-0.8,1.7-0.9c-0.3-0.1-0.5-0.3-0.7-0.5c-0.2-0.2-0.3-0.5-0.3-0.9c0-0.4,0.1-0.7,0.3-1
		c0.2-0.3,0.5-0.5,0.9-0.8c-0.5-0.2-1-0.6-1.3-1.1s-0.5-1.1-0.5-1.8c0-1.1,0.3-2,1-2.6c0.7-0.6,1.6-0.9,2.8-0.9c0.5,0,1,0.1,1.4,0.2
		H704.3z M696.2,68.5c0,0.6,0.2,1,0.7,1.3c0.5,0.3,1.1,0.4,2,0.4c1.3,0,2.2-0.2,2.9-0.6c0.6-0.4,0.9-0.9,0.9-1.6
		c0-0.6-0.2-0.9-0.5-1.1c-0.3-0.2-1-0.3-1.9-0.3h-1.8c-0.7,0-1.2,0.2-1.6,0.5S696.2,67.9,696.2,68.5z M697,59.9
		c0,0.7,0.2,1.2,0.6,1.6c0.4,0.4,1,0.5,1.7,0.5c1.5,0,2.3-0.7,2.3-2.2c0-1.5-0.8-2.3-2.3-2.3c-0.7,0-1.3,0.2-1.7,0.6
		S697,59.1,697,59.9z"/>
	<path class="st1" d="M715.2,61.7c0,1.7-0.4,3-1.3,3.9c-0.8,0.9-2,1.4-3.5,1.4c-0.9,0-1.7-0.2-2.4-0.6c-0.7-0.4-1.2-1-1.6-1.8
		c-0.4-0.8-0.6-1.7-0.6-2.8c0-1.7,0.4-2.9,1.2-3.9c0.8-0.9,2-1.4,3.5-1.4c1.4,0,2.6,0.5,3.4,1.4C714.8,58.8,715.2,60.1,715.2,61.7z
		 M707.4,61.7c0,1.3,0.3,2.3,0.8,3c0.5,0.7,1.3,1,2.3,1c1,0,1.8-0.3,2.3-1c0.5-0.7,0.8-1.7,0.8-3c0-1.3-0.3-2.3-0.8-2.9
		c-0.5-0.7-1.3-1-2.3-1c-1,0-1.8,0.3-2.3,1C707.7,59.4,707.4,60.4,707.4,61.7z"/>
	<path class="st1" d="M722.5,56.5c0.5,0,0.9,0,1.2,0.1l-0.2,1.4c-0.4-0.1-0.8-0.1-1.1-0.1c-0.8,0-1.5,0.3-2.1,1s-0.9,1.5-0.9,2.5
		v5.5h-1.5V56.6h1.3l0.2,1.9h0.1c0.4-0.7,0.8-1.2,1.4-1.5C721.3,56.6,721.9,56.5,722.5,56.5z"/>
	<path class="st1" d="M725.5,53.9c0-0.4,0.1-0.6,0.3-0.8c0.2-0.2,0.4-0.2,0.7-0.2c0.2,0,0.5,0.1,0.6,0.2c0.2,0.2,0.3,0.4,0.3,0.8
		c0,0.3-0.1,0.6-0.3,0.8c-0.2,0.2-0.4,0.3-0.6,0.3c-0.3,0-0.5-0.1-0.7-0.3C725.6,54.5,725.5,54.2,725.5,53.9z M727.2,66.8h-1.5V56.6
		h1.5V66.8z"/>
	<path class="st1" d="M734.7,67c-1.5,0-2.7-0.5-3.6-1.4s-1.3-2.2-1.3-3.8c0-1.6,0.4-2.9,1.2-3.9c0.8-1,1.9-1.4,3.3-1.4
		c1.3,0,2.3,0.4,3,1.3c0.7,0.8,1.1,1.9,1.1,3.3v1h-7c0,1.2,0.3,2.1,0.9,2.7c0.6,0.6,1.4,0.9,2.4,0.9c1.1,0,2.2-0.2,3.2-0.7v1.4
		c-0.5,0.2-1.1,0.4-1.5,0.5C736,67,735.4,67,734.7,67z M734.3,57.8c-0.8,0-1.5,0.3-2,0.8c-0.5,0.5-0.8,1.3-0.9,2.2h5.3
		c0-1-0.2-1.7-0.6-2.2C735.7,58,735.1,57.8,734.3,57.8z"/>
	<path class="st1" d="M747.6,64c0,0.9-0.4,1.7-1.1,2.2c-0.7,0.5-1.7,0.8-3,0.8c-1.3,0-2.4-0.2-3.2-0.6v-1.4c0.5,0.2,1,0.4,1.6,0.6
		c0.6,0.1,1.1,0.2,1.6,0.2c0.8,0,1.4-0.1,1.9-0.4c0.4-0.3,0.6-0.6,0.6-1.2c0-0.4-0.2-0.7-0.5-1c-0.3-0.3-1-0.6-2-1
		c-0.9-0.4-1.6-0.7-2-0.9c-0.4-0.3-0.7-0.6-0.9-0.9c-0.2-0.3-0.3-0.7-0.3-1.2c0-0.8,0.3-1.5,1-2c0.7-0.5,1.6-0.7,2.8-0.7
		c1.1,0,2.2,0.2,3.2,0.7l-0.5,1.3c-1-0.4-1.9-0.6-2.8-0.6c-0.7,0-1.3,0.1-1.7,0.3s-0.6,0.5-0.6,0.9c0,0.3,0.1,0.5,0.2,0.7
		c0.1,0.2,0.4,0.4,0.7,0.5c0.3,0.2,0.9,0.4,1.8,0.8c1.2,0.4,2,0.9,2.4,1.3S747.6,63.4,747.6,64z"/>
</g>
<g id="Group_988" transform="translate(-5995 -602)">
	<path id="Path_6888" class="st1" d="M6679.9,616c-1.2,0-2.4,0.2-3.5,0.6v-2.9h-9.3v2.3h-4.7v-4.7h2.3V602h-9.3v9.3h4.7V630h7v4.7
		h6.2c4.5,3.6,11.1,2.9,14.8-1.6c3.6-4.5,2.9-11.1-1.6-14.8C6684.6,616.8,6682.3,616,6679.9,616z M6669.5,625.3h-2.4v2.3h-4.7v-9.3
		h4.7v4.7h2.9C6669.7,623.8,6669.6,624.5,6669.5,625.3z M6679.9,634.5c-4.4,0-8-3.6-8-8s3.6-8,8-8s8,3.6,8,8l0,0
		C6687.9,630.9,6684.3,634.5,6679.9,634.5z"/>
	<path id="Path_6889" class="st1" d="M6675.2,631.2h3.5l-3.5-3.5V631.2z M6676.4,626.5l5.8-5.8l3.5,3.5l-5.8,5.8L6676.4,626.5z"/>
</g>
<g class="st0">
	<path class="st1" d="M598.9,190.3c0,1.2-0.4,2.1-1.3,2.8c-0.9,0.7-2,1-3.5,1c-1.6,0-2.8-0.2-3.7-0.6V192c0.6,0.2,1.2,0.4,1.8,0.6
		c0.7,0.1,1.3,0.2,1.9,0.2c1.1,0,1.8-0.2,2.4-0.6c0.5-0.4,0.8-1,0.8-1.7c0-0.5-0.1-0.9-0.3-1.2c-0.2-0.3-0.5-0.6-0.9-0.8
		c-0.4-0.3-1.1-0.5-2-0.9c-1.3-0.5-2.2-1-2.7-1.6c-0.5-0.6-0.8-1.4-0.8-2.4c0-1,0.4-1.9,1.2-2.5c0.8-0.6,1.8-0.9,3.1-0.9
		c1.3,0,2.6,0.2,3.7,0.7l-0.5,1.4c-1.1-0.5-2.2-0.7-3.3-0.7c-0.8,0-1.5,0.2-2,0.5c-0.5,0.4-0.7,0.9-0.7,1.5c0,0.5,0.1,0.9,0.3,1.2
		c0.2,0.3,0.5,0.6,0.9,0.8c0.4,0.3,1,0.5,1.9,0.8c1.4,0.5,2.4,1.1,2.9,1.6C598.6,188.6,598.9,189.4,598.9,190.3z"/>
	<path class="st1" d="M605.8,194.1c-1.5,0-2.7-0.5-3.6-1.4s-1.3-2.2-1.3-3.8c0-1.6,0.4-2.9,1.2-3.9c0.8-1,1.9-1.4,3.3-1.4
		c1.3,0,2.3,0.4,3,1.3c0.7,0.8,1.1,1.9,1.1,3.3v1h-7c0,1.2,0.3,2.1,0.9,2.7c0.6,0.6,1.4,0.9,2.4,0.9c1.1,0,2.2-0.2,3.2-0.7v1.4
		c-0.5,0.2-1.1,0.4-1.5,0.5C607,194,606.4,194.1,605.8,194.1z M605.3,184.8c-0.8,0-1.5,0.3-2,0.8c-0.5,0.5-0.8,1.3-0.9,2.2h5.3
		c0-1-0.2-1.7-0.6-2.2C606.8,185.1,606.1,184.8,605.3,184.8z"/>
	<path class="st1" d="M615.4,192.8c0.3,0,0.5,0,0.8-0.1s0.5-0.1,0.6-0.1v1.2c-0.2,0.1-0.4,0.1-0.7,0.2c-0.3,0.1-0.6,0.1-0.9,0.1
		c-2,0-3-1-3-3.1v-6h-1.5v-0.7l1.5-0.6l0.6-2.2h0.9v2.4h3v1.2h-3v6c0,0.6,0.1,1.1,0.4,1.4C614.5,192.7,614.9,192.8,615.4,192.8z"/>
	<path class="st1" d="M620.3,183.7v6.6c0,0.8,0.2,1.4,0.6,1.9s1,0.6,1.8,0.6c1.1,0,1.8-0.3,2.3-0.9c0.5-0.6,0.7-1.5,0.7-2.8v-5.3
		h1.5v10.2h-1.3l-0.2-1.4h-0.1c-0.3,0.5-0.8,0.9-1.3,1.2c-0.6,0.3-1.2,0.4-1.9,0.4c-1.2,0-2.2-0.3-2.8-0.9c-0.6-0.6-0.9-1.5-0.9-2.8
		v-6.7H620.3z"/>
	<path class="st1" d="M635.2,194.1c-0.7,0-1.3-0.1-1.8-0.4c-0.5-0.2-1-0.6-1.4-1.1h-0.1c0.1,0.6,0.1,1.2,0.1,1.7v4.2h-1.5v-14.7h1.3
		l0.2,1.4h0.1c0.4-0.6,0.9-1,1.4-1.2s1.1-0.4,1.8-0.4c1.3,0,2.4,0.5,3.1,1.4c0.7,0.9,1.1,2.2,1.1,3.9c0,1.7-0.4,3-1.1,3.9
		S636.5,194.1,635.2,194.1z M635,184.9c-1,0-1.8,0.3-2.3,0.9c-0.5,0.6-0.7,1.5-0.7,2.7v0.3c0,1.4,0.2,2.5,0.7,3.1
		c0.5,0.6,1.2,0.9,2.3,0.9c0.9,0,1.6-0.4,2.1-1.1c0.5-0.7,0.7-1.7,0.7-2.9c0-1.3-0.2-2.2-0.7-2.9C636.6,185.2,635.9,184.9,635,184.9
		z"/>
	<path class="st1" d="M653.6,191.1c0,0.9-0.4,1.7-1.1,2.2c-0.7,0.5-1.7,0.8-3,0.8c-1.3,0-2.4-0.2-3.2-0.6V192c0.5,0.2,1,0.4,1.6,0.6
		c0.6,0.1,1.1,0.2,1.6,0.2c0.8,0,1.4-0.1,1.9-0.4c0.4-0.3,0.6-0.6,0.6-1.2c0-0.4-0.2-0.7-0.5-1c-0.3-0.3-1-0.6-2-1
		c-0.9-0.4-1.6-0.7-2-0.9c-0.4-0.3-0.7-0.6-0.9-0.9c-0.2-0.3-0.3-0.7-0.3-1.2c0-0.8,0.3-1.5,1-2c0.7-0.5,1.6-0.7,2.8-0.7
		c1.1,0,2.2,0.2,3.2,0.7l-0.5,1.3c-1-0.4-1.9-0.6-2.8-0.6c-0.7,0-1.3,0.1-1.7,0.3s-0.6,0.5-0.6,0.9c0,0.3,0.1,0.5,0.2,0.7
		c0.1,0.2,0.4,0.4,0.7,0.5s0.9,0.4,1.8,0.8c1.2,0.4,2,0.9,2.4,1.3S653.6,190.5,653.6,191.1z"/>
	<path class="st1" d="M659.4,192.8c0.3,0,0.5,0,0.8-0.1s0.5-0.1,0.6-0.1v1.2c-0.2,0.1-0.4,0.1-0.7,0.2c-0.3,0.1-0.6,0.1-0.9,0.1
		c-2,0-3-1-3-3.1v-6h-1.5v-0.7l1.5-0.6l0.6-2.2h0.9v2.4h3v1.2h-3v6c0,0.6,0.1,1.1,0.4,1.4C658.5,192.7,658.9,192.8,659.4,192.8z"/>
	<path class="st1" d="M671.6,188.8c0,1.7-0.4,3-1.3,3.9c-0.8,0.9-2,1.4-3.5,1.4c-0.9,0-1.7-0.2-2.4-0.6c-0.7-0.4-1.2-1-1.6-1.8
		c-0.4-0.8-0.6-1.7-0.6-2.8c0-1.7,0.4-2.9,1.2-3.9c0.8-0.9,2-1.4,3.5-1.4c1.4,0,2.6,0.5,3.4,1.4
		C671.2,185.9,671.6,187.2,671.6,188.8z M663.9,188.8c0,1.3,0.3,2.3,0.8,3c0.5,0.7,1.3,1,2.3,1c1,0,1.8-0.3,2.3-1
		c0.5-0.7,0.8-1.7,0.8-3c0-1.3-0.3-2.3-0.8-2.9c-0.5-0.7-1.3-1-2.3-1c-1,0-1.8,0.3-2.3,1C664.1,186.5,663.9,187.5,663.9,188.8z"/>
	<path class="st1" d="M678.9,183.6c0.5,0,0.9,0,1.2,0.1l-0.2,1.4c-0.4-0.1-0.8-0.1-1.1-0.1c-0.8,0-1.5,0.3-2.1,1
		c-0.6,0.7-0.9,1.5-0.9,2.5v5.5h-1.5v-10.2h1.3l0.2,1.9h0.1c0.4-0.7,0.8-1.2,1.4-1.5C677.7,183.7,678.3,183.6,678.9,183.6z"/>
	<path class="st1" d="M686.4,194.1c-1.5,0-2.7-0.5-3.6-1.4c-0.9-0.9-1.3-2.2-1.3-3.8c0-1.6,0.4-2.9,1.2-3.9c0.8-1,1.9-1.4,3.3-1.4
		c1.3,0,2.3,0.4,3,1.3c0.7,0.8,1.1,1.9,1.1,3.3v1h-7c0,1.2,0.3,2.1,0.9,2.7c0.6,0.6,1.4,0.9,2.4,0.9c1.1,0,2.2-0.2,3.2-0.7v1.4
		c-0.5,0.2-1.1,0.4-1.5,0.5C687.6,194,687,194.1,686.4,194.1z M685.9,184.8c-0.8,0-1.5,0.3-2,0.8c-0.5,0.5-0.8,1.3-0.9,2.2h5.3
		c0-1-0.2-1.7-0.6-2.2S686.7,184.8,685.9,184.8z"/>
	<path class="st1" d="M704.6,192.5L704.6,192.5c-0.8,1-1.9,1.5-3.3,1.5c-1.3,0-2.4-0.5-3.1-1.4c-0.7-0.9-1.1-2.2-1.1-3.9
		c0-1.7,0.4-3,1.1-3.9s1.8-1.4,3.1-1.4c1.4,0,2.4,0.5,3.2,1.5h0.1l-0.1-0.7l0-0.7v-4.1h1.5v14.4h-1.3L704.6,192.5z M701.5,192.8
		c1.1,0,1.8-0.3,2.3-0.9s0.7-1.5,0.7-2.8v-0.3c0-1.4-0.2-2.5-0.7-3.1c-0.5-0.6-1.2-0.9-2.3-0.9c-0.9,0-1.6,0.4-2.1,1.1
		c-0.5,0.7-0.7,1.7-0.7,3c0,1.3,0.2,2.3,0.7,2.9C699.9,192.5,700.6,192.8,701.5,192.8z"/>
	<path class="st1" d="M713.6,194.1c-1.5,0-2.7-0.5-3.6-1.4c-0.9-0.9-1.3-2.2-1.3-3.8c0-1.6,0.4-2.9,1.2-3.9c0.8-1,1.9-1.4,3.3-1.4
		c1.3,0,2.3,0.4,3,1.3c0.7,0.8,1.1,1.9,1.1,3.3v1h-7c0,1.2,0.3,2.1,0.9,2.7c0.6,0.6,1.4,0.9,2.4,0.9c1.1,0,2.2-0.2,3.2-0.7v1.4
		c-0.5,0.2-1.1,0.4-1.5,0.5C714.9,194,714.3,194.1,713.6,194.1z M713.2,184.8c-0.8,0-1.5,0.3-2,0.8c-0.5,0.5-0.8,1.3-0.9,2.2h5.3
		c0-1-0.2-1.7-0.6-2.2S714,184.8,713.2,184.8z"/>
	<path class="st1" d="M723.2,192.8c0.3,0,0.5,0,0.8-0.1s0.5-0.1,0.6-0.1v1.2c-0.2,0.1-0.4,0.1-0.7,0.2s-0.6,0.1-0.9,0.1
		c-2,0-2.9-1-2.9-3.1v-6h-1.5v-0.7l1.5-0.6l0.6-2.2h0.9v2.4h3v1.2h-3v6c0,0.6,0.1,1.1,0.4,1.4C722.3,192.7,722.7,192.8,723.2,192.8z
		"/>
	<path class="st1" d="M732.9,193.9l-0.3-1.4h-0.1c-0.5,0.6-1,1.1-1.5,1.3s-1.1,0.3-1.9,0.3c-1,0-1.8-0.3-2.4-0.8s-0.9-1.3-0.9-2.2
		c0-2.1,1.6-3.1,4.9-3.2l1.7-0.1v-0.6c0-0.8-0.2-1.4-0.5-1.8c-0.3-0.4-0.9-0.6-1.6-0.6c-0.8,0-1.8,0.3-2.9,0.8l-0.5-1.2
		c0.5-0.3,1-0.5,1.6-0.6c0.6-0.2,1.2-0.2,1.8-0.2c1.2,0,2.1,0.3,2.7,0.8c0.6,0.5,0.9,1.4,0.9,2.6v6.9H732.9z M729.4,192.8
		c1,0,1.7-0.3,2.3-0.8c0.5-0.5,0.8-1.3,0.8-2.2v-0.9L731,189c-1.2,0-2.1,0.2-2.6,0.6c-0.5,0.3-0.8,0.9-0.8,1.6c0,0.6,0.2,1,0.5,1.3
		C728.4,192.7,728.8,192.8,729.4,192.8z"/>
	<path class="st1" d="M737.1,181c0-0.4,0.1-0.6,0.3-0.8c0.2-0.2,0.4-0.2,0.6-0.2c0.2,0,0.5,0.1,0.6,0.2s0.3,0.4,0.3,0.8
		c0,0.3-0.1,0.6-0.3,0.8s-0.4,0.3-0.6,0.3c-0.3,0-0.5-0.1-0.6-0.3C737.2,181.6,737.1,181.3,737.1,181z M738.8,193.9h-1.5v-10.2h1.5
		V193.9z"/>
	<path class="st1" d="M743.6,193.9H742v-14.4h1.5V193.9z"/>
	<path class="st1" d="M753.4,191.1c0,0.9-0.4,1.7-1.1,2.2c-0.7,0.5-1.7,0.8-3,0.8c-1.3,0-2.4-0.2-3.2-0.6V192c0.5,0.2,1,0.4,1.6,0.6
		c0.6,0.1,1.1,0.2,1.6,0.2c0.8,0,1.4-0.1,1.9-0.4c0.4-0.3,0.6-0.6,0.6-1.2c0-0.4-0.2-0.7-0.5-1c-0.3-0.3-1-0.6-2-1
		c-0.9-0.4-1.6-0.7-2-0.9c-0.4-0.3-0.7-0.6-0.9-0.9c-0.2-0.3-0.3-0.7-0.3-1.2c0-0.8,0.3-1.5,1-2c0.7-0.5,1.6-0.7,2.8-0.7
		c1.1,0,2.2,0.2,3.2,0.7l-0.5,1.3c-1-0.4-1.9-0.6-2.8-0.6c-0.7,0-1.3,0.1-1.7,0.3s-0.6,0.5-0.6,0.9c0,0.3,0.1,0.5,0.2,0.7
		c0.1,0.2,0.4,0.4,0.7,0.5s0.9,0.4,1.8,0.8c1.2,0.4,2,0.9,2.4,1.3S753.4,190.5,753.4,191.1z"/>
</g>
<g id="Group_991" transform="translate(-5984 247)">
	<g id="Group_990" transform="translate(6759.242 2270.54)">
		<path id="Path_6897" class="st1" d="M-107.3-2367.4h-3.3c-0.9,0-1.6,0.7-1.6,1.6v2.5c0,0.9,0.7,1.6,1.6,1.6h3.3
			c0.9,0,1.6-0.7,1.6-1.6v-2.5C-105.6-2366.7-106.4-2367.4-107.3-2367.4z M-106.8-2363.2c0,0.2-0.2,0.4-0.4,0.4h-3.3
			c-0.2,0-0.4-0.2-0.4-0.4v-2.5c0-0.2,0.2-0.4,0.4-0.4h3.3c0.2,0,0.4,0.2,0.4,0.4V-2363.2z"/>
		<path id="Path_6898" class="st1" d="M-100.2-2372c0-0.1,0-0.2-0.1-0.3l-3.6-6.4c-0.1-0.2-0.3-0.3-0.5-0.3h-15.9
			c-0.2,0-0.4,0.1-0.5,0.3l-3.6,6.4c-0.1,0.1-0.1,0.2-0.1,0.3c0,1.4,0.8,2.6,2.1,3.2v10.5c0,0.3,0.3,0.6,0.6,0.6h19
			c0.3,0,0.6-0.3,0.6-0.6v-10.4c0,0,0,0,0-0.1C-101-2369.4-100.2-2370.6-100.2-2372z M-120-2377.8h15.2l2.8,5h-20.9L-120-2377.8z
			 M-107.2-2371.6c-0.2,1.2-1.4,2.1-2.7,1.8c-0.9-0.2-1.7-0.9-1.8-1.8H-107.2z M-113-2371.6c-0.2,1.3-1.4,2.1-2.7,1.9
			c-0.9-0.2-1.7-0.9-1.9-1.9H-113z M-123.4-2371.6h4.5c-0.2,1.3-1.4,2.1-2.7,1.9C-122.5-2369.9-123.2-2370.7-123.4-2371.6z
			 M-114.6-2358.9h-3.4v-6.5c0-0.5,0.4-0.9,0.9-0.9l0,0h1.7c0.5,0,0.9,0.4,0.9,0.9l0,0L-114.6-2358.9L-114.6-2358.9z M-103.5-2358.9
			h-9.9v-6.5c0-1.1-0.9-2-2-2h-1.7c-1.1,0-2,0.9-2,2v6.5h-2.1v-9.6c0.1,0,0.1,0,0.2,0c1.2,0,2.3-0.6,2.9-1.5c1.1,1.6,3.2,2,4.9,0.9
			c0.4-0.3,0.7-0.6,0.9-0.9c1.1,1.6,3.2,2,4.8,1c0.4-0.3,0.7-0.6,1-1c0.6,1,1.7,1.5,2.9,1.5c0.1,0,0.1,0,0.2,0L-103.5-2358.9
			L-103.5-2358.9z M-103.7-2369.7c-1.1,0-2.1-0.8-2.3-1.9h4.5C-101.6-2370.5-102.6-2369.7-103.7-2369.7L-103.7-2369.7z"/>
	</g>
	<rect id="Rectangle_868" x="6662.4" y="-105.5" class="st1" width="14.8" height="2.5"/>
	<rect id="Rectangle_869" x="6662.4" y="-101" class="st1" width="25.8" height="1.2"/>
	<rect id="Rectangle_870" x="6662.4" y="-97.9" class="st1" width="25.8" height="1.2"/>
	<rect id="Rectangle_871" x="6662.4" y="-94.7" class="st1" width="25.8" height="1.2"/>
	<rect id="Rectangle_872" x="6662.4" y="-91.5" class="st1" width="25.8" height="1.2"/>
	<g id="Rectangle_873" transform="translate(6755 2264)">
		<rect x="-124.6" y="-2379" class="st2" width="64.5" height="35"/>
		<rect x="-123.6" y="-2378" class="st11" width="62.5" height="33"/>
	</g>
</g>
<g id="Group_1003" transform="translate(-5984 247)">
	<g id="Group_990-2" transform="translate(6759.242 2270.54)">
		<path id="Path_6897-2" class="st1" d="M-107.3-2367.4h-3.3c-0.9,0-1.6,0.7-1.6,1.6v2.5c0,0.9,0.7,1.6,1.6,1.6h3.3
			c0.9,0,1.6-0.7,1.6-1.6v-2.5C-105.6-2366.7-106.4-2367.4-107.3-2367.4z M-106.8-2363.2c0,0.2-0.2,0.4-0.4,0.4h-3.3
			c-0.2,0-0.4-0.2-0.4-0.4v-2.5c0-0.2,0.2-0.4,0.4-0.4h3.3c0.2,0,0.4,0.2,0.4,0.4V-2363.2z"/>
		<path id="Path_6898-2" class="st1" d="M-100.2-2372c0-0.1,0-0.2-0.1-0.3l-3.6-6.4c-0.1-0.2-0.3-0.3-0.5-0.3h-15.9
			c-0.2,0-0.4,0.1-0.5,0.3l-3.6,6.4c-0.1,0.1-0.1,0.2-0.1,0.3c0,1.4,0.8,2.6,2.1,3.2v10.5c0,0.3,0.3,0.6,0.6,0.6h19
			c0.3,0,0.6-0.3,0.6-0.6v-10.4c0,0,0,0,0-0.1C-101-2369.4-100.2-2370.6-100.2-2372z M-120-2377.8h15.2l2.8,5h-20.9L-120-2377.8z
			 M-107.2-2371.6c-0.2,1.2-1.4,2.1-2.7,1.8c-0.9-0.2-1.7-0.9-1.8-1.8H-107.2z M-113-2371.6c-0.2,1.3-1.4,2.1-2.7,1.9
			c-0.9-0.2-1.7-0.9-1.9-1.9H-113z M-123.4-2371.6h4.5c-0.2,1.3-1.4,2.1-2.7,1.9C-122.5-2369.9-123.2-2370.7-123.4-2371.6z
			 M-114.6-2358.9h-3.4v-6.5c0-0.5,0.4-0.9,0.9-0.9l0,0h1.7c0.5,0,0.9,0.4,0.9,0.9l0,0L-114.6-2358.9L-114.6-2358.9z M-103.5-2358.9
			h-9.9v-6.5c0-1.1-0.9-2-2-2h-1.7c-1.1,0-2,0.9-2,2v6.5h-2.1v-9.6c0.1,0,0.1,0,0.2,0c1.2,0,2.3-0.6,2.9-1.5c1.1,1.6,3.2,2,4.9,0.9
			c0.4-0.3,0.7-0.6,0.9-0.9c1.1,1.6,3.2,2,4.8,1c0.4-0.3,0.7-0.6,1-1c0.6,1,1.7,1.5,2.9,1.5c0.1,0,0.1,0,0.2,0L-103.5-2358.9
			L-103.5-2358.9z M-103.7-2369.7c-1.1,0-2.1-0.8-2.3-1.9h4.5C-101.6-2370.5-102.6-2369.7-103.7-2369.7L-103.7-2369.7z"/>
	</g>
	<rect id="Rectangle_868-2" x="6662.4" y="-105.5" class="st1" width="14.8" height="2.5"/>
	<rect id="Rectangle_869-2" x="6662.4" y="-101" class="st1" width="25.8" height="1.2"/>
	<rect id="Rectangle_870-2" x="6662.4" y="-97.9" class="st1" width="25.8" height="1.2"/>
	<rect id="Rectangle_871-2" x="6662.4" y="-94.7" class="st1" width="25.8" height="1.2"/>
	<rect id="Rectangle_872-2" x="6662.4" y="-91.5" class="st1" width="25.8" height="1.2"/>
	<g id="Rectangle_873-2" transform="translate(6755 2264)">
		<rect x="-124.6" y="-2379" class="st2" width="64.5" height="35"/>
		<rect x="-123.6" y="-2378" class="st11" width="62.5" height="33"/>
	</g>
</g>
<g class="st0">
	<path class="st1" d="M612,297.3h1.7l-4.9,13.6h-1.6l-4.9-13.6h1.7l3.1,8.8c0.4,1,0.6,2,0.9,2.9c0.2-1,0.5-2,0.9-3L612,297.3z"/>
	<path class="st1" d="M615.2,298c0-0.4,0.1-0.6,0.3-0.8c0.2-0.2,0.4-0.2,0.6-0.2c0.2,0,0.5,0.1,0.6,0.2s0.3,0.4,0.3,0.8
		c0,0.3-0.1,0.6-0.3,0.8s-0.4,0.3-0.6,0.3c-0.3,0-0.5-0.1-0.6-0.3C615.3,298.6,615.2,298.3,615.2,298z M616.9,310.9h-1.5v-10.2h1.5
		V310.9z"/>
	<path class="st1" d="M624.4,311.1c-1.5,0-2.7-0.5-3.6-1.4c-0.9-0.9-1.3-2.2-1.3-3.8c0-1.6,0.4-2.9,1.2-3.9c0.8-1,1.9-1.4,3.3-1.4
		c1.3,0,2.3,0.4,3,1.3c0.7,0.8,1.1,1.9,1.1,3.3v1h-7c0,1.2,0.3,2.1,0.9,2.7c0.6,0.6,1.4,0.9,2.4,0.9c1.1,0,2.2-0.2,3.2-0.7v1.4
		c-0.5,0.2-1.1,0.4-1.5,0.5C625.7,311,625.1,311.1,624.4,311.1z M624,301.8c-0.8,0-1.5,0.3-2,0.8c-0.5,0.5-0.8,1.3-0.9,2.2h5.3
		c0-1-0.2-1.7-0.6-2.2S624.8,301.8,624,301.8z"/>
	<path class="st1" d="M639.1,310.9l-1.9-6c-0.1-0.4-0.3-1.2-0.7-2.5h-0.1c-0.2,1.1-0.5,1.9-0.6,2.5l-1.9,5.9h-1.8l-2.8-10.2h1.6
		c0.7,2.6,1.2,4.5,1.5,5.8c0.3,1.3,0.5,2.2,0.6,2.7h0.1c0.1-0.4,0.2-0.8,0.3-1.4c0.2-0.6,0.3-1,0.4-1.3l1.9-5.8h1.7l1.8,5.8
		c0.3,1.1,0.6,2,0.7,2.7h0.1c0-0.2,0.1-0.6,0.2-1c0.1-0.5,0.8-3,1.9-7.5h1.6l-2.8,10.2H639.1z"/>
	<path class="st1" d="M656.6,298.5c-1.5,0-2.7,0.5-3.5,1.5c-0.9,1-1.3,2.4-1.3,4.1c0,1.8,0.4,3.1,1.2,4.1c0.8,1,2,1.5,3.6,1.5
		c0.9,0,2-0.2,3.2-0.5v1.4c-0.9,0.4-2.1,0.5-3.5,0.5c-2,0-3.5-0.6-4.6-1.8c-1.1-1.2-1.6-2.9-1.6-5.2c0-1.4,0.3-2.6,0.8-3.7
		c0.5-1.1,1.3-1.9,2.3-2.4c1-0.6,2.1-0.9,3.5-0.9c1.4,0,2.7,0.3,3.7,0.8l-0.7,1.4C658.6,298.8,657.6,298.5,656.6,298.5z"/>
	<path class="st1" d="M664,300.7v6.6c0,0.8,0.2,1.4,0.6,1.9s1,0.6,1.8,0.6c1.1,0,1.8-0.3,2.3-0.9c0.5-0.6,0.7-1.5,0.7-2.8v-5.3h1.5
		v10.2h-1.3l-0.2-1.4h-0.1c-0.3,0.5-0.8,0.9-1.3,1.2c-0.6,0.3-1.2,0.4-1.9,0.4c-1.2,0-2.2-0.3-2.8-0.9c-0.6-0.6-0.9-1.5-0.9-2.8
		v-6.7H664z"/>
	<path class="st1" d="M680.7,308.1c0,0.9-0.4,1.7-1.1,2.2c-0.7,0.5-1.7,0.8-3,0.8c-1.3,0-2.4-0.2-3.2-0.6V309c0.5,0.2,1,0.4,1.6,0.6
		c0.6,0.1,1.1,0.2,1.6,0.2c0.8,0,1.4-0.1,1.9-0.4c0.4-0.3,0.6-0.6,0.6-1.2c0-0.4-0.2-0.7-0.5-1c-0.3-0.3-1-0.6-2-1
		c-0.9-0.4-1.6-0.7-2-0.9c-0.4-0.3-0.7-0.6-0.9-0.9c-0.2-0.3-0.3-0.7-0.3-1.2c0-0.8,0.3-1.5,1-2c0.7-0.5,1.6-0.7,2.8-0.7
		c1.1,0,2.2,0.2,3.2,0.7l-0.5,1.3c-1-0.4-1.9-0.6-2.8-0.6c-0.7,0-1.3,0.1-1.7,0.3s-0.6,0.5-0.6,0.9c0,0.3,0.1,0.5,0.2,0.7
		c0.1,0.2,0.4,0.4,0.7,0.5s0.9,0.4,1.8,0.8c1.2,0.4,2,0.9,2.4,1.3S680.7,307.4,680.7,308.1z"/>
	<path class="st1" d="M686.5,309.8c0.3,0,0.5,0,0.8-0.1s0.5-0.1,0.6-0.1v1.2c-0.2,0.1-0.4,0.1-0.7,0.2c-0.3,0.1-0.6,0.1-0.9,0.1
		c-2,0-3-1-3-3.1v-6h-1.5v-0.7l1.5-0.6l0.6-2.2h0.9v2.4h3v1.2h-3v6c0,0.6,0.1,1.1,0.4,1.4C685.6,309.6,686,309.8,686.5,309.8z"/>
	<path class="st1" d="M698.7,305.8c0,1.7-0.4,3-1.3,3.9c-0.8,0.9-2,1.4-3.5,1.4c-0.9,0-1.7-0.2-2.4-0.6c-0.7-0.4-1.2-1-1.6-1.8
		c-0.4-0.8-0.6-1.7-0.6-2.8c0-1.7,0.4-2.9,1.2-3.9c0.8-0.9,2-1.4,3.5-1.4c1.4,0,2.6,0.5,3.4,1.4
		C698.3,302.9,698.7,304.2,698.7,305.8z M691,305.8c0,1.3,0.3,2.3,0.8,3c0.5,0.7,1.3,1,2.3,1c1,0,1.8-0.3,2.3-1
		c0.5-0.7,0.8-1.7,0.8-3c0-1.3-0.3-2.3-0.8-2.9c-0.5-0.7-1.3-1-2.3-1c-1,0-1.8,0.3-2.3,1C691.2,303.5,691,304.5,691,305.8z"/>
	<path class="st1" d="M714.4,310.9v-6.6c0-0.8-0.2-1.4-0.5-1.8c-0.3-0.4-0.9-0.6-1.6-0.6c-1,0-1.7,0.3-2.1,0.8s-0.7,1.4-0.7,2.5v5.7
		h-1.5v-6.6c0-0.8-0.2-1.4-0.5-1.8s-0.9-0.6-1.6-0.6c-1,0-1.7,0.3-2.1,0.9c-0.4,0.6-0.7,1.5-0.7,2.8v5.3h-1.5v-10.2h1.3l0.3,1.4h0.1
		c0.3-0.5,0.7-0.9,1.2-1.2c0.5-0.3,1.1-0.4,1.8-0.4c1.6,0,2.6,0.6,3.1,1.7h0.1c0.3-0.5,0.7-1,1.3-1.3s1.2-0.5,2-0.5
		c1.2,0,2,0.3,2.6,0.9c0.6,0.6,0.9,1.5,0.9,2.8v6.6H714.4z"/>
	<path class="st1" d="M723.4,311.1c-1.5,0-2.7-0.5-3.6-1.4c-0.9-0.9-1.3-2.2-1.3-3.8c0-1.6,0.4-2.9,1.2-3.9s1.9-1.4,3.3-1.4
		c1.3,0,2.3,0.4,3,1.3c0.7,0.8,1.1,1.9,1.1,3.3v1h-7c0,1.2,0.3,2.1,0.9,2.7c0.6,0.6,1.4,0.9,2.4,0.9c1.1,0,2.2-0.2,3.2-0.7v1.4
		c-0.5,0.2-1.1,0.4-1.5,0.5C724.7,311,724.1,311.1,723.4,311.1z M723,301.8c-0.8,0-1.5,0.3-2,0.8c-0.5,0.5-0.8,1.3-0.9,2.2h5.3
		c0-1-0.2-1.7-0.7-2.2C724.4,302.1,723.8,301.8,723,301.8z"/>
	<path class="st1" d="M734.4,300.5c0.5,0,0.9,0,1.2,0.1l-0.2,1.4c-0.4-0.1-0.8-0.1-1.1-0.1c-0.8,0-1.5,0.3-2.1,1
		c-0.6,0.7-0.9,1.5-0.9,2.5v5.5h-1.5v-10.2h1.3l0.2,1.9h0.1c0.4-0.7,0.8-1.2,1.4-1.5C733.2,300.7,733.7,300.5,734.4,300.5z"/>
	<path class="st1" d="M744.1,308.1c0,0.9-0.4,1.7-1.1,2.2c-0.7,0.5-1.7,0.8-3,0.8c-1.3,0-2.4-0.2-3.2-0.6V309c0.5,0.2,1,0.4,1.6,0.6
		s1.1,0.2,1.6,0.2c0.8,0,1.4-0.1,1.9-0.4c0.4-0.3,0.7-0.6,0.7-1.2c0-0.4-0.2-0.7-0.5-1c-0.3-0.3-1-0.6-2-1c-0.9-0.4-1.6-0.7-2-0.9
		c-0.4-0.3-0.7-0.6-0.9-0.9c-0.2-0.3-0.3-0.7-0.3-1.2c0-0.8,0.3-1.5,1-2c0.7-0.5,1.6-0.7,2.8-0.7c1.1,0,2.2,0.2,3.2,0.7l-0.5,1.3
		c-1-0.4-1.9-0.6-2.8-0.6c-0.7,0-1.3,0.1-1.7,0.3s-0.6,0.5-0.6,0.9c0,0.3,0.1,0.5,0.2,0.7c0.1,0.2,0.4,0.4,0.7,0.5
		c0.3,0.2,0.9,0.4,1.8,0.8c1.2,0.4,2,0.9,2.4,1.3C743.8,306.9,744.1,307.4,744.1,308.1z"/>
</g>
<g id="Group_993" transform="translate(-6012 -67)">
	<path id="Path_6899" class="st1" d="M6711.5,307h-29.8c-0.5,0-0.9,0.4-0.9,0.9s0.4,0.9,0.9,0.9h29.8c0.5,0,0.9-0.4,0.9-0.9
		S6712,307,6711.5,307z"/>
	<path id="Path_6900" class="st1" d="M6699.3,312.2h-17.5c-0.5,0-0.9,0.4-0.9,0.9s0.4,0.9,0.9,0.9h17.5c0.5,0,0.9-0.4,0.9-0.9
		S6699.8,312.2,6699.3,312.2z"/>
	<path id="Path_6901" class="st1" d="M6711.5,321h-29.8c-0.5,0-0.9,0.4-0.9,0.9s0.4,0.9,0.9,0.9h29.8c0.5,0,0.9-0.4,0.9-0.9
		S6712,321,6711.5,321z"/>
	<path id="Path_6902" class="st1" d="M6699.3,326.2h-17.5c-0.5,0-0.9,0.4-0.9,0.9s0.4,0.9,0.9,0.9h17.5c0.5,0,0.9-0.4,0.9-0.9
		S6699.8,326.2,6699.3,326.2z"/>
	<path id="Path_6903" class="st1" d="M6711.5,335h-29.8c-0.5,0-0.9,0.4-0.9,0.9s0.4,0.9,0.9,0.9h29.8c0.5,0,0.9-0.4,0.9-0.9
		S6712,335,6711.5,335z"/>
	<path id="Path_6904" class="st1" d="M6699.3,340.2h-17.5c-0.5,0-0.9,0.4-0.9,0.9s0.4,0.9,0.9,0.9h17.5c0.5,0,0.9-0.4,0.9-0.9
		S6699.8,340.2,6699.3,340.2z"/>
	<circle id="Ellipse_210" class="st1" cx="6673.9" cy="310.5" r="3.5"/>
	<circle id="Ellipse_211" class="st1" cx="6673.9" cy="324.5" r="3.5"/>
	<circle id="Ellipse_212" class="st1" cx="6673.9" cy="338.5" r="3.5"/>
</g>
<g class="st0">
	<path class="st1" d="M336.8,439.5l-1.7-4.3h-5.4l-1.7,4.3h-1.6l5.4-13.6h1.3l5.3,13.6H336.8z M334.6,433.8l-1.6-4.2
		c-0.2-0.5-0.4-1.2-0.6-2c-0.1,0.6-0.3,1.2-0.6,2l-1.6,4.2H334.6z"/>
	<path class="st1" d="M347,439.5v-6.6c0-0.8-0.2-1.4-0.6-1.9c-0.4-0.4-1-0.6-1.8-0.6c-1.1,0-1.8,0.3-2.3,0.9
		c-0.5,0.6-0.7,1.5-0.7,2.8v5.3h-1.5v-10.2h1.3l0.3,1.4h0.1c0.3-0.5,0.8-0.9,1.3-1.2c0.6-0.3,1.2-0.4,1.9-0.4c1.2,0,2.1,0.3,2.8,0.9
		c0.6,0.6,0.9,1.5,0.9,2.8v6.6H347z"/>
	<path class="st1" d="M358,439.5l-0.3-1.4h-0.1c-0.5,0.6-1,1.1-1.5,1.3c-0.5,0.2-1.1,0.3-1.9,0.3c-1,0-1.8-0.3-2.4-0.8
		c-0.6-0.5-0.9-1.3-0.9-2.2c0-2.1,1.6-3.1,4.9-3.2l1.7-0.1v-0.6c0-0.8-0.2-1.4-0.5-1.8c-0.3-0.4-0.9-0.6-1.6-0.6
		c-0.8,0-1.8,0.3-2.9,0.8l-0.5-1.2c0.5-0.3,1-0.5,1.6-0.6c0.6-0.2,1.2-0.2,1.8-0.2c1.2,0,2.1,0.3,2.7,0.8c0.6,0.5,0.9,1.4,0.9,2.6
		v6.9H358z M354.5,438.4c1,0,1.7-0.3,2.3-0.8c0.5-0.5,0.8-1.3,0.8-2.2v-0.9l-1.5,0.1c-1.2,0-2.1,0.2-2.6,0.6
		c-0.5,0.3-0.8,0.9-0.8,1.6c0,0.6,0.2,1,0.5,1.3C353.4,438.3,353.9,438.4,354.5,438.4z"/>
	<path class="st1" d="M363.8,439.5h-1.5v-14.4h1.5V439.5z"/>
	<path class="st1" d="M365.5,429.3h1.7l2.2,5.8c0.5,1.3,0.8,2.3,0.9,2.9h0.1c0.1-0.3,0.2-0.9,0.5-1.6c0.3-0.8,1.1-3.1,2.5-7h1.7
		l-4.4,11.6c-0.4,1.1-0.9,2-1.5,2.4c-0.6,0.5-1.3,0.7-2.1,0.7c-0.5,0-0.9-0.1-1.4-0.2v-1.2c0.3,0.1,0.7,0.1,1.1,0.1
		c1.1,0,1.8-0.6,2.3-1.8l0.6-1.4L365.5,429.3z"/>
	<path class="st1" d="M379.9,438.4c0.3,0,0.5,0,0.8-0.1c0.3,0,0.5-0.1,0.6-0.1v1.2c-0.2,0.1-0.4,0.1-0.7,0.2
		c-0.3,0.1-0.6,0.1-0.9,0.1c-2,0-3-1-3-3.1v-6h-1.5v-0.7l1.5-0.6l0.6-2.2h0.9v2.4h3v1.2h-3v6c0,0.6,0.1,1.1,0.4,1.4
		C379,438.3,379.4,438.4,379.9,438.4z"/>
	<path class="st1" d="M383.2,426.6c0-0.4,0.1-0.6,0.3-0.8c0.2-0.2,0.4-0.2,0.6-0.2c0.2,0,0.5,0.1,0.6,0.2c0.2,0.2,0.3,0.4,0.3,0.8
		c0,0.3-0.1,0.6-0.3,0.8c-0.2,0.2-0.4,0.3-0.6,0.3c-0.3,0-0.5-0.1-0.6-0.3C383.3,427.2,383.2,426.9,383.2,426.6z M384.9,439.5h-1.5
		v-10.2h1.5V439.5z"/>
	<path class="st1" d="M392.2,439.7c-1.5,0-2.6-0.5-3.4-1.4c-0.8-0.9-1.2-2.2-1.2-3.8c0-1.7,0.4-3,1.2-3.9c0.8-0.9,2-1.4,3.5-1.4
		c0.5,0,1,0.1,1.5,0.2c0.5,0.1,0.9,0.2,1.2,0.4l-0.5,1.3c-0.3-0.1-0.7-0.2-1.1-0.3c-0.4-0.1-0.8-0.1-1.1-0.1c-2.1,0-3.1,1.3-3.1,4
		c0,1.2,0.3,2.2,0.8,2.9c0.5,0.7,1.3,1,2.2,1c0.8,0,1.7-0.2,2.6-0.5v1.4C394.1,439.5,393.3,439.7,392.2,439.7z"/>
	<path class="st1" d="M403.8,436.7c0,0.9-0.4,1.7-1.1,2.2c-0.7,0.5-1.7,0.8-3,0.8c-1.3,0-2.4-0.2-3.2-0.6v-1.4
		c0.5,0.2,1,0.4,1.6,0.6c0.6,0.1,1.1,0.2,1.6,0.2c0.8,0,1.4-0.1,1.9-0.4c0.4-0.3,0.6-0.6,0.6-1.2c0-0.4-0.2-0.7-0.5-1
		c-0.3-0.3-1-0.6-2-1c-0.9-0.4-1.6-0.7-2-0.9c-0.4-0.3-0.7-0.6-0.9-0.9c-0.2-0.3-0.3-0.7-0.3-1.2c0-0.8,0.3-1.5,1-2
		c0.7-0.5,1.6-0.7,2.8-0.7c1.1,0,2.2,0.2,3.2,0.7l-0.5,1.3c-1-0.4-1.9-0.6-2.8-0.6c-0.7,0-1.3,0.1-1.7,0.3s-0.6,0.5-0.6,0.9
		c0,0.3,0.1,0.5,0.2,0.7c0.1,0.2,0.4,0.4,0.7,0.5c0.3,0.2,0.9,0.4,1.8,0.8c1.2,0.4,2,0.9,2.4,1.3
		C403.6,435.5,403.8,436.1,403.8,436.7z"/>
</g>
<g id="Group_995" transform="translate(-6435 255)">
	<path id="Path_6906" class="st1" d="M6783.4,123v35h42.8v-35H6783.4z M6824.8,156.3h-40v-32l40,0.3V156.3z"/>
	<path id="Path_6907" class="st1" d="M6795.6,140.1l-5,5v8.4c0,0.2,0.2,0.4,0.4,0.4h6.1c0.2,0,0.4-0.2,0.4-0.4v-12.8l-1.4-0.5
		L6795.6,140.1L6795.6,140.1z"/>
	<path id="Path_6908" class="st1" d="M6807.9,144h-6.1c-0.2,0-0.4,0.2-0.4,0.4v9c0,0.2,0.2,0.4,0.4,0.4l0,0h6.1
		c0.2,0,0.4-0.2,0.4-0.4l0,0v-9C6808.4,144.2,6808.2,144,6807.9,144z"/>
	<path id="Path_6909" class="st1" d="M6816.7,134.8l-1.1-0.9l-4,4.2v15.4c0,0.2,0.2,0.4,0.4,0.4h6.1c0.2,0,0.4-0.2,0.4-0.4V135
		c0,0,0,0-0.1,0c-0.2,0.1-0.5,0.2-0.8,0.2C6817.4,135.2,6817,135,6816.7,134.8z"/>
	<path id="Path_6910" class="st1" d="M6789.1,144c0.2,0,0.5-0.1,0.6-0.3l5.7-5.9l10,3.7c0.3,0.1,0.7,0,1-0.2l9.2-10l2.2,1.8
		c0.1,0.1,0.4,0.1,0.5,0s0.1-0.2,0.1-0.2l-0.5-5.2c0-0.2-0.2-0.3-0.4-0.3l0,0l-5.2,0.5c-0.1,0-0.3,0.1-0.3,0.2v0.1
		c0,0.1,0.1,0.2,0.1,0.2l2.2,1.8l-8.7,9.5l-10-3.7c-0.3-0.1-0.7,0-1,0.2l-6.1,6.4c-0.3,0.4-0.3,0.9,0,1.3
		C6788.6,143.9,6788.9,144,6789.1,144L6789.1,144z"/>
</g>
<g class="st0">
	<path class="st1" d="M976.5,53.1v8.8c0,1.5-0.5,2.8-1.4,3.6c-0.9,0.9-2.2,1.3-3.9,1.3s-2.9-0.4-3.8-1.3c-0.9-0.9-1.3-2.1-1.3-3.7
		v-8.7h1.6V62c0,1.1,0.3,2,0.9,2.6c0.6,0.6,1.5,0.9,2.7,0.9c1.1,0,2-0.3,2.6-0.9s0.9-1.5,0.9-2.6v-8.8H976.5z"/>
	<path class="st1" d="M984.6,66.9c-0.7,0-1.3-0.1-1.8-0.4c-0.5-0.2-1-0.6-1.4-1.1h-0.1c0.1,0.6,0.1,1.2,0.1,1.7v4.2h-1.5V56.5h1.3
		l0.2,1.4h0.1c0.4-0.6,0.9-1,1.4-1.2c0.5-0.2,1.1-0.4,1.8-0.4c1.3,0,2.4,0.5,3.1,1.4c0.7,0.9,1.1,2.2,1.1,3.9c0,1.7-0.4,3-1.1,3.9
		C986.9,66.4,985.9,66.9,984.6,66.9z M984.4,57.6c-1,0-1.8,0.3-2.3,0.9c-0.5,0.6-0.7,1.5-0.7,2.7v0.3c0,1.4,0.2,2.5,0.7,3.1
		c0.5,0.6,1.2,0.9,2.3,0.9c0.9,0,1.6-0.4,2.1-1.1s0.7-1.7,0.7-2.9c0-1.3-0.2-2.2-0.7-2.9C986,58,985.3,57.6,984.4,57.6z"/>
	<path class="st1" d="M993,66.7h-1.5V52.2h1.5V66.7z"/>
	<path class="st1" d="M1005.1,61.6c0,1.7-0.4,3-1.3,3.9c-0.8,0.9-2,1.4-3.5,1.4c-0.9,0-1.7-0.2-2.4-0.6c-0.7-0.4-1.2-1-1.6-1.8
		c-0.4-0.8-0.6-1.7-0.6-2.8c0-1.7,0.4-2.9,1.2-3.9c0.8-0.9,2-1.4,3.5-1.4c1.4,0,2.6,0.5,3.4,1.4C1004.7,58.7,1005.1,60,1005.1,61.6z
		 M997.3,61.6c0,1.3,0.3,2.3,0.8,3c0.5,0.7,1.3,1,2.3,1c1,0,1.8-0.3,2.3-1c0.5-0.7,0.8-1.7,0.8-3c0-1.3-0.3-2.3-0.8-2.9
		c-0.5-0.7-1.3-1-2.3-1c-1,0-1.8,0.3-2.3,1C997.6,59.3,997.3,60.3,997.3,61.6z"/>
	<path class="st1" d="M1014,66.7l-0.3-1.4h-0.1c-0.5,0.6-1,1.1-1.5,1.3s-1.1,0.3-1.9,0.3c-1,0-1.8-0.3-2.4-0.8s-0.9-1.3-0.9-2.2
		c0-2.1,1.6-3.1,4.9-3.2l1.7-0.1V60c0-0.8-0.2-1.4-0.5-1.8c-0.3-0.4-0.9-0.6-1.6-0.6c-0.8,0-1.8,0.3-2.9,0.8l-0.5-1.2
		c0.5-0.3,1-0.5,1.6-0.6c0.6-0.2,1.2-0.2,1.8-0.2c1.2,0,2.1,0.3,2.7,0.8c0.6,0.5,0.9,1.4,0.9,2.6v6.9H1014z M1010.6,65.6
		c1,0,1.7-0.3,2.3-0.8c0.5-0.5,0.8-1.3,0.8-2.2v-0.9l-1.5,0.1c-1.2,0-2.1,0.2-2.6,0.6c-0.5,0.3-0.8,0.9-0.8,1.6c0,0.6,0.2,1,0.5,1.3
		C1009.5,65.5,1010,65.6,1010.6,65.6z"/>
	<path class="st1" d="M1025.3,65.3L1025.3,65.3c-0.8,1-1.9,1.5-3.3,1.5c-1.3,0-2.4-0.5-3.1-1.4c-0.7-0.9-1.1-2.2-1.1-3.9
		c0-1.7,0.4-3,1.1-3.9s1.8-1.4,3.1-1.4c1.4,0,2.4,0.5,3.2,1.5h0.1l-0.1-0.7l0-0.7v-4.1h1.5v14.4h-1.3L1025.3,65.3z M1022.2,65.6
		c1.1,0,1.8-0.3,2.3-0.9c0.5-0.6,0.7-1.5,0.7-2.8v-0.3c0-1.4-0.2-2.5-0.7-3.1c-0.5-0.6-1.2-0.9-2.3-0.9c-0.9,0-1.6,0.4-2.1,1.1
		c-0.5,0.7-0.7,1.7-0.7,3c0,1.3,0.2,2.3,0.7,2.9S1021.3,65.6,1022.2,65.6z"/>
	<path class="st1" d="M1043.8,57.1c0,1.4-0.5,2.4-1.4,3.2c-0.9,0.7-2.3,1.1-4,1.1h-1.6v5.3h-1.6V53.1h3.5
		C1042.1,53.1,1043.8,54.4,1043.8,57.1z M1036.7,60h1.4c1.4,0,2.4-0.2,3-0.7c0.6-0.5,0.9-1.2,0.9-2.2c0-0.9-0.3-1.6-0.9-2
		s-1.5-0.7-2.7-0.7h-1.8V60z"/>
	<path class="st1" d="M1051,56.3c0.5,0,0.9,0,1.2,0.1l-0.2,1.4c-0.4-0.1-0.8-0.1-1.1-0.1c-0.8,0-1.5,0.3-2.1,1
		c-0.6,0.7-0.9,1.5-0.9,2.5v5.5h-1.5V56.5h1.3l0.2,1.9h0.1c0.4-0.7,0.8-1.2,1.4-1.5S1050.4,56.3,1051,56.3z"/>
	<path class="st1" d="M1062.9,61.6c0,1.7-0.4,3-1.3,3.9c-0.8,0.9-2,1.4-3.5,1.4c-0.9,0-1.7-0.2-2.4-0.6c-0.7-0.4-1.2-1-1.6-1.8
		c-0.4-0.8-0.6-1.7-0.6-2.8c0-1.7,0.4-2.9,1.2-3.9c0.8-0.9,2-1.4,3.5-1.4c1.4,0,2.6,0.5,3.4,1.4C1062.5,58.7,1062.9,60,1062.9,61.6z
		 M1055.2,61.6c0,1.3,0.3,2.3,0.8,3c0.5,0.7,1.3,1,2.3,1c1,0,1.8-0.3,2.3-1c0.5-0.7,0.8-1.7,0.8-3c0-1.3-0.3-2.3-0.8-2.9
		c-0.5-0.7-1.3-1-2.3-1c-1,0-1.8,0.3-2.3,1C1055.4,59.3,1055.2,60.3,1055.2,61.6z"/>
	<path class="st1" d="M1072.5,65.3L1072.5,65.3c-0.8,1-1.9,1.5-3.3,1.5c-1.3,0-2.4-0.5-3.1-1.4c-0.7-0.9-1.1-2.2-1.1-3.9
		c0-1.7,0.4-3,1.1-3.9s1.8-1.4,3.1-1.4c1.4,0,2.4,0.5,3.2,1.5h0.1l-0.1-0.7l0-0.7v-4.1h1.5v14.4h-1.3L1072.5,65.3z M1069.4,65.6
		c1.1,0,1.8-0.3,2.3-0.9c0.5-0.6,0.7-1.5,0.7-2.8v-0.3c0-1.4-0.2-2.5-0.7-3.1s-1.2-0.9-2.3-0.9c-0.9,0-1.6,0.4-2.1,1.1
		s-0.7,1.7-0.7,3c0,1.3,0.2,2.3,0.7,2.9S1068.5,65.6,1069.4,65.6z"/>
	<path class="st1" d="M1078.7,56.5v6.6c0,0.8,0.2,1.4,0.6,1.9s1,0.6,1.8,0.6c1.1,0,1.8-0.3,2.3-0.9c0.5-0.6,0.7-1.5,0.7-2.8v-5.3
		h1.5v10.2h-1.3l-0.2-1.4h-0.1c-0.3,0.5-0.8,0.9-1.3,1.2c-0.6,0.3-1.2,0.4-1.9,0.4c-1.2,0-2.2-0.3-2.8-0.9c-0.6-0.6-0.9-1.5-0.9-2.8
		v-6.7H1078.7z"/>
	<path class="st1" d="M1093,66.9c-1.5,0-2.6-0.5-3.4-1.4c-0.8-0.9-1.2-2.2-1.2-3.8c0-1.7,0.4-3,1.2-3.9s2-1.4,3.5-1.4
		c0.5,0,1,0.1,1.5,0.2c0.5,0.1,0.9,0.2,1.2,0.4l-0.5,1.3c-0.3-0.1-0.7-0.2-1.1-0.3c-0.4-0.1-0.8-0.1-1.1-0.1c-2.1,0-3.1,1.3-3.1,4
		c0,1.2,0.3,2.2,0.8,2.9c0.5,0.7,1.3,1,2.2,1c0.8,0,1.7-0.2,2.6-0.5v1.4C1094.9,66.7,1094,66.9,1093,66.9z"/>
	<path class="st1" d="M1101.2,65.6c0.3,0,0.5,0,0.8-0.1c0.3,0,0.5-0.1,0.6-0.1v1.2c-0.2,0.1-0.4,0.1-0.7,0.2
		c-0.3,0.1-0.6,0.1-0.9,0.1c-2,0-3-1-3-3.1v-6h-1.5V57l1.5-0.6l0.7-2.2h0.9v2.4h2.9v1.2h-2.9v6c0,0.6,0.1,1.1,0.4,1.4
		S1100.7,65.6,1101.2,65.6z"/>
</g>
<g id="Group_998" transform="translate(-5785 -613)">
	<path id="Path_6911" class="st1" d="M6845.4,637.1c-0.2-3.2-2.9-5.5-6.1-5.3c-2.9,0.2-5.1,2.5-5.3,5.3c-3,0.4-5.1,3.1-4.7,6.1
		c0.3,2.7,2.7,4.8,5.4,4.8h8.3c0.2,0,0.4-0.2,0.4-0.4c0-0.2-0.2-0.4-0.4-0.4h-8.3c-2.5,0-4.6-2.1-4.6-4.6c0-2.4,1.9-4.5,4.4-4.6
		c0.2,0,0.4-0.2,0.4-0.4l0,0c0-2.7,2.2-4.9,4.9-4.9c2.7,0,4.9,2.2,4.9,4.9l0,0c0,0.2,0.2,0.4,0.4,0.4c2.5,0.1,4.5,2.3,4.4,4.8
		c-0.1,1.3-0.7,2.5-1.7,3.3c-0.2,0.1-0.2,0.4-0.1,0.6s0.4,0.2,0.6,0.1l0,0c2.3-1.9,2.7-5.3,0.8-7.7
		C6848,638,6846.8,637.3,6845.4,637.1z"/>
	<path id="Path_6912" class="st1" d="M6839.2,639.5v5.5c0,0.2,0.2,0.4,0.4,0.4s0.4-0.2,0.4-0.4v-5.5c0-0.2-0.2-0.4-0.4-0.4
		S6839.2,639.2,6839.2,639.5z"/>
	<path id="Path_6913" class="st1" d="M6842.1,640.3c0.2,0,0.4-0.2,0.4-0.4c0-0.1,0-0.2-0.1-0.3l-2.4-2.4c-0.2-0.2-0.4-0.2-0.6,0l0,0
		l-2.4,2.4c-0.2,0.2-0.2,0.4,0,0.6s0.4,0.2,0.6,0l0,0l2.1-2.1l2.1,2.1C6841.9,640.2,6842,640.3,6842.1,640.3z"/>
	<path id="Path_6914" class="st1" d="M6806.5,622.9h-9.1V613h9.1V622.9z M6798.9,621.4h6.1v-6.9h-6.1V621.4z"/>
	<path id="Path_6915" class="st1" d="M6806.5,635.4h-9.1v-9.9h9.1V635.4z M6798.9,633.9h6.1V627h-6.1V633.9z"/>
	<path id="Path_6916" class="st1" d="M6806.5,648h-9.1v-9.9h9.1V648z M6798.9,646.5h6.1v-6.9h-6.1V646.5z"/>
	<rect id="Rectangle_874" x="6810.8" y="614.6" class="st1" width="38.1" height="1.5"/>
	<rect id="Rectangle_875" x="6810.8" y="627.5" class="st1" width="38.1" height="1.5"/>
	<rect id="Rectangle_877" x="6810.8" y="618.8" class="st1" width="24" height="0.8"/>
	<rect id="Rectangle_878" x="6810.8" y="631" class="st1" width="24" height="0.8"/>
	<rect id="Rectangle_879" x="6810.8" y="643.2" class="st1" width="12" height="0.8"/>
	<rect id="Rectangle_876" x="6810.8" y="639.9" class="st1" width="14.1" height="1.3"/>
</g>
<g class="st0">
	<path class="st1" d="M951.9,190.3c0,1.2-0.4,2.1-1.3,2.8c-0.9,0.7-2,1-3.5,1c-1.6,0-2.8-0.2-3.7-0.6V192c0.6,0.2,1.2,0.4,1.8,0.6
		c0.7,0.1,1.3,0.2,1.9,0.2c1.1,0,1.8-0.2,2.4-0.6c0.5-0.4,0.8-1,0.8-1.7c0-0.5-0.1-0.9-0.3-1.2c-0.2-0.3-0.5-0.6-0.9-0.8
		c-0.4-0.3-1.1-0.5-2-0.9c-1.3-0.5-2.2-1-2.7-1.6c-0.5-0.6-0.8-1.4-0.8-2.4c0-1,0.4-1.9,1.2-2.5c0.8-0.6,1.8-0.9,3.1-0.9
		c1.3,0,2.6,0.2,3.7,0.7l-0.5,1.4c-1.1-0.5-2.2-0.7-3.3-0.7c-0.8,0-1.5,0.2-2,0.5c-0.5,0.4-0.7,0.9-0.7,1.5c0,0.5,0.1,0.9,0.3,1.2
		c0.2,0.3,0.5,0.6,0.9,0.8c0.4,0.3,1,0.5,1.9,0.8c1.4,0.5,2.4,1.1,2.9,1.6C951.6,188.6,951.9,189.4,951.9,190.3z"/>
	<path class="st1" d="M958.8,194.1c-1.5,0-2.7-0.5-3.6-1.4s-1.3-2.2-1.3-3.8c0-1.6,0.4-2.9,1.2-3.9c0.8-1,1.9-1.4,3.3-1.4
		c1.3,0,2.3,0.4,3,1.3c0.7,0.8,1.1,1.9,1.1,3.3v1h-7c0,1.2,0.3,2.1,0.9,2.7c0.6,0.6,1.4,0.9,2.4,0.9c1.1,0,2.2-0.2,3.2-0.7v1.4
		c-0.5,0.2-1.1,0.4-1.5,0.5C960,194,959.4,194.1,958.8,194.1z M958.3,184.8c-0.8,0-1.5,0.3-2,0.8c-0.5,0.5-0.8,1.3-0.9,2.2h5.3
		c0-1-0.2-1.7-0.6-2.2C959.8,185.1,959.1,184.8,958.3,184.8z"/>
	<path class="st1" d="M968.4,192.8c0.3,0,0.5,0,0.8-0.1s0.5-0.1,0.6-0.1v1.2c-0.2,0.1-0.4,0.1-0.7,0.2c-0.3,0.1-0.6,0.1-0.9,0.1
		c-2,0-3-1-3-3.1v-6h-1.5v-0.7l1.5-0.6l0.6-2.2h0.9v2.4h3v1.2h-3v6c0,0.6,0.1,1.1,0.4,1.4C967.5,192.7,967.9,192.8,968.4,192.8z"/>
	<path class="st1" d="M973.3,183.7v6.6c0,0.8,0.2,1.4,0.6,1.9s1,0.6,1.8,0.6c1.1,0,1.8-0.3,2.3-0.9c0.5-0.6,0.7-1.5,0.7-2.8v-5.3
		h1.5v10.2h-1.3l-0.2-1.4h-0.1c-0.3,0.5-0.8,0.9-1.3,1.2c-0.6,0.3-1.2,0.4-1.9,0.4c-1.2,0-2.2-0.3-2.8-0.9c-0.6-0.6-0.9-1.5-0.9-2.8
		v-6.7H973.3z"/>
	<path class="st1" d="M988.2,194.1c-0.7,0-1.3-0.1-1.8-0.4c-0.5-0.2-1-0.6-1.4-1.1h-0.1c0.1,0.6,0.1,1.2,0.1,1.7v4.2h-1.5v-14.7h1.3
		l0.2,1.4h0.1c0.4-0.6,0.9-1,1.4-1.2s1.1-0.4,1.8-0.4c1.3,0,2.4,0.5,3.1,1.4c0.7,0.9,1.1,2.2,1.1,3.9c0,1.7-0.4,3-1.1,3.9
		S989.5,194.1,988.2,194.1z M988,184.9c-1,0-1.8,0.3-2.3,0.9c-0.5,0.6-0.7,1.5-0.7,2.7v0.3c0,1.4,0.2,2.5,0.7,3.1
		c0.5,0.6,1.2,0.9,2.3,0.9c0.9,0,1.6-0.4,2.1-1.1c0.5-0.7,0.7-1.7,0.7-2.9c0-1.3-0.2-2.2-0.7-2.9C989.6,185.2,988.9,184.9,988,184.9
		z"/>
	<path class="st1" d="M1000.3,180.3h3.8c1.8,0,3.1,0.3,3.9,0.8c0.8,0.5,1.2,1.4,1.2,2.6c0,0.8-0.2,1.5-0.7,2c-0.4,0.5-1.1,0.9-2,1
		v0.1c2.1,0.4,3.1,1.4,3.1,3.2c0,1.2-0.4,2.2-1.2,2.8c-0.8,0.7-2,1-3.4,1h-4.7V180.3z M1001.9,186.2h2.6c1.1,0,1.9-0.2,2.4-0.5
		c0.5-0.3,0.7-0.9,0.7-1.8c0-0.8-0.3-1.3-0.8-1.6c-0.5-0.3-1.4-0.5-2.6-0.5h-2.3V186.2z M1001.9,187.5v5.1h2.8
		c1.1,0,1.9-0.2,2.5-0.6c0.6-0.4,0.8-1.1,0.8-2c0-0.8-0.3-1.5-0.8-1.9c-0.6-0.4-1.4-0.6-2.6-0.6H1001.9z"/>
	<path class="st1" d="M1018.6,193.9l-0.3-1.4h-0.1c-0.5,0.6-1,1.1-1.5,1.3c-0.5,0.2-1.1,0.3-1.9,0.3c-1,0-1.8-0.3-2.4-0.8
		c-0.6-0.5-0.9-1.3-0.9-2.2c0-2.1,1.6-3.1,4.9-3.2l1.7-0.1v-0.6c0-0.8-0.2-1.4-0.5-1.8c-0.3-0.4-0.9-0.6-1.6-0.6
		c-0.8,0-1.8,0.3-2.9,0.8l-0.5-1.2c0.5-0.3,1.1-0.5,1.6-0.6c0.6-0.2,1.2-0.2,1.8-0.2c1.2,0,2.1,0.3,2.7,0.8c0.6,0.5,0.9,1.4,0.9,2.6
		v6.9H1018.6z M1015.1,192.8c1,0,1.7-0.3,2.3-0.8c0.5-0.5,0.8-1.3,0.8-2.2v-0.9l-1.5,0.1c-1.2,0-2.1,0.2-2.6,0.6
		c-0.5,0.3-0.8,0.9-0.8,1.6c0,0.6,0.2,1,0.5,1.3S1014.5,192.8,1015.1,192.8z"/>
	<path class="st1" d="M1029.9,193.9v-6.6c0-0.8-0.2-1.4-0.6-1.9c-0.4-0.4-1-0.6-1.8-0.6c-1.1,0-1.8,0.3-2.3,0.9
		c-0.5,0.6-0.7,1.5-0.7,2.8v5.3h-1.5v-10.2h1.3l0.2,1.4h0.1c0.3-0.5,0.8-0.9,1.3-1.2s1.2-0.4,1.9-0.4c1.2,0,2.1,0.3,2.8,0.9
		c0.6,0.6,0.9,1.5,0.9,2.8v6.6H1029.9z"/>
	<path class="st1" d="M1036.1,188.7c0.3-0.4,0.7-0.9,1.2-1.5l3.3-3.5h1.8l-4.1,4.3l4.4,5.8h-1.9l-3.6-4.8l-1.2,1v3.8h-1.5v-14.4h1.5
		v7.7C1036.1,187.5,1036.1,188,1036.1,188.7L1036.1,188.7z"/>
	<path class="st1" d="M1058.3,193.9l-1.7-4.3h-5.4l-1.7,4.3h-1.6l5.4-13.6h1.3l5.3,13.6H1058.3z M1056.1,188.2l-1.6-4.2
		c-0.2-0.5-0.4-1.2-0.6-2c-0.1,0.6-0.3,1.2-0.6,2l-1.6,4.2H1056.1z"/>
	<path class="st1" d="M1065.6,194.1c-1.5,0-2.6-0.5-3.4-1.4c-0.8-0.9-1.2-2.2-1.2-3.8c0-1.7,0.4-3,1.2-3.9c0.8-0.9,2-1.4,3.5-1.4
		c0.5,0,1,0.1,1.5,0.2c0.5,0.1,0.9,0.2,1.2,0.4l-0.5,1.3c-0.3-0.1-0.7-0.2-1.1-0.3c-0.4-0.1-0.8-0.1-1.1-0.1c-2.1,0-3.1,1.3-3.1,4
		c0,1.2,0.3,2.2,0.8,2.9s1.3,1,2.2,1c0.8,0,1.7-0.2,2.6-0.5v1.4C1067.5,193.9,1066.6,194.1,1065.6,194.1z"/>
	<path class="st1" d="M1074.6,194.1c-1.5,0-2.6-0.5-3.4-1.4c-0.8-0.9-1.2-2.2-1.2-3.8c0-1.7,0.4-3,1.2-3.9s2-1.4,3.5-1.4
		c0.5,0,1,0.1,1.5,0.2c0.5,0.1,0.9,0.2,1.2,0.4l-0.5,1.3c-0.3-0.1-0.7-0.2-1.1-0.3c-0.4-0.1-0.8-0.1-1.1-0.1c-2.1,0-3.1,1.3-3.1,4
		c0,1.2,0.3,2.2,0.8,2.9c0.5,0.7,1.3,1,2.2,1c0.8,0,1.7-0.2,2.6-0.5v1.4C1076.5,193.9,1075.7,194.1,1074.6,194.1z"/>
	<path class="st1" d="M1088.4,188.8c0,1.7-0.4,3-1.3,3.9c-0.8,0.9-2,1.4-3.5,1.4c-0.9,0-1.7-0.2-2.4-0.6c-0.7-0.4-1.2-1-1.6-1.8
		c-0.4-0.8-0.6-1.7-0.6-2.8c0-1.7,0.4-2.9,1.2-3.9c0.8-0.9,2-1.4,3.5-1.4c1.4,0,2.6,0.5,3.4,1.4
		C1088,185.9,1088.4,187.2,1088.4,188.8z M1080.7,188.8c0,1.3,0.3,2.3,0.8,3c0.5,0.7,1.3,1,2.3,1c1,0,1.8-0.3,2.3-1
		c0.5-0.7,0.8-1.7,0.8-3c0-1.3-0.3-2.3-0.8-2.9c-0.5-0.7-1.3-1-2.3-1c-1,0-1.8,0.3-2.3,1C1080.9,186.5,1080.7,187.5,1080.7,188.8z"
		/>
	<path class="st1" d="M1092.5,183.7v6.6c0,0.8,0.2,1.4,0.6,1.9c0.4,0.4,1,0.6,1.8,0.6c1.1,0,1.8-0.3,2.3-0.9
		c0.5-0.6,0.7-1.5,0.7-2.8v-5.3h1.5v10.2h-1.3l-0.2-1.4h-0.1c-0.3,0.5-0.8,0.9-1.3,1.2c-0.6,0.3-1.2,0.4-1.9,0.4
		c-1.2,0-2.2-0.3-2.8-0.9c-0.6-0.6-0.9-1.5-0.9-2.8v-6.7H1092.5z"/>
	<path class="st1" d="M1109.7,193.9v-6.6c0-0.8-0.2-1.4-0.6-1.9c-0.4-0.4-1-0.6-1.8-0.6c-1.1,0-1.8,0.3-2.3,0.9
		c-0.5,0.6-0.7,1.5-0.7,2.8v5.3h-1.5v-10.2h1.3l0.2,1.4h0.1c0.3-0.5,0.8-0.9,1.3-1.2s1.2-0.4,1.9-0.4c1.2,0,2.1,0.3,2.8,0.9
		c0.6,0.6,0.9,1.5,0.9,2.8v6.6H1109.7z"/>
	<path class="st1" d="M1117.7,192.8c0.3,0,0.5,0,0.8-0.1c0.3,0,0.5-0.1,0.6-0.1v1.2c-0.2,0.1-0.4,0.1-0.7,0.2
		c-0.3,0.1-0.6,0.1-0.9,0.1c-2,0-3-1-3-3.1v-6h-1.5v-0.7l1.5-0.6l0.6-2.2h0.9v2.4h3v1.2h-3v6c0,0.6,0.1,1.1,0.4,1.4
		S1117.2,192.8,1117.7,192.8z"/>
</g>
<g id="Group_1000" transform="translate(-5681 120)">
	<path id="Path_6917" class="st1" d="M6706.5,31.6c-2,0-3.6,2-3.6,4.4s1.6,4.4,3.6,4.4s3.6-2,3.6-4.4S6708.4,31.6,6706.5,31.6z
		 M6706.5,38.7c-1,0-1.8-1.2-1.8-2.7s0.8-2.7,1.8-2.7s1.8,1.2,1.8,2.7S6707.4,38.7,6706.5,38.7z"/>
	<rect id="Rectangle_880" x="6698.5" y="35.1" class="st1" width="1.8" height="1.8"/>
	<rect id="Rectangle_881" x="6712.7" y="35.1" class="st1" width="1.8" height="1.8"/>
	<path id="Path_6918" class="st1" d="M6737.5,15.6V-11h-37.3v39h-8.9v16h30.2v-7.1h2.7V44h22.2V15.6H6737.5z M6693.2,29.8h2.5
		c-0.3,1.2-1.3,2.2-2.5,2.5V29.8z M6693.2,42.2v-2.5c1.2,0.3,2.2,1.3,2.5,2.5H6693.2z M6719.8,42.2h-2.5c0.3-1.2,1.3-2.2,2.5-2.5
		V42.2z M6719.8,37.9c-2.2,0.4-4,2.1-4.4,4.4h-17.9c-0.4-2.2-2.1-4-4.4-4.4v-3.7c2.2-0.4,4-2.1,4.4-4.4h17.9c0.4,2.2,2.1,4,4.4,4.4
		V37.9z M6719.8,32.3c-1.2-0.3-2.2-1.3-2.5-2.5h2.5V32.3z M6724.2,35.1h-2.7V28H6702V-9.3h33.7v24.8h-11.5V35.1z M6744.6,42.2H6726
		V17.4h18.6V42.2z"/>
	<path id="Path_6919" class="st1" d="M6727.8,19.2v7.1h15.1v-7.1H6727.8z M6741.1,24.5h-11.5V21h11.5V24.5z"/>
	<rect id="Rectangle_882" x="6727.8" y="28" class="st1" width="1.8" height="1.8"/>
	<rect id="Rectangle_883" x="6732.2" y="28" class="st1" width="1.8" height="1.8"/>
	<rect id="Rectangle_884" x="6736.6" y="28" class="st1" width="1.8" height="1.8"/>
	<rect id="Rectangle_885" x="6741.1" y="28" class="st1" width="1.8" height="1.8"/>
	<rect id="Rectangle_886" x="6727.8" y="31.6" class="st1" width="1.8" height="1.8"/>
	<rect id="Rectangle_887" x="6732.2" y="31.6" class="st1" width="1.8" height="1.8"/>
	<rect id="Rectangle_888" x="6736.6" y="31.6" class="st1" width="1.8" height="1.8"/>
	<rect id="Rectangle_889" x="6741.1" y="31.6" class="st1" width="1.8" height="1.8"/>
	<rect id="Rectangle_890" x="6727.8" y="35.1" class="st1" width="1.8" height="1.8"/>
	<rect id="Rectangle_891" x="6732.2" y="35.1" class="st1" width="1.8" height="1.8"/>
	<rect id="Rectangle_892" x="6736.6" y="35.1" class="st1" width="1.8" height="1.8"/>
	<rect id="Rectangle_893" x="6741.1" y="35.1" class="st1" width="1.8" height="1.8"/>
	<rect id="Rectangle_894" x="6727.8" y="38.7" class="st1" width="1.8" height="1.8"/>
	<rect id="Rectangle_895" x="6732.2" y="38.7" class="st1" width="1.8" height="1.8"/>
	<rect id="Rectangle_896" x="6736.6" y="38.7" class="st1" width="1.8" height="1.8"/>
	<rect id="Rectangle_897" x="6741.1" y="38.7" class="st1" width="1.8" height="1.8"/>
	<path id="Path_6920" class="st1" d="M6704.7-6.6V7.6h12.4V-6.6H6704.7z M6715.3,5.9h-8.9V-4.7h8.9V5.9z"/>
	<rect id="Rectangle_898" x="6719.8" y="-0.4" class="st1" width="13.3" height="1.8"/>
	<rect id="Rectangle_899" x="6719.8" y="5.9" class="st1" width="13.3" height="1.8"/>
	<rect id="Rectangle_900" x="6704.7" y="12.1" class="st1" width="28.4" height="1.8"/>
	<rect id="Rectangle_901" x="6704.7" y="19.2" class="st1" width="16.9" height="1.8"/>
</g>
<g id="Group_1005" transform="translate(-5727 93)">
	<rect id="Rectangle_868-3" x="6764.4" y="157.5" class="st1" width="14.8" height="2.5"/>
	<rect id="Rectangle_869-3" x="6764.4" y="162" class="st1" width="25.8" height="1.2"/>
	<rect id="Rectangle_870-3" x="6764.4" y="165.1" class="st1" width="25.8" height="1.2"/>
	<rect id="Rectangle_871-3" x="6764.4" y="168.3" class="st1" width="25.8" height="1.2"/>
	<rect id="Rectangle_872-3" x="6764.4" y="171.5" class="st1" width="25.8" height="1.2"/>
	<g id="Rectangle_873-3" transform="translate(6830 2536)">
		<rect x="-97.6" y="-2388" class="st2" width="64.5" height="35"/>
		<rect x="-96.6" y="-2387" class="st11" width="62.5" height="33"/>
	</g>
	<g id="Group_1004">
		<path id="Path_6922" class="st1" d="M6748.8,160.6c-3.5,0-6.7,1.9-9.1,5.1c-0.2,0.3-0.2,0.6,0,0.9c2.4,3.1,5.5,5.1,9.1,5.1
			s6.7-1.9,9.1-5.1c0.2-0.3,0.2-0.6,0-0.9C6755.5,162.5,6752.4,160.6,6748.8,160.6z M6749.1,169.9c-2.1,0.1-4-1.5-4.1-3.6
			s1.5-4,3.6-4.1s4,1.5,4.1,3.6c0,0.2,0,0.3,0,0.5C6752.6,168.3,6751,169.8,6749.1,169.9z M6749,168.2c-1.2,0.1-2.1-0.8-2.2-1.9
			s0.8-2.1,1.9-2.2c1.2-0.1,2.1,0.8,2.2,1.9c0,0.1,0,0.2,0,0.3C6750.9,167.3,6750,168.1,6749,168.2z"/>
	</g>
</g>
<g id="Group_1006" transform="translate(-5610 272.297)">
	<path id="Path_6923" class="st1" d="M6660.3,112.8c-0.1-6.6-5.5-11.9-12.1-11.8c-5.6,0.1-10.4,4-11.5,9.5h-0.1
		c-5.6-0.1-10.2,4.4-10.2,10c-0.1,5.6,4.4,10.2,10,10.2c0.1,0,0.1,0,0.2,0h3.7c0.5,0,0.9-0.4,0.9-0.9s-0.4-0.9-0.9-0.9l0,0h-3.7
		c-4.6,0-8.3-3.7-8.3-8.3s3.7-8.3,8.3-8.3l0,0c0.2,0,0.5,0,0.8,0c0.5,0,0.9-0.3,1-0.8c0.8-5.5,5.9-9.4,11.4-8.7c5,0.7,8.7,5,8.7,10
		c0,0.2,0,0.7,0,0.7c0,0.5,0.3,0.9,0.8,1c0.1,0,0.1,0,0.2,0c0.2,0,0.5,0,0.7,0c4,0,7.2,3.2,7.2,7.2s-3.2,7.2-7.2,7.2l0,0h-4.1
		c-0.5,0-0.9,0.4-0.9,0.9s0.4,0.9,0.9,0.9l0,0h4.1c5,0,9-4.1,8.9-9C6669,116.8,6665.1,112.9,6660.3,112.8L6660.3,112.8z"/>
	<path id="Path_6924" class="st1" d="M6648.3,105.3c-3.8,0-7.1,2.8-7.6,6.6c-0.1,0.5,0.3,1,0.8,1c0.5,0.1,1-0.3,1-0.8l0,0
		c0.4-2.9,2.9-5,5.8-5c0.5,0,0.9-0.4,0.9-0.9C6649.2,105.7,6648.8,105.3,6648.3,105.3z"/>
	<path id="Path_6925" class="st1" d="M6652.5,131.4c-0.3-0.4-0.9-0.4-1.3-0.1l-2.2,2v-11.2c0-0.5-0.4-0.9-0.9-0.9s-0.9,0.4-0.9,0.9
		v11.2l-2.2-2c-0.4-0.3-1-0.3-1.3,0.1s-0.3,1,0.1,1.3l0,0l3.3,3c0.6,0.5,1.4,0.5,2,0l3.3-3C6652.8,132.3,6652.9,131.7,6652.5,131.4
		L6652.5,131.4z"/>
</g>
</svg>
