<?xml version="1.0" encoding="utf-8"?>
<!-- Generator: Adobe Illustrator 22.0.0, SVG Export Plug-In . SVG Version: 6.00 Build 0)  -->
<svg version="1.1" id="Layer_1" xmlns="http://www.w3.org/2000/svg" xmlns:xlink="http://www.w3.org/1999/xlink" x="0px" y="0px"
	 viewBox="0 0 45 45" style="enable-background:new 0 0 45 45;" xml:space="preserve">
<style type="text/css">
	.st0{fill:#2CC055;}
	.st1{fill:none;}
	.st2{fill:none;stroke:#E1E1E1;}
</style>
<g id="Group_878" transform="translate(-23717 -1148)">
	<g id="Group_864" transform="translate(479.358 1865.358)">
		<path id="Path_323" class="st0" d="M23255.8-701.7l-0.7-1c-0.4,0.2-0.7,0.5-1.1,0.8l0.8,0.9
			C23255.2-701.2,23255.5-701.5,23255.8-701.7z"/>
		<path id="Path_324" class="st0" d="M23260.6-704.4c-1.5,0-3,0.3-4.3,1l0.5,1.1c1.2-0.6,2.5-0.9,3.8-0.9c4.8,0,8.8,3.9,8.8,8.8
			c0,4.8-3.9,8.8-8.8,8.8c-4.8,0-8.8-3.9-8.8-8.8c0-1.3,0.3-2.7,0.9-3.9l-1.1-0.6c-0.7,1.4-1,2.9-1,4.4c0,5.5,4.5,10,10,10
			c5.5,0,10-4.5,10-10C23270.6-699.9,23266.2-704.4,23260.6-704.4z"/>
		<path id="Path_325" class="st0" d="M23254.1-700.2l-0.9-0.8c-0.3,0.3-0.6,0.7-0.8,1.1l1,0.7
			C23253.6-699.6,23253.8-699.9,23254.1-700.2z"/>
		<path id="Path_326" class="st0" d="M23260-698.7h-3.8v8.8h3.8L23260-698.7z M23258.8-691.2h-1.2v-6.2h1.2V-691.2z"/>
		<path id="Path_327" class="st0" d="M23261.3-698.7v8.8h3.8v-8.8H23261.3z M23263.8-691.2h-1.2v-6.2h1.2V-691.2z"/>
	</g>
	<g id="Group_877" transform="translate(-2 83)">
		<g id="Group_872" transform="translate(445 602)">
			<g id="Ellipse_187" transform="translate(98 1519)">
				<circle class="st1" cx="23198.5" cy="-1033.5" r="22.5"/>
				<circle class="st2" cx="23198.5" cy="-1033.5" r="22"/>
			</g>
		</g>
	</g>
</g>
</svg>
