<?xml version="1.0" encoding="utf-8"?>
<!-- Generator: Adobe Illustrator 22.0.0, SVG Export Plug-In . SVG Version: 6.00 Build 0)  -->
<svg version="1.1" id="Layer_1" xmlns="http://www.w3.org/2000/svg" xmlns:xlink="http://www.w3.org/1999/xlink" x="0px" y="0px"
	 viewBox="0 0 45 45" style="enable-background:new 0 0 45 45;" xml:space="preserve">
<style type="text/css">
	.st0{fill:#2CC055;}
	.st1{fill:none;}
	.st2{fill:none;stroke:#E1E1E1;}
</style>
<g id="Group_876" transform="translate(-23719 -1151)">
	<g id="Group_875" transform="translate(17785 7293)">
		<path id="Path_317" class="st0" d="M5957.1-6115.1h6.5c0.2,0,0.4-0.1,0.4-0.4c0,0,0,0,0,0v-3.7c0-0.2-0.1-0.4-0.4-0.4c0,0,0,0,0,0
			h-6.5c-0.2,0-0.4,0.1-0.4,0.4c0,0,0,0,0,0v3.7C5956.6-6115.3,5956.8-6115.1,5957.1-6115.1C5957-6115.1,5957-6115.1,5957.1-6115.1z
			 M5957.5-6118.8h5.7v2.9h-5.7V-6118.8z"/>
		<path id="Path_318" class="st0" d="M5946-6120.4h3.3c0.2,0,0.4-0.2,0.4-0.4c0-0.2-0.2-0.4-0.4-0.4c0,0,0,0,0,0h-3.3
			c-0.2,0-0.4,0.2-0.4,0.4C5945.6-6120.6,5945.8-6120.4,5946-6120.4z"/>
		<path id="Path_319" class="st0" d="M5950.9-6120.4h3.3c0.2,0,0.4-0.2,0.4-0.4c0-0.2-0.2-0.4-0.4-0.4h-3.3c-0.2,0-0.4,0.2-0.4,0.4
			C5950.5-6120.6,5950.7-6120.4,5950.9-6120.4C5950.9-6120.4,5950.9-6120.4,5950.9-6120.4z"/>
		<path id="Path_320" class="st0" d="M5946-6118.8h5.3c0.2,0,0.4-0.2,0.4-0.4c0-0.2-0.2-0.4-0.4-0.4c0,0,0,0,0,0h-5.3
			c-0.2,0-0.4,0.2-0.4,0.4C5945.6-6119,5945.8-6118.8,5946-6118.8z"/>
		<path id="Path_321" class="st0" d="M5954.2-6119.6h-1.2c-0.2,0-0.4,0.2-0.4,0.4c0,0.2,0.2,0.4,0.4,0.4c0,0,0,0,0,0h1.2
			c0.2,0,0.4-0.2,0.4-0.4C5954.6-6119.4,5954.4-6119.6,5954.2-6119.6C5954.2-6119.6,5954.2-6119.6,5954.2-6119.6z"/>
		<path id="Path_322" class="st0" d="M5968.1-6124.7c-0.3-0.4-0.7-0.6-1.1-0.6l-1-0.1v-2c0-0.9-0.7-1.6-1.6-1.6h-18.8
			c-0.9,0-1.6,0.7-1.6,1.6v13.1c0,0.7,0.5,1.4,1.2,1.6c0,0.8,0.6,1.5,1.4,1.6l18.9,2.1h0.2c0.8,0,1.5-0.6,1.6-1.4l1.2-13.1
			C5968.5-6123.9,5968.4-6124.3,5968.1-6124.7z M5944.8-6126.1h20.4v2.4h-20.4V-6126.1z M5945.6-6128.2h18.8c0.4,0,0.8,0.4,0.8,0.8
			v0.4h-20.4v-0.4C5944.8-6127.8,5945.2-6128.2,5945.6-6128.2z M5944.8-6114.3v-8.6h20.4v8.6c0,0.4-0.4,0.8-0.8,0.8h-18.8
			C5945.2-6113.5,5944.8-6113.9,5944.8-6114.3z M5967.7-6123.7l-1.2,13.1c0,0.5-0.4,0.8-0.9,0.7l-18.8-2.1c-0.4,0-0.7-0.3-0.7-0.7
			h18.4c0.9,0,1.6-0.7,1.6-1.6v-10.3l0.9,0.1c0.2,0,0.4,0.1,0.5,0.3C5967.6-6124.1,5967.7-6123.9,5967.7-6123.7z"/>
	</g>
	<g id="Group_872" transform="translate(445 602)">
		<g id="Ellipse_187" transform="translate(98 1519)">
			<circle class="st1" cx="23198.5" cy="-947.5" r="22.5"/>
			<circle class="st2" cx="23198.5" cy="-947.5" r="22"/>
		</g>
	</g>
</g>
</svg>
