<svg id="Group_1023" data-name="Group 1023" xmlns="http://www.w3.org/2000/svg" viewBox="-21000 11477 24.775 30">
  <defs>
    <style>
      .cls-1 {
        fill: #2cc055;
      }
    </style>
  </defs>
  <path id="Path_281" data-name="Path 281" class="cls-1" d="M124.783,82.283a7.7,7.7,0,1,0-12.267.012,12.746,12.746,0,0,1,2.625,7.666v2.977a2.4,2.4,0,0,0,2.4,2.4h2.228a2.4,2.4,0,0,0,2.4-2.4V89.962A12.628,12.628,0,0,1,124.783,82.283ZM113.3,81.7a6.647,6.647,0,0,1-1.368-4.124,6.75,6.75,0,0,1,6.614-6.649A6.712,6.712,0,0,1,124,81.687a13.628,13.628,0,0,0-2.834,8.09h-5.037A13.753,13.753,0,0,0,113.3,81.7ZM116.128,92.6v-.4l5.044.578v.156a1.41,1.41,0,0,1-.022.241Zm0-1.393v-.448h5.044v1.026Zm1.408,3.136a1.409,1.409,0,0,1-1.233-.729l4.249.487a1.4,1.4,0,0,1-.788.242h-2.228Z" transform="translate(-21106.258 11411.666)"/>
  <path id="Path_282" data-name="Path 282" class="cls-1" d="M138.988,179.948a5.052,5.052,0,0,1-.054-.789.494.494,0,1,0-.987-.009,6.038,6.038,0,0,0,.065.943.494.494,0,1,0,.976-.146Z" transform="translate(-21131.48 11310.096)"/>
  <path id="Path_283" data-name="Path 283" class="cls-1" d="M150.387,223.411a.494.494,0,0,0,.469-.648,15.659,15.659,0,0,0-2.423-4.606,4.985,4.985,0,0,1-.462-.729.494.494,0,0,0-.877.453,5.98,5.98,0,0,0,.553.874,14.674,14.674,0,0,1,2.271,4.316A.494.494,0,0,0,150.387,223.411Z" transform="translate(-21139.975 11274.13)"/>
  <path id="Path_284" data-name="Path 284" class="cls-1" d="M287.578,212.04a.494.494,0,0,0-.649.258,4.935,4.935,0,0,1-.6,1.029.494.494,0,1,0,.787.6,5.93,5.93,0,0,0,.721-1.235A.493.493,0,0,0,287.578,212.04Z" transform="translate(-21270.004 11278.951)"/>
  <path id="Path_285" data-name="Path 285" class="cls-1" d="M220.935,97.925a4.941,4.941,0,0,1,4.935,4.935c0,.155-.007.311-.021.463a.494.494,0,0,0,.446.537l.046,0a.494.494,0,0,0,.491-.448c.017-.183.025-.369.025-.554a5.929,5.929,0,0,0-5.922-5.922.494.494,0,0,0,0,.987Z" transform="translate(-21208.547 11386.441)"/>
  <path id="Path_286" data-name="Path 286" class="cls-1" d="M220.935,3.751a.494.494,0,0,0,.494-.494V.494a.494.494,0,0,0-.987,0V3.257A.494.494,0,0,0,220.935,3.751Z" transform="translate(-21208.547 11477)"/>
  <path id="Path_287" data-name="Path 287" class="cls-1" d="M131.517,27.342a.494.494,0,0,0,.855-.493l-1.381-2.393a.494.494,0,1,0-.855.493Z" transform="translate(-21124.123 11454.385)"/>
  <path id="Path_288" data-name="Path 288" class="cls-1" d="M343.742,251.566l-2.393-1.381a.494.494,0,0,0-.493.855l2.393,1.381a.494.494,0,0,0,.493-.855Z" transform="translate(-21320.807 11243.341)"/>
  <path id="Path_289" data-name="Path 289" class="cls-1" d="M64.156,91.29l2.393,1.381a.494.494,0,0,0,.493-.855l-2.393-1.381a.494.494,0,0,0-.493.855Z" transform="translate(-21062.316 11392.578)"/>
  <path id="Path_290" data-name="Path 290" class="cls-1" d="M362.437,180.74h-2.764a.494.494,0,1,0,0,.987h2.764a.494.494,0,1,0,0-.987Z" transform="translate(-21338.156 11308.154)"/>
  <path id="Path_291" data-name="Path 291" class="cls-1" d="M43.451,181.234a.494.494,0,0,0-.494-.494H40.194a.494.494,0,1,0,0,.987h2.764A.494.494,0,0,0,43.451,181.234Z" transform="translate(-21039.699 11308.154)"/>
  <path id="Path_292" data-name="Path 292" class="cls-1" d="M341.1,92.738a.491.491,0,0,0,.246-.066l2.393-1.381a.494.494,0,1,0-.493-.855l-2.393,1.381a.494.494,0,0,0,.247.921Z" transform="translate(-21320.807 11392.578)"/>
  <path id="Path_293" data-name="Path 293" class="cls-1" d="M66.549,250.185l-2.393,1.381a.494.494,0,1,0,.493.855l2.393-1.381a.494.494,0,1,0-.493-.855Z" transform="translate(-21062.316 11243.34)"/>
  <path id="Path_294" data-name="Path 294" class="cls-1" d="M290.066,27.523a.493.493,0,0,0,.674-.181l1.381-2.393a.494.494,0,1,0-.855-.493l-1.381,2.393A.494.494,0,0,0,290.066,27.523Z" transform="translate(-21273.359 11454.385)"/>
</svg>
