<?xml version="1.0" encoding="utf-8"?>
<!-- Generator: Adobe Illustrator 22.0.0, SVG Export Plug-In . SVG Version: 6.00 Build 0)  -->
<svg version="1.1" id="Layer_1" xmlns="http://www.w3.org/2000/svg" xmlns:xlink="http://www.w3.org/1999/xlink" x="0px" y="0px"
	 viewBox="0 0 29.2 30" style="enable-background:new 0 0 29.2 30;" xml:space="preserve">
<style type="text/css">
	.st0{fill:#64B6E6;}
</style>
<g id="Group_954" transform="translate(-1614 9878)">
	<path id="Path_347" class="st0" d="M1642.3-9857.6c0.6-0.7,0.9-1.6,0.9-2.5c0-0.8-0.3-1.5-0.8-2.2c0.6-1.3,0.3-2.9-0.8-3.9
		c-1-0.9-2.7-1.3-5-1.2c-1,0.1-2.1,0.2-3.1,0.4h0c-0.3,0.1-0.6,0.1-1,0.2c0.1-1.3,0.3-2.5,0.8-3.6c0.9-2.7,0.8-4.7-0.2-6.1
		c-0.8-1-1.9-1.6-3.2-1.6c-0.5,0-0.9,0.2-1.2,0.6c-0.5,0.9-0.7,2-0.5,3c-0.8,2.2-3.1,7.7-5.1,9.2c0,0-0.1,0.1-0.1,0.1
		c-0.5,0.5-0.9,1.2-1.2,1.8c-0.4-0.2-0.8-0.3-1.2-0.3h-3.8c-1.4,0-2.6,1.2-2.6,2.6v10.2c0,1.4,1.2,2.6,2.6,2.6h3.8
		c0.5,0,1.1-0.2,1.5-0.5l1.5,0.2c2.8,0.3,5.6,0.5,8.4,0.5c0.7,0.1,1.4,0.1,2.1,0.1c1,0,2-0.1,2.9-0.3c1.6-0.2,3-1.1,3.9-2.4
		c0.4-0.7,0.5-1.6,0.4-2.4c1-0.8,1.5-2,1.4-3.3C1642.5-9856.8,1642.4-9857.2,1642.3-9857.6z M1616.6-9849.9c-0.5,0-0.9-0.4-0.9-0.9
		v-10.2c0-0.5,0.4-0.9,0.9-0.9h3.8c0.5,0,0.9,0.4,0.9,0.9v10.2c0,0.5-0.4,0.9-0.9,0.9L1616.6-9849.9L1616.6-9849.9z M1640.7-9858.3
		c-0.3,0.3-0.3,0.7-0.1,1c0.2,0.3,0.3,0.7,0.3,1c0,0.9-0.4,1.7-1.2,2.2c-0.3,0.2-0.4,0.6-0.3,1c0.2,0.5,0.1,1.1-0.2,1.6
		c-0.7,0.9-1.7,1.5-2.8,1.6c-1.5,0.3-3,0.3-4.6,0.1h-0.1c-2.7,0-5.5-0.1-8.2-0.4h0l-0.6-0.1c0-0.2,0.1-0.4,0.1-0.6v-10.2
		c0-0.3,0-0.5-0.1-0.8c0.2-0.8,0.6-1.5,1.2-2.2c2.8-2.2,5.6-9.8,5.7-10.1c0.1-0.1,0.1-0.3,0-0.4c-0.1-0.6-0.1-1.2,0.1-1.8
		c0.7,0,1.3,0.3,1.8,0.8c0.6,0.9,0.6,2.5-0.1,4.6c-1.1,3.2-1.1,4.9-0.3,5.6c0.4,0.3,0.9,0.4,1.4,0.2c0.4-0.1,0.7-0.2,1.1-0.2l0.1,0
		c1.9-0.4,5.4-0.7,6.6,0.4c0.6,0.6,0.7,1.6,0.2,2.3c-0.2,0.4-0.2,0.8,0.2,1.1c0.4,0.4,0.6,0.9,0.7,1.5
		C1641.5-9859.4,1641.2-9858.8,1640.7-9858.3L1640.7-9858.3z"/>
</g>
</svg>
