<?xml version="1.0" encoding="utf-8"?>
<!-- Generator: Adobe Illustrator 22.0.0, SVG Export Plug-In . SVG Version: 6.00 Build 0)  -->
<svg version="1.1" id="Layer_1" xmlns="http://www.w3.org/2000/svg" xmlns:xlink="http://www.w3.org/1999/xlink" x="0px" y="0px"
	 viewBox="0 0 45 45" style="enable-background:new 0 0 45 45;" xml:space="preserve">
<style type="text/css">
	.st0{fill:#EE3537;}
	.st1{fill:none;}
	.st2{fill:none;stroke:#E1E1E1;}
</style>
<g id="Group_869" transform="translate(-23774 -1187)">
	<g id="Group_853" transform="translate(15878.001 8189)">
		<path id="Path_278" class="st0" d="M7930.9-6971.1l-11.9-20.6c-0.2-0.3-0.5-0.4-0.8-0.2c-0.1,0.1-0.2,0.1-0.2,0.2l-11.9,20.7
			c-0.2,0.3-0.1,0.6,0.2,0.8c0.1,0.1,0.2,0.1,0.3,0.1h23.9c0.3,0,0.6-0.3,0.6-0.6C7931.1-6970.9,7931-6971,7930.9-6971.1z
			 M7907.6-6971.3l10.9-18.9l10.9,18.9H7907.6z"/>
		<path id="Path_279" class="st0" d="M7917.9-6984.3v8.5c0,0.3,0.3,0.6,0.6,0.6c0.3,0,0.6-0.3,0.6-0.6c0,0,0,0,0,0v-8.5
			c0-0.3-0.3-0.6-0.6-0.6C7918.2-6984.8,7917.9-6984.6,7917.9-6984.3z"/>
		<path id="Path_280" class="st0" d="M7918.5-6974.5c-0.4,0-0.7,0.3-0.7,0.7s0.3,0.7,0.7,0.7s0.7-0.3,0.7-0.7c0,0,0,0,0,0
			C7919.3-6974.2,7918.9-6974.5,7918.5-6974.5C7918.5-6974.5,7918.5-6974.5,7918.5-6974.5z"/>
	</g>
	<g id="Ellipse_187" transform="translate(98 1519)">
		<circle class="st1" cx="23698.5" cy="-309.5" r="22.5"/>
		<circle class="st2" cx="23698.5" cy="-309.5" r="22"/>
	</g>
</g>
</svg>
