<?xml version="1.0" encoding="utf-8"?>
<!-- Generator: Adobe Illustrator 22.0.0, SVG Export Plug-In . SVG Version: 6.00 Build 0)  -->
<svg version="1.1" id="Layer_1" xmlns="http://www.w3.org/2000/svg" xmlns:xlink="http://www.w3.org/1999/xlink" x="0px" y="0px"
	 viewBox="0 0 45 45" style="enable-background:new 0 0 45 45;" xml:space="preserve">
<style type="text/css">
	.st0{fill:#2CC055;}
	.st1{fill:none;}
	.st2{fill:none;stroke:#E1E1E1;}
</style>
<g id="Group_874" transform="translate(-23724 -1184)">
	<g id="Group_862" transform="translate(19988 8164)">
		<path id="Path_307" class="st0" d="M3760.4-6947v-5.4l2.1,2.1l2-2l-5.5-5.6l-5.5,5.6l2,2l2.1-2.1v5.4L3760.4-6947z M3755.5-6951.2
			l-1.1-1.1l4.6-4.7l4.6,4.7l-1.1,1.1l-2.7-2.7v6.3h-1.6v-6.3L3755.5-6951.2z"/>
		<path id="Path_308" class="st0" d="M3751.4-6962.5c-0.2,0-0.4-0.1-0.6-0.1l-0.1,0.4c0.2,0.1,0.4,0.1,0.7,0.1c0.7,0,1-0.3,1-0.7
			c0-0.3-0.2-0.6-0.6-0.7c-0.3-0.1-0.4-0.2-0.4-0.3c0-0.1,0.1-0.2,0.3-0.2c0.2,0,0.3,0,0.5,0.1l0.1-0.4c-0.2-0.1-0.4-0.1-0.6-0.1
			c-0.6,0-0.9,0.3-0.9,0.7c0,0.3,0.3,0.6,0.7,0.7c0.3,0.1,0.4,0.2,0.4,0.3S3751.6-6962.5,3751.4-6962.5z"/>
		<path id="Path_309" class="st0" d="M3750.2-6959.2h17.6c0.7,0,1.2-0.5,1.2-1.2v-5.4c0-0.7-0.5-1.2-1.2-1.2h-17.6
			c-0.7,0-1.2,0.5-1.2,1.2v5.4C3749-6959.7,3749.5-6959.2,3750.2-6959.2z M3749.6-6965.8c0-0.3,0.3-0.6,0.6-0.6h17.6
			c0.3,0,0.6,0.3,0.6,0.6v5.4c0,0.3-0.3,0.6-0.6,0.6h-17.6c-0.3,0-0.6-0.3-0.6-0.6V-6965.8z"/>
		<path id="Path_310" class="st0" d="M3753.5-6962c0.6,0,1-0.4,1-1.1v-1.3h-0.5v1.4c0,0.4-0.2,0.6-0.4,0.6c-0.3,0-0.4-0.2-0.4-0.6
			v-1.4h-0.5v1.3C3752.6-6962.4,3752.9-6962,3753.5-6962z"/>
		<path id="Path_311" class="st0" d="M3756.4-6962.2c0.2-0.1,0.2-0.3,0.2-0.5c0-0.3-0.2-0.5-0.5-0.6v0c0.2-0.1,0.4-0.3,0.4-0.5
			c0-0.2-0.1-0.4-0.3-0.5c-0.2-0.1-0.5-0.2-0.7-0.1c-0.2,0-0.5,0-0.7,0v2.3c0.2,0,0.4,0,0.6,0
			C3755.8-6962,3756.1-6962.1,3756.4-6962.2z M3755.4-6964c0.1,0,0.2,0,0.2,0c0.2,0,0.4,0.1,0.4,0.3c0,0.2-0.2,0.3-0.4,0.3h-0.2
			L3755.4-6964z M3755.4-6963.1h0.2c0.3,0,0.5,0.1,0.5,0.3s-0.2,0.3-0.5,0.3c-0.1,0-0.1,0-0.2,0V-6963.1L3755.4-6963.1z"/>
		<path id="Path_312" class="st0" d="M3757.6-6962.5c-0.2,0-0.4-0.1-0.6-0.1l-0.1,0.4c0.2,0.1,0.4,0.1,0.7,0.1c0.7,0,1-0.3,1-0.7
			c0-0.3-0.2-0.6-0.6-0.7c-0.3-0.1-0.4-0.2-0.4-0.3c0-0.1,0.1-0.2,0.3-0.2c0.2,0,0.3,0,0.5,0.1l0.1-0.4c-0.2-0.1-0.4-0.1-0.6-0.1
			c-0.6,0-0.9,0.3-0.9,0.7c0,0.3,0.3,0.6,0.7,0.7c0.3,0.1,0.4,0.2,0.4,0.3S3757.8-6962.5,3757.6-6962.5z"/>
		<path id="Path_313" class="st0" d="M3759.9-6962c0.2,0,0.4,0,0.6-0.1l-0.1-0.4c-0.1,0.1-0.3,0.1-0.4,0.1c-0.4,0-0.8-0.4-0.8-0.8
			c0-0.4,0.3-0.7,0.8-0.8c0.2,0,0.3,0,0.5,0.1l0.1-0.4c-0.2-0.1-0.4-0.1-0.6-0.1c-0.7,0-1.2,0.5-1.3,1.1c0,0,0,0.1,0,0.1
			c0,0.6,0.4,1.2,1.1,1.2C3759.8-6962,3759.8-6962,3759.9-6962z"/>
		<path id="Path_314" class="st0" d="M3761.3-6963h0.2c0.2,0,0.3,0.1,0.4,0.4c0,0.2,0.1,0.4,0.2,0.6h0.6c0-0.1-0.1-0.4-0.2-0.7
			c0-0.2-0.1-0.4-0.3-0.4v0c0.2-0.1,0.4-0.3,0.4-0.6c0-0.2-0.1-0.4-0.2-0.5c-0.2-0.1-0.5-0.2-0.8-0.2c-0.2,0-0.5,0-0.7,0v2.4h0.5
			V-6963L3761.3-6963z M3761.3-6964c0.1,0,0.2,0,0.2,0c0.2,0,0.4,0.1,0.4,0.3c0,0.2-0.2,0.3-0.4,0.3h-0.2L3761.3-6964z"/>
		<rect id="Rectangle_508" x="3762.8" y="-6964.4" class="st0" width="0.5" height="2.4"/>
		<path id="Path_315" class="st0" d="M3765.2-6962.2c0.2-0.1,0.2-0.3,0.2-0.5c0-0.3-0.2-0.5-0.5-0.6v0c0.2-0.1,0.4-0.3,0.4-0.5
			c0-0.2-0.1-0.4-0.3-0.5c-0.2-0.1-0.5-0.2-0.7-0.1c-0.2,0-0.5,0-0.7,0v2.3c0.2,0,0.4,0,0.6,0
			C3764.6-6962,3764.9-6962.1,3765.2-6962.2z M3764.2-6964c0.1,0,0.2,0,0.2,0c0.2,0,0.4,0.1,0.4,0.3c0,0.2-0.2,0.3-0.4,0.3h-0.2
			L3764.2-6964z M3764.2-6963.1h0.2c0.3,0,0.5,0.1,0.5,0.3s-0.2,0.3-0.5,0.3c-0.1,0-0.1,0-0.2,0L3764.2-6963.1z"/>
		<path id="Path_316" class="st0" d="M3767.3-6962.5h-1v-0.6h0.9v-0.4h-0.9v-0.5h0.9v-0.4h-1.5v2.4h1.5L3767.3-6962.5z"/>
	</g>
	<g id="Group_872" transform="translate(450 567)">
		<g id="Ellipse_187" transform="translate(98 1519)">
			<circle class="st1" cx="23198.5" cy="-879.5" r="22.5"/>
			<circle class="st2" cx="23198.5" cy="-879.5" r="22"/>
		</g>
	</g>
</g>
</svg>
