<?xml version="1.0" encoding="utf-8"?>
<!-- Generator: Adobe Illustrator 22.0.0, SVG Export Plug-In . SVG Version: 6.00 Build 0)  -->
<svg version="1.1" id="Layer_1" xmlns="http://www.w3.org/2000/svg" xmlns:xlink="http://www.w3.org/1999/xlink" x="0px" y="0px"
	 viewBox="0 0 45 45" style="enable-background:new 0 0 45 45;" xml:space="preserve">
<style type="text/css">
	.st0{fill:#2CC055;}
	.st1{fill:none;}
	.st2{fill:none;stroke:#E1E1E1;}
</style>
<g id="Group_880" transform="translate(-23712 -1150)">
	<g id="Symbol_1" transform="translate(21191 6795)">
		<path id="Path_328" class="st0" d="M2546.4-5624.4c-0.3-0.3-0.8-0.3-1.1,0c-0.1,0.1-0.2,0.3-0.2,0.5v11.1c0,0.4,0.3,0.8,0.8,0.8
			h3.2c0.4,0,0.8-0.3,0.8-0.8v-7.9c0-0.2-0.1-0.4-0.2-0.5L2546.4-5624.4z M2548.2-5613.5h-1.6v-8.5l1.6,1.6V-5613.5z"/>
		<path id="Path_329" class="st0" d="M2542.9-5624.6c-0.3-0.1-0.6-0.1-0.8,0.2l-3.2,3.2c-0.1,0.1-0.2,0.3-0.2,0.5v7.9
			c0,0.4,0.3,0.8,0.8,0.8l0,0h3.2c0.4,0,0.8-0.3,0.8-0.8l0,0v-11.1C2543.4-5624.2,2543.2-5624.4,2542.9-5624.6z M2541.9-5613.5h-1.6
			v-6.8l1.6-1.6V-5613.5z"/>
		<path id="Path_330" class="st0" d="M2533.7-5624.4c-0.3-0.3-0.8-0.3-1.1,0c-0.1,0.1-0.2,0.3-0.2,0.5v11.1c0,0.4,0.3,0.8,0.8,0.8
			c0,0,0,0,0,0h3.2c0.4,0,0.8-0.3,0.8-0.8l0,0v-7.9c0-0.2-0.1-0.4-0.2-0.5L2533.7-5624.4z M2535.5-5613.5h-1.6v-8.5l1.6,1.6
			L2535.5-5613.5z"/>
		<path id="Path_331" class="st0" d="M2554.9-5623.4l-0.5-3.2c-0.1-0.4-0.5-0.7-0.9-0.6c-0.4,0.1-0.7,0.5-0.6,0.9l0.2,1.2l-8.5-6.6
			c-0.3-0.2-0.7-0.2-1,0l-5.6,4.7l-4.7-4.7c-0.3-0.3-0.8-0.3-1.1,0c-0.3,0.3-0.3,0.8,0,1.1c0,0,0,0,0,0l5.2,5.2c0.3,0.3,0.7,0.3,1,0
			l5.6-4.8l8,6.2l-1.2,0c-0.4,0-0.8,0.3-0.8,0.8c0,0.4,0.3,0.8,0.8,0.8l3.3,0l0,0c0.4,0,0.8-0.3,0.8-0.8
			C2554.9-5623.4,2554.9-5623.4,2554.9-5623.4L2554.9-5623.4z"/>
	</g>
	<g id="Group_879" transform="translate(-5 87)">
		<g id="Group_877" transform="translate(-2 83)">
			<g id="Group_872" transform="translate(445 602)">
				<g id="Ellipse_187" transform="translate(98 1519)">
					<circle class="st1" cx="23198.5" cy="-1118.5" r="22.5"/>
					<circle class="st2" cx="23198.5" cy="-1118.5" r="22"/>
				</g>
			</g>
		</g>
	</g>
</g>
</svg>
