<?xml version="1.0" encoding="utf-8"?>
<!-- Generator: Adobe Illustrator 22.0.0, SVG Export Plug-In . SVG Version: 6.00 Build 0)  -->
<svg version="1.1" id="Layer_1" xmlns="http://www.w3.org/2000/svg" xmlns:xlink="http://www.w3.org/1999/xlink" x="0px" y="0px"
	 viewBox="0 0 45 45" style="enable-background:new 0 0 45 45;" xml:space="preserve">
<style type="text/css">
	.st0{fill:#2CC055;}
	.st1{fill:none;}
	.st2{fill:none;stroke:#E1E1E1;}
</style>
<g id="Group_873" transform="translate(-23705 -1187)">
	<g id="Group_861" transform="translate(20933.998 7191)">
		<path id="Path_295" class="st0" d="M2801.9-5991h-17.6c-0.2,0-0.3,0.1-0.3,0.3c0,0,0,0,0,0v5.1c0,0.2,0.1,0.3,0.3,0.3h17.6
			c0.2,0,0.3-0.1,0.3-0.3l0,0v-5.1C2802.2-5990.9,2802-5991,2801.9-5991C2801.9-5991,2801.9-5991,2801.9-5991z M2784.6-5990.4h11.8
			v4.5h-11.8V-5990.4z M2801.6-5985.9h-4.5v-4.5h4.5V-5985.9z"/>
		<path id="Path_296" class="st0" d="M2789.4-5975.3h5.6c0.2,0,0.3-0.1,0.3-0.3c0-0.2-0.1-0.3-0.3-0.3h-5.6c-0.2,0-0.3,0.1-0.3,0.3
			C2789.1-5975.4,2789.3-5975.3,2789.4-5975.3z"/>
		<path id="Path_297" class="st0" d="M2800.6-5977.6h-11.2c-0.2,0-0.3,0.1-0.3,0.3c0,0.2,0.1,0.3,0.3,0.3h11.2
			c0.2,0,0.3-0.1,0.3-0.3C2800.9-5977.5,2800.8-5977.6,2800.6-5977.6z"/>
		<path id="Path_298" class="st0" d="M2789.4-5980.4h5.6c0.2,0,0.3-0.1,0.3-0.3s-0.1-0.3-0.3-0.3h-5.6c-0.2,0-0.3,0.1-0.3,0.3
			S2789.3-5980.4,2789.4-5980.4z"/>
		<path id="Path_299" class="st0" d="M2789.4-5982.1h11.2c0.2,0,0.3-0.1,0.3-0.3s-0.1-0.3-0.3-0.3h-11.2c-0.2,0-0.3,0.1-0.3,0.3
			S2789.3-5982.1,2789.4-5982.1z"/>
		<path id="Path_300" class="st0" d="M2801.9-5984.4h-17.6c-0.2,0-0.3,0.1-0.3,0.3l0,0v5.1c0,0.2,0.1,0.3,0.3,0.3l0,0h17.6
			c0.2,0,0.3-0.1,0.3-0.3l0,0v-5.1C2802.2-5984.3,2802-5984.4,2801.9-5984.4L2801.9-5984.4z M2801.6-5979.3h-16.9v-4.5h16.9
			L2801.6-5979.3z"/>
		<path id="Path_301" class="st0" d="M2798.1-5987.5c0.4,0.4,1.1,0.5,1.6,0.2l0.7,0.7c0.1,0.1,0.3,0.1,0.5,0c0.1-0.1,0.1-0.3,0-0.4
			l-0.7-0.7c0.4-0.6,0.2-1.4-0.5-1.8s-1.4-0.2-1.8,0.5C2797.6-5988.6,2797.7-5987.9,2798.1-5987.5L2798.1-5987.5z M2798.6-5988.9
			c0.3-0.3,0.7-0.3,0.9,0s0.3,0.7,0,0.9c-0.3,0.3-0.7,0.3-0.9,0C2798.3-5988.2,2798.3-5988.6,2798.6-5988.9
			C2798.6-5988.9,2798.6-5988.9,2798.6-5988.9L2798.6-5988.9z"/>
		<path id="Path_302" class="st0" d="M2788.1-5978h-2.6c-0.2,0-0.3,0.1-0.3,0.3l0,0v2.6c0,0.2,0.1,0.3,0.3,0.3l0,0h2.6
			c0.2,0,0.3-0.1,0.3-0.3l0,0v-2.6C2788.5-5977.9,2788.3-5978,2788.1-5978L2788.1-5978z M2787.8-5975.5h-1.9v-1.9h1.9L2787.8-5975.5
			z"/>
		<path id="Path_303" class="st0" d="M2795-5972.1h-5.6c-0.2,0-0.3,0.1-0.3,0.3c0,0.2,0.1,0.3,0.3,0.3h5.6c0.2,0,0.3-0.1,0.3-0.3
			C2795.3-5971.9,2795.2-5972.1,2795-5972.1z"/>
		<path id="Path_304" class="st0" d="M2800.6-5973.8h-11.2c-0.2,0-0.3,0.1-0.3,0.3c0,0.2,0.1,0.3,0.3,0.3h11.2
			c0.2,0,0.3-0.1,0.3-0.3C2800.9-5973.6,2800.8-5973.8,2800.6-5973.8z"/>
		<path id="Path_305" class="st0" d="M2788.1-5974.2h-2.6c-0.2,0-0.3,0.1-0.3,0.3l0,0v2.6c0,0.2,0.1,0.3,0.3,0.3l0,0h2.6
			c0.2,0,0.3-0.1,0.3-0.3l0,0v-2.6C2788.5-5974,2788.3-5974.2,2788.1-5974.2L2788.1-5974.2z M2787.8-5971.6h-1.9v-1.9h1.9
			L2787.8-5971.6z"/>
		<path id="Path_306" class="st0" d="M2785.6-5979.9h2.6c0.2,0,0.3-0.1,0.3-0.3l0,0v-2.6c0-0.2-0.1-0.3-0.3-0.3l0,0h-2.6
			c-0.2,0-0.3,0.1-0.3,0.3l0,0v2.6C2785.3-5980.1,2785.4-5979.9,2785.6-5979.9L2785.6-5979.9z M2785.9-5982.5h1.9v1.9h-1.9V-5982.5z
			"/>
	</g>
	<g id="Group_872" transform="translate(431 501)">
		<g id="Ellipse_187" transform="translate(98 1519)">
			<circle class="st1" cx="23198.5" cy="-810.5" r="22.5"/>
			<circle class="st2" cx="23198.5" cy="-810.5" r="22"/>
		</g>
	</g>
</g>
</svg>
